<svg width="1038" height="1038" fill="none" xmlns="http://www.w3.org/2000/svg"><path fill="#0D2631" d="M0 0h1038v1038H0z"/><path fill-rule="evenodd" clip-rule="evenodd" d="m523 533 28-25v-63h-8v59l-20 17V403h-8v118l-18-17v-54h-8v58l26 25v92h8v-92Z" fill="#29ABE2"/><path d="M501 445a8 8 0 1 1-16 0 8 8 0 0 1 16 0Z" fill="#29ABE2"/><path fill-rule="evenodd" clip-rule="evenodd" d="M493 445v-1 1Zm0 8a8 8 0 1 0 0-17 8 8 0 0 0 0 17Z" fill="#29ABE2"/><path d="M527 401a8 8 0 1 1-16 0 8 8 0 0 1 16 0Z" fill="#29ABE2"/><path fill-rule="evenodd" clip-rule="evenodd" d="M519 400v1-1Zm0 9a8 8 0 1 0 0-17 8 8 0 0 0 0 17Z" fill="#29ABE2"/><path d="M555 445a8 8 0 1 1-16 0 8 8 0 0 1 16 0Z" fill="#29ABE2"/><path fill-rule="evenodd" clip-rule="evenodd" d="M547 445v-1 1Zm0 8a8 8 0 1 0 0-17 8 8 0 0 0 0 17Z" fill="#29ABE2"/><path d="M527 625a8 8 0 1 1-16 0 8 8 0 0 1 16 0Z" fill="#29ABE2"/><path fill-rule="evenodd" clip-rule="evenodd" d="M519 625v1-1Zm0 9a8 8 0 1 0 0-17 8 8 0 0 0 0 17Z" fill="#29ABE2"/><path d="M550 685V577l58-54-43-144 78-87 138-8s-79 21-115 65c-45 46-35 109-35 109l13 83-63 45-16 117-31 51v-40l16-29Z" fill="#29ABE2"/><path fill-rule="evenodd" clip-rule="evenodd" d="M786 284c0 2-1 4-4 4v1a63 63 0 0 0-3 0 291 291 0 0 0-110 62v1c-22 22-30 48-33 69a150 150 0 0 0-1 37l14 85-64 45-16 116-32 52a4 4 0 0 1-7-2v-41l15-29V575l58-53-42-144 80-91 140-7c2 0 4 2 5 4Zm-36 6-105 6-75 84 43 144-59 55v107l-16 29v24l23-38 16-118 62-44-12-80 4-1-4 1a49 49 0 0 1-1-3v-8l1-28c4-22 13-50 36-74a201 201 0 0 1 87-56ZM462 499v25l22 20v31h9v-35l-23-20v-21h-8Z" fill="#29ABE2"/><path d="M458 497a8 8 0 1 0 16 0 8 8 0 0 0-16 0Z" fill="#29ABE2"/><path fill-rule="evenodd" clip-rule="evenodd" d="M466 497Zm0 8a8 8 0 1 1 0-16 8 8 0 0 1 0 16ZM576 499v25l-22 20v31h-9v-35l23-20v-21h8Z" fill="#29ABE2"/><path d="M803 345c-18-6-16-25-16-25-10-1-21 0-31 2 0 0 3 18-11 24-16 7-27-6-27-6l-22 17s9 15 0 26c-8 11-25 6-25 6-11 21-13 34-13 54 8-24 52-77 124-52a90 90 0 0 1 32 149c-40 45-116 42-116 42 22 18 45 26 65 26 0 0-2-20 19-23 21-2 26 16 26 16 6-2 18-7 27-14 0 0-9-15 6-27 16-11 27 3 27 3 11-9 18-19 23-32 0 0-17-7-12-25 4-19 24-16 24-16l1-29s-22 0-24-19c-2-20 17-25 17-25-3-11-6-19-11-29 0 0-20 9-28-6-9-15 4-28 4-28-9-9-18-17-29-23 0 0-9 20-30 14Z" fill="#29ABE2"/><path fill-rule="evenodd" clip-rule="evenodd" d="M760 326v7c-1 6-5 13-13 17-10 4-18 3-23 0l-6-5-16 13 2 7c1 6 1 14-4 21-6 6-14 8-20 8l-7-1a105 105 0 0 0-10 32 100 100 0 0 1 120-37 95 95 0 0 1 35 155c-22 23-52 34-76 39l-31 4h-1c17 11 34 16 49 17l1-7 7-10c4-2 8-4 14-5a27 27 0 0 1 29 14c6-2 13-5 19-9l-1-8c-1-6 2-15 11-21 9-7 17-6 23-4l6 4c8-7 13-15 17-24l-5-5c-4-5-8-13-5-23 2-11 10-16 16-18l8-2 1-20-9-3c-6-2-14-8-15-19-1-12 4-20 9-24l7-5-8-21-9 1c-7 1-16-1-21-10s-4-18-1-24l3-6c-6-7-14-12-22-17l-5 7c-6 4-15 8-27 5-11-3-16-11-18-17l-1-8c-7-1-15 0-23 2Zm124 58 4-2 1 4c6 10 9 18 13 29l1 5-4 1a14 14 0 0 0-3 1l-5 3c-4 3-7 8-6 17 0 7 5 11 10 12a28 28 0 0 0 9 2h4v5c1 10 0 20-1 29l-1 5-4-1h-1a22 22 0 0 0-7 1c-5 1-9 4-11 12-2 7 1 12 3 15a21 21 0 0 0 7 5l3 2-1 4c-6 13-13 23-24 33l-3 3-3-4-1-1-5-3c-3-1-9-2-15 3-7 4-8 10-8 14a19 19 0 0 0 2 7l2 3-3 3c-9 7-21 12-28 14l-4 1-2-4v-2l-3-5c-3-3-8-7-18-6-4 1-7 2-9 4-3 2-4 4-5 6a19 19 0 0 0-1 8v5h-4c-21 0-45-8-68-27a4 4 0 0 1 3-8 55 55 0 0 0 3 1 172 172 0 0 0 39-4c24-5 52-15 71-37a86 86 0 0 0-31-142 92 92 0 0 0-118 50 4 4 0 0 1-9-2 120 120 0 0 1 14-57l2-3 3 2a17 17 0 0 0 2 0l6 1c5-1 10-2 13-6s4-9 3-13a29 29 0 0 0-3-8l-2-3 3-2c7-7 14-13 22-18l3-2 3 3a12 12 0 0 0 1 2l5 3c4 2 9 3 15 0 5-2 8-7 9-11a26 26 0 0 0 0-8l-1-4 4-1c10-3 22-3 33-2h4v5a14 14 0 0 0 0 2l1 6c1 5 4 9 11 12 9 2 15-1 19-4a24 24 0 0 0 6-7l2-4 4 2c11 6 21 13 30 23l3 3-3 3a23 23 0 0 0-5 7c-1 4-2 9 1 15 4 6 9 7 14 7a29 29 0 0 0 9-2Z" fill="#29ABE2"/><path d="M488 685V577l-58-54 43-144-78-88-138-7s79 21 115 64c45 47 35 110 35 110l-13 83 63 45 16 116 31 52v-40l-16-29Z" fill="#29ABE2"/><path fill-rule="evenodd" clip-rule="evenodd" d="M252 284c0 2 1 4 4 4v1a178 178 0 0 1 12 3l31 12c24 10 52 26 70 47 22 23 30 49 33 70a150 150 0 0 1 1 36v1l-14 85 64 45 16 116 32 52a4 4 0 0 0 7-2v-41l-15-30V575l-58-54 42-143-80-91-140-7c-2 0-4 1-5 4Zm36 6 105 6 75 84-43 144 59 55v107l16 29v24l-23-38-16-118-62-44 12-80-4-1 4 1a33 33 0 0 0 1-3v-8l-1-28c-4-22-13-50-36-74a201 201 0 0 0-87-56Z" fill="#29ABE2"/><path d="M235 346c18-6 16-25 16-25 10-1 21-1 31 2 0 0-3 18 11 24 16 7 27-6 27-6l22 17s-9 15 0 26c8 11 25 6 25 6 11 21 13 34 13 54-8-24-52-77-124-52a90 90 0 0 0-32 149c40 45 116 42 116 42-22 18-45 25-65 25 0 0 2-19-19-22-21-2-26 16-26 16-6-3-18-7-27-14 0 0 9-15-6-27-16-11-27 3-27 3-11-9-18-19-23-32 0 0 17-7 12-25-4-19-24-16-24-16l-1-29s22 0 24-19c2-20-17-26-17-26 3-11 6-18 11-28 0 0 20 8 28-7 9-14-4-27-4-27 9-9 18-17 29-23 0 0 9 20 30 14Z" fill="#29ABE2"/><path fill-rule="evenodd" clip-rule="evenodd" d="M278 326v8c1 6 5 13 13 17 10 4 18 2 23-1 3-1 5-2 6-4l16 13-2 7c-1 6-1 14 4 20 6 7 14 9 20 9l7-1a105 105 0 0 1 10 31c-7-10-17-20-31-29-22-13-52-21-89-8a95 95 0 0 0-35 156c22 23 52 34 76 39l31 4h1a96 96 0 0 1-49 17l-1-7-7-10c-4-2-8-4-14-5a27 27 0 0 0-29 14c-6-2-13-5-19-9l1-8c1-6-2-15-11-21-9-7-17-6-23-4l-6 4c-8-7-13-15-17-24l5-5c4-5 8-13 5-23-2-11-10-16-16-18l-8-2-1-20 9-3c6-2 14-8 15-19 1-12-4-20-9-24l-7-5 8-21 9 1c7 1 16-1 21-10s4-18 1-24l-3-6c6-7 14-12 22-17l5 7c6 4 15 8 27 5 11-3 16-11 18-17l1-8c7-1 15 0 23 1Zm-124 59-4-2-1 4c-6 10-9 18-13 29l-1 4 4 2a13 13 0 0 1 3 1l5 3c4 3 7 8 6 17 0 7-5 10-10 12a28 28 0 0 1-9 2h-4v5c-1 9 0 19 1 29l1 4h5a22 22 0 0 1 7 1c5 1 9 4 11 11 2 8-1 13-3 16a21 21 0 0 1-7 5l-3 2 1 4c6 13 13 23 24 33l3 3 3-4 1-1 5-3c3-1 9-2 15 3 7 4 8 10 8 14a19 19 0 0 1-2 7l-2 3 3 3c9 7 21 11 28 14l4 1 2-4v-2l3-5c3-3 8-7 18-6 4 1 7 2 9 4 3 2 4 4 5 6a19 19 0 0 1 1 8v5h4c21 0 45-8 68-27a4 4 0 0 0-3-8 54 54 0 0 1-3 0 172 172 0 0 1-39-3c-24-5-52-15-71-37a86 86 0 0 1 31-142 92 92 0 0 1 118 50 4 4 0 0 0 9-2 120 120 0 0 0-14-57l-2-3-3 1-1 1a28 28 0 0 1-7 0c-5 0-10-1-13-5s-4-9-3-13a29 29 0 0 1 3-8l2-3-3-2c-7-7-14-13-22-18l-3-2-3 3a13 13 0 0 1-1 2l-5 3c-4 2-9 3-15 0-5-2-8-7-9-11a26 26 0 0 1 0-8l1-4-4-1c-10-3-22-4-33-2h-4v5a22 22 0 0 1-1 8c-1 5-4 9-11 12-9 2-15-1-19-4a24 24 0 0 1-6-7l-2-5-4 3c-11 5-21 13-30 23l-3 3 3 3 2 1 3 6c1 4 2 9-1 15-4 6-9 7-14 7a29 29 0 0 1-9-2Z" fill="#29ABE2"/><path d="M580 499a8 8 0 1 1-16 0 8 8 0 0 1 16 0Z" fill="#29ABE2"/><path fill-rule="evenodd" clip-rule="evenodd" d="M572 499v-1 1Zm0 8a8 8 0 1 0 0-17 8 8 0 0 0 0 17Z" fill="#29ABE2"/></svg>