<svg xmlns="http://www.w3.org/2000/svg" fill="none" viewBox="129.53 280 778.95 477.93">
<path fill-rule="evenodd" clip-rule="evenodd" d="M523.41 532.748L551.137 508.243V445.462H542.63V504.409L523.41 521.395V402.777H514.903V520.961L497.472 504.493V449.955H488.965V508.159L514.903 532.664V625.433H523.41V532.748Z" fill="white"/>
<path d="M501.463 444.72C501.463 449.273 497.772 452.964 493.219 452.964C488.666 452.964 484.975 449.273 484.975 444.72C484.975 440.167 488.666 436.476 493.219 436.476C497.772 436.476 501.463 440.167 501.463 444.72Z" fill="white"/>
<path fill-rule="evenodd" clip-rule="evenodd" d="M492.98 444.615C492.962 444.658 492.956 444.699 492.956 444.72C492.956 444.741 492.962 444.782 492.98 444.825C492.996 444.863 493.015 444.888 493.033 444.906C493.05 444.924 493.076 444.943 493.114 444.959C493.157 444.977 493.198 444.983 493.219 444.983C493.239 444.983 493.281 444.977 493.324 444.959C493.361 444.943 493.387 444.924 493.405 444.906C493.422 444.888 493.442 444.863 493.458 444.825C493.476 444.782 493.482 444.741 493.482 444.72C493.482 444.699 493.476 444.658 493.458 444.615C493.442 444.577 493.422 444.552 493.405 444.534C493.387 444.516 493.361 444.497 493.324 444.481C493.281 444.463 493.239 444.457 493.219 444.457C493.198 444.457 493.157 444.463 493.114 444.481C493.076 444.497 493.05 444.516 493.033 444.534C493.015 444.552 492.996 444.577 492.98 444.615ZM493.219 452.964C497.772 452.964 501.463 449.273 501.463 444.72C501.463 440.167 497.772 436.476 493.219 436.476C488.666 436.476 484.975 440.167 484.975 444.72C484.975 449.273 488.666 452.964 493.219 452.964Z" fill="white"/>
<path d="M527.385 400.594C527.385 405.147 523.694 408.838 519.141 408.838C514.588 408.838 510.896 405.147 510.896 400.594C510.896 396.041 514.588 392.349 519.141 392.349C523.694 392.349 527.385 396.041 527.385 400.594Z" fill="white"/>
<path fill-rule="evenodd" clip-rule="evenodd" d="M518.902 400.489C518.884 400.532 518.878 400.573 518.878 400.594C518.878 400.614 518.884 400.655 518.902 400.699C518.918 400.736 518.937 400.762 518.955 400.78C518.972 400.797 518.998 400.817 519.036 400.833C519.079 400.851 519.12 400.857 519.141 400.857C519.161 400.857 519.202 400.851 519.246 400.833C519.283 400.817 519.309 400.797 519.327 400.78C519.344 400.762 519.364 400.736 519.38 400.699C519.398 400.655 519.404 400.614 519.404 400.594C519.404 400.573 519.398 400.532 519.38 400.489C519.364 400.451 519.344 400.425 519.327 400.408C519.309 400.39 519.283 400.371 519.246 400.355C519.202 400.337 519.161 400.331 519.141 400.331C519.12 400.331 519.079 400.337 519.036 400.355C518.998 400.371 518.972 400.39 518.955 400.408C518.937 400.425 518.918 400.451 518.902 400.489ZM519.141 408.838C523.694 408.838 527.385 405.147 527.385 400.594C527.385 396.041 523.694 392.349 519.141 392.349C514.588 392.349 510.896 396.041 510.896 400.594C510.896 405.147 514.588 408.838 519.141 408.838Z" fill="white"/>
<path d="M555.128 444.72C555.128 449.273 551.437 452.964 546.884 452.964C542.331 452.964 538.64 449.273 538.64 444.72C538.64 440.167 542.331 436.476 546.884 436.476C551.437 436.476 555.128 440.167 555.128 444.72Z" fill="white"/>
<path fill-rule="evenodd" clip-rule="evenodd" d="M546.645 444.615C546.627 444.658 546.621 444.699 546.621 444.72C546.621 444.741 546.627 444.782 546.645 444.825C546.661 444.863 546.68 444.888 546.698 444.906C546.716 444.924 546.741 444.943 546.779 444.959C546.822 444.977 546.863 444.983 546.884 444.983C546.904 444.983 546.946 444.977 546.989 444.959C547.026 444.943 547.052 444.924 547.07 444.906C547.087 444.888 547.107 444.863 547.123 444.825C547.141 444.782 547.147 444.741 547.147 444.72C547.147 444.699 547.141 444.658 547.123 444.615C547.107 444.577 547.087 444.552 547.07 444.534C547.052 444.516 547.026 444.497 546.989 444.481C546.946 444.463 546.904 444.457 546.884 444.457C546.863 444.457 546.822 444.463 546.779 444.481C546.741 444.497 546.716 444.516 546.698 444.534C546.68 444.552 546.661 444.577 546.645 444.615ZM546.884 452.964C551.437 452.964 555.128 449.273 555.128 444.72C555.128 440.167 551.437 436.476 546.884 436.476C542.331 436.476 538.64 440.167 538.64 444.72C538.64 449.273 542.331 452.964 546.884 452.964Z" fill="white"/>
<path d="M527.201 625.433C527.201 629.986 523.51 633.678 518.957 633.678C514.404 633.678 510.713 629.986 510.713 625.433C510.713 620.88 514.404 617.189 518.957 617.189C523.51 617.189 527.201 620.88 527.201 625.433Z" fill="white"/>
<path fill-rule="evenodd" clip-rule="evenodd" d="M518.718 625.328C518.7 625.372 518.694 625.413 518.694 625.433C518.694 625.454 518.7 625.495 518.718 625.538C518.734 625.576 518.754 625.602 518.771 625.619C518.789 625.637 518.815 625.656 518.852 625.672C518.895 625.69 518.936 625.696 518.957 625.696C518.978 625.696 519.019 625.69 519.062 625.672C519.1 625.656 519.125 625.637 519.143 625.619C519.161 625.602 519.18 625.576 519.196 625.538C519.214 625.495 519.22 625.454 519.22 625.433C519.22 625.413 519.214 625.372 519.196 625.328C519.18 625.291 519.161 625.265 519.143 625.247C519.125 625.23 519.1 625.21 519.062 625.194C519.019 625.176 518.978 625.17 518.957 625.17C518.936 625.17 518.895 625.176 518.852 625.194C518.815 625.21 518.789 625.23 518.771 625.247C518.754 625.265 518.734 625.291 518.718 625.328ZM518.957 633.678C523.51 633.678 527.201 629.986 527.201 625.433C527.201 620.88 523.51 617.189 518.957 617.189C514.404 617.189 510.713 620.88 510.713 625.433C510.713 629.986 514.404 633.678 518.957 633.678Z" fill="white"/>
<path d="M549.595 684.617V576.783L608.006 522.865L565.321 379.086L643.333 291.579L781.396 284.353C781.396 284.353 702.371 304.875 666.042 348.592C621.163 394.877 630.815 458.42 630.815 458.42L643.951 540.838L581.047 585.769L565.321 702.59L533.773 753.677V713.801L549.595 684.617Z" fill="white"/>
<path fill-rule="evenodd" clip-rule="evenodd" d="M785.601 283.704C785.934 285.862 784.579 287.922 782.466 288.47L782.466 288.47L782.458 288.472L782.422 288.482C782.4 288.488 782.372 288.495 782.335 288.505L782.265 288.524C782.123 288.561 781.909 288.619 781.624 288.697C781.056 288.853 780.209 289.089 779.114 289.406C776.923 290.041 773.741 290.999 769.803 292.286C761.923 294.861 751.041 298.746 739.043 303.978C714.915 314.499 686.828 330.235 669.315 351.311L669.21 351.436L669.097 351.553C647.465 373.862 638.92 400.383 635.807 421.484C634.252 432.024 634.062 441.157 634.26 447.639C634.359 450.877 634.554 453.447 634.722 455.191C634.806 456.063 634.883 456.728 634.938 457.166C634.966 457.385 634.988 457.548 635.002 457.651C635.009 457.703 635.015 457.74 635.018 457.762L635.021 457.783L635.021 457.784L635.021 457.785L648.566 542.769L585.018 588.16L569.417 704.054L537.393 755.912C536.394 757.53 534.442 758.288 532.612 757.769C530.783 757.249 529.521 755.579 529.521 753.677V712.723L545.343 683.538V574.92L603.175 521.537L560.57 378.025L641.34 287.424L781.174 280.106C783.355 279.991 785.267 281.547 785.601 283.704ZM750.133 290.249L645.328 295.735L570.074 380.148L612.838 524.194L553.85 578.645V685.696L538.028 714.88V738.693L561.227 701.125L577.078 583.377L639.336 538.907L626.612 459.074L626.61 459.059L630.815 458.42C626.61 459.059 626.61 459.057 626.609 459.055L626.608 459.049L626.606 459.034L626.599 458.986C626.596 458.964 626.592 458.937 626.588 458.906C626.584 458.881 626.58 458.853 626.576 458.821C626.556 458.681 626.529 458.482 626.497 458.224C626.433 457.709 626.346 456.964 626.254 456.008C626.07 454.096 625.862 451.34 625.757 447.898C625.547 441.019 625.749 431.373 627.391 420.242C630.667 398.036 639.712 369.699 662.876 345.748C681.696 323.171 711.222 306.829 735.643 296.18C740.714 293.968 745.589 291.993 750.133 290.249Z" fill="white"/>
<path fill-rule="evenodd" clip-rule="evenodd" d="M461.842 499.268V523.733L484.203 543.952V575.144H492.71V540.175L470.349 519.956V499.268H461.842Z" fill="white"/>
<path d="M457.851 497.231C457.851 501.784 461.542 505.475 466.096 505.475C470.649 505.475 474.34 501.784 474.34 497.231C474.34 492.677 470.649 488.986 466.096 488.986C461.542 488.986 457.851 492.677 457.851 497.231Z" fill="white"/>
<path fill-rule="evenodd" clip-rule="evenodd" d="M466.334 497.126C466.353 497.169 466.359 497.21 466.359 497.231C466.359 497.251 466.353 497.292 466.334 497.336C466.319 497.373 466.299 497.399 466.282 497.417C466.264 497.434 466.238 497.453 466.201 497.469C466.157 497.488 466.116 497.494 466.096 497.494C466.075 497.494 466.034 497.488 465.991 497.469C465.953 497.453 465.927 497.434 465.91 497.417C465.892 497.399 465.873 497.373 465.857 497.336C465.838 497.292 465.833 497.251 465.833 497.231C465.833 497.21 465.838 497.169 465.857 497.126C465.873 497.088 465.892 497.062 465.91 497.045C465.927 497.027 465.953 497.008 465.991 496.992C466.034 496.973 466.075 496.968 466.096 496.968C466.116 496.968 466.157 496.973 466.201 496.992C466.238 497.008 466.264 497.027 466.282 497.045C466.299 497.062 466.319 497.088 466.334 497.126ZM466.096 505.475C461.542 505.475 457.851 501.784 457.851 497.231C457.851 492.677 461.542 488.986 466.096 488.986C470.649 488.986 474.34 492.677 474.34 497.231C474.34 501.784 470.649 505.475 466.096 505.475Z" fill="white"/>
<path fill-rule="evenodd" clip-rule="evenodd" d="M576.201 499.268V523.733L553.84 543.952V575.144H545.333V540.175L567.694 519.956V499.268H576.201Z" fill="white"/>
<path d="M803.125 344.678C785.056 339.413 787.399 319.966 787.399 319.966C777.476 318.797 766.05 319.554 755.948 322.213C755.948 322.213 758.986 339.907 744.899 346.358C729.33 353.487 718.485 339.907 718.485 339.907C710.646 344.884 703.289 350.68 696.474 357.166C696.474 357.166 705.278 372.086 696.474 382.87C687.669 393.654 670.898 388.584 670.898 388.584C659.602 410.392 657.585 422.774 657.585 443.477C665.778 419.428 710.08 366.324 781.667 391.243C842.675 412.48 861.314 493.314 814.455 539.896C773.92 585.254 697.905 581.738 697.905 581.738C719.916 600.212 743.317 607.525 762.687 607.525C762.687 607.525 760.631 587.694 781.878 585.254C803.125 582.813 807.618 600.785 807.618 600.785C814.358 598.539 825.591 594.046 834.577 587.306C834.577 587.306 825.591 571.58 841.317 560.347C857.042 549.115 868.275 562.594 868.275 562.594C878.729 553.608 885.627 543.704 890.894 531.099C890.894 531.099 874.326 524.061 878.729 505.587C883.131 487.113 902.501 489.752 902.501 489.752C903.909 480.205 904.439 470.465 904.139 460.721C904.139 460.721 882.484 460.721 880.49 442.247C878.305 422.014 897.48 416.568 897.48 416.568C894.445 405.54 890.758 397.688 885.694 387.705C885.694 387.705 866.402 396.502 857.598 381.547C848.793 366.591 862 353.733 862 353.733C853.41 344.696 843.64 337.093 832.815 331.403C832.815 331.403 824.256 350.836 803.125 344.678Z" fill="white"/>
<path fill-rule="evenodd" clip-rule="evenodd" d="M760.469 325.509C760.509 327.432 760.405 329.941 759.884 332.666C758.728 338.699 755.398 346.228 746.67 350.225C737.389 354.475 729.363 352.522 723.839 349.553C721.335 348.206 719.331 346.652 717.898 345.371C712.217 349.186 706.802 353.456 701.681 358.127C702.435 359.867 703.327 362.278 703.932 365.073C705.168 370.776 705.33 378.748 699.769 385.56C694.233 392.34 686.336 393.935 680.448 394.024C677.609 394.068 675.073 393.769 673.197 393.446C668.557 402.756 665.796 410.176 664.153 417.39C663.61 419.769 663.186 422.144 662.856 424.578C669.887 414.509 680.232 403.751 693.597 395.391C715.65 381.595 745.959 374.31 783.065 387.226C847.035 409.494 866.493 494.037 817.543 542.824C796.389 566.433 766.24 577.135 741.809 581.998C729.523 584.443 718.54 585.44 710.623 585.827C710.53 585.832 710.438 585.836 710.346 585.84C727.016 597.193 743.9 602.341 758.538 603.155C758.758 601.069 759.262 598.437 760.375 595.701C761.669 592.522 763.805 589.163 767.283 586.422C770.774 583.671 775.399 581.716 781.393 581.028C793.468 579.641 801.233 584.112 805.874 589.255C807.812 591.403 809.153 593.605 810.053 595.411C815.698 593.299 822.924 590.088 829.312 585.821C828.646 583.914 827.961 581.294 827.802 578.263C827.454 571.659 829.657 563.448 838.844 556.886C847.994 550.35 856.296 550.848 862.312 553.325C864.799 554.349 866.821 555.674 868.315 556.843C875.778 549.837 881.162 542.178 885.462 532.887C883.835 531.788 881.848 530.211 879.972 528.086C875.615 523.151 872.019 515.392 874.591 504.601C877.213 493.598 884.506 488.667 891.021 486.674C893.946 485.78 896.698 485.471 898.797 485.391C899.635 478.538 900.018 471.59 899.961 464.621C897.684 464.291 894.625 463.643 891.456 462.351C884.876 459.668 877.479 453.993 876.26 442.704C874.99 430.941 880.02 423.219 885.391 418.596C887.851 416.479 890.359 415.022 892.321 414.07C889.961 406.426 887.18 400.208 883.582 392.974C881.436 393.614 878.482 394.297 875.184 394.481C868.344 394.862 859.434 393.051 853.932 383.705C848.653 374.738 850.018 366.291 852.593 360.342C853.725 357.727 855.098 355.561 856.268 353.963C849.618 347.392 842.307 341.715 834.397 337.135C833.109 339.029 831.221 341.391 828.658 343.582C822.97 348.447 814.094 352.306 801.935 348.762C791.197 345.633 786.397 338.121 784.415 331.581C783.533 328.669 783.198 325.944 783.09 323.846C775.788 323.38 767.855 323.937 760.469 325.509ZM883.931 383.833L883.934 383.832L883.937 383.83L883.939 383.83L887.641 382.142L889.487 385.78C894.592 395.844 898.432 403.997 901.581 415.439L902.701 419.507L898.661 420.654L898.655 420.656L898.653 420.657C898.64 420.661 898.609 420.67 898.563 420.685C898.471 420.715 898.316 420.766 898.109 420.841C897.694 420.991 897.074 421.235 896.324 421.587C894.81 422.296 892.834 423.414 890.94 425.044C887.27 428.203 883.804 433.32 884.718 441.791C885.494 448.976 889.922 452.538 894.668 454.473C897.08 455.457 899.485 455.964 901.314 456.22C902.219 456.347 902.961 456.409 903.461 456.439C903.711 456.455 903.899 456.462 904.016 456.465C904.074 456.467 904.114 456.467 904.135 456.468L904.139 456.468H904.145H904.149H908.263L908.39 460.59C908.698 470.574 908.155 480.566 906.709 490.373L906.095 494.535L901.945 493.969L901.939 493.969L901.936 493.968C901.922 493.967 901.891 493.963 901.843 493.958C901.749 493.948 901.59 493.933 901.375 493.919C900.945 493.89 900.298 493.864 899.498 493.881C897.882 493.916 895.731 494.13 893.51 494.809C889.24 496.115 884.646 499.102 882.866 506.573C881.035 514.256 883.522 519.253 886.349 522.456C887.818 524.12 889.42 525.331 890.664 526.126C891.281 526.52 891.794 526.802 892.136 526.978C892.306 527.065 892.433 527.126 892.506 527.16C892.541 527.176 892.563 527.186 892.573 527.191C892.574 527.191 892.575 527.191 892.575 527.192C892.58 527.194 892.58 527.194 892.577 527.193L896.449 528.837L894.819 532.739C889.316 545.907 882.042 556.369 871.048 565.82L867.772 568.635L865.023 565.336C865.023 565.336 865.023 565.336 865.023 565.336C865.022 565.335 865.021 565.334 865.02 565.333C865.013 565.325 865 565.309 864.979 565.286C864.929 565.231 864.841 565.134 864.716 565.006C864.464 564.747 864.068 564.364 863.542 563.924C862.479 563.033 860.954 561.966 859.073 561.192C855.542 559.737 850.365 559.112 843.789 563.809C837.249 568.48 836.083 573.748 836.297 577.815C836.41 579.958 836.922 581.854 837.418 583.227C837.664 583.906 837.898 584.436 838.062 584.781C838.111 584.883 838.153 584.969 838.187 585.036C838.21 585.082 838.23 585.119 838.245 585.148C838.263 585.182 838.274 585.203 838.279 585.212C838.28 585.213 838.28 585.213 838.28 585.214L838.281 585.215L838.282 585.217L840.133 588.456L837.129 590.709C827.606 597.851 815.873 602.517 808.963 604.821L804.605 606.273L803.498 601.841C803.497 601.84 803.497 601.839 803.497 601.838C803.494 601.828 803.488 601.805 803.478 601.772C803.456 601.695 803.415 601.561 803.353 601.379C803.23 601.013 803.024 600.458 802.716 599.785C802.094 598.426 801.088 596.65 799.558 594.954C796.64 591.72 791.535 588.426 782.363 589.479C777.733 590.011 774.648 591.45 772.548 593.104C770.437 594.768 769.103 596.824 768.255 598.908C767.397 601.014 767.057 603.106 766.94 604.7C766.882 605.487 766.881 606.128 766.892 606.554C766.898 606.766 766.907 606.922 766.913 607.014C766.916 607.06 766.919 607.09 766.92 607.103L766.92 607.108L767.404 611.779H762.687C742.257 611.779 717.901 604.074 695.17 584.996C693.773 583.823 693.279 581.89 693.942 580.191C694.606 578.492 696.278 577.405 698.099 577.489C698.1 577.489 698.101 577.489 698.101 577.489L698.136 577.49C698.165 577.492 698.213 577.493 698.278 577.496C698.409 577.501 698.61 577.507 698.878 577.514C699.415 577.528 700.219 577.543 701.265 577.547C703.356 577.554 706.41 577.516 710.208 577.33C717.811 576.959 728.364 576 740.149 573.654C763.827 568.942 791.906 558.745 811.283 537.062L811.367 536.968L811.456 536.88C856.111 492.488 838.275 415.453 780.268 395.26C745.787 383.257 718.152 390.065 698.109 402.603C677.848 415.278 665.376 433.797 661.611 444.849C660.94 446.818 658.942 448.014 656.889 447.673C654.837 447.333 653.331 445.558 653.331 443.477C653.331 432.997 653.839 424.362 655.858 415.5C657.879 406.63 661.368 397.734 667.12 386.628L668.745 383.49L672.116 384.509L672.119 384.51L672.119 384.51L672.123 384.511L672.125 384.512L672.128 384.513C672.144 384.517 672.174 384.526 672.219 384.538C672.31 384.563 672.457 384.603 672.655 384.652C673.053 384.75 673.652 384.886 674.407 385.021C675.925 385.294 678.015 385.553 680.319 385.518C685.018 385.446 689.909 384.184 693.179 380.18C696.421 376.208 696.583 371.328 695.618 366.875C695.144 364.685 694.424 362.759 693.817 361.375C693.515 360.689 693.248 360.149 693.062 359.794C692.97 359.616 692.899 359.486 692.854 359.406C692.832 359.366 692.817 359.34 692.809 359.326C692.808 359.323 692.806 359.321 692.805 359.319C692.804 359.318 692.804 359.317 692.804 359.317L691.092 356.416L693.541 354.085C700.547 347.418 708.121 341.448 716.205 336.316L719.427 334.27L721.796 337.237L721.797 337.238L721.799 337.241C721.806 337.249 721.823 337.269 721.849 337.3C721.902 337.362 721.992 337.466 722.12 337.606C722.376 337.885 722.775 338.301 723.306 338.79C724.377 339.777 725.93 341.018 727.868 342.06C731.658 344.098 736.839 345.37 743.128 342.49C748.487 340.037 750.681 335.493 751.528 331.067C751.953 328.849 752.008 326.77 751.951 325.235C751.923 324.474 751.868 323.864 751.823 323.459C751.801 323.257 751.78 323.107 751.767 323.017C751.761 322.972 751.756 322.942 751.754 322.928C751.754 322.927 751.754 322.926 751.754 322.926C751.753 322.923 751.753 322.924 751.753 322.922C751.753 322.922 751.753 322.919 751.753 322.918C751.753 322.918 751.752 322.918 751.753 322.918L751.095 319.091L754.865 318.099C765.482 315.305 777.445 314.51 787.897 315.742L792.132 316.241L791.624 320.458L791.624 320.463L791.623 320.467C791.622 320.482 791.618 320.514 791.614 320.562C791.605 320.659 791.593 320.82 791.581 321.038C791.558 321.474 791.54 322.132 791.567 322.947C791.621 324.593 791.856 326.802 792.557 329.114C793.921 333.614 796.983 338.458 804.315 340.595C813.287 343.209 819.256 340.43 823.129 337.117C825.137 335.4 826.614 333.498 827.591 332.009C828.075 331.271 828.425 330.652 828.647 330.234C828.758 330.025 828.835 329.868 828.881 329.773C828.891 329.752 828.9 329.734 828.907 329.72C828.915 329.701 828.921 329.688 828.925 329.68C828.927 329.677 828.926 329.678 828.927 329.676C828.927 329.675 828.929 329.672 828.929 329.671C828.93 329.67 828.93 329.67 828.929 329.671L830.759 325.517L834.793 327.637C846.069 333.564 856.204 341.463 865.083 350.803L867.978 353.849L864.979 356.769L864.975 356.773L864.974 356.774C864.964 356.784 864.943 356.805 864.912 356.838C864.848 356.903 864.744 357.013 864.606 357.166C864.33 357.472 863.924 357.944 863.452 358.56C862.502 359.803 861.328 361.578 860.4 363.722C858.574 367.941 857.737 373.4 861.263 379.389C864.565 384.998 869.704 386.266 874.711 385.987C877.234 385.846 879.573 385.302 881.305 384.776C882.163 384.515 882.849 384.266 883.309 384.088C883.538 383.999 883.709 383.928 883.815 383.883C883.868 383.861 883.904 383.845 883.924 383.836L883.928 383.835L883.931 383.833Z" fill="white"/>
<path d="M488.404 684.518V576.683L429.993 522.766L472.678 378.986L394.666 291.48L256.603 284.254C256.603 284.254 335.628 304.775 371.957 348.493C416.836 394.777 407.184 458.32 407.184 458.32L394.048 540.738L456.952 585.669L472.678 702.49L504.226 753.577V713.702L488.404 684.518Z" fill="white"/>
<path fill-rule="evenodd" clip-rule="evenodd" d="M252.399 283.605C252.066 285.762 253.421 287.822 255.534 288.371L255.534 288.371L255.542 288.373L255.578 288.382C255.6 288.388 255.628 288.396 255.665 288.405L255.735 288.424C255.877 288.462 256.091 288.519 256.376 288.597C256.944 288.753 257.791 288.989 258.886 289.307C261.077 289.941 264.259 290.899 268.197 292.186C276.077 294.762 286.959 298.647 298.957 303.878C323.085 314.399 351.172 330.135 368.685 351.211L368.79 351.337L368.903 351.454C390.535 373.762 399.08 400.283 402.193 421.384C403.748 431.924 403.938 441.057 403.74 447.539C403.641 450.778 403.446 453.347 403.278 455.091C403.194 455.963 403.117 456.628 403.062 457.067C403.034 457.286 403.012 457.448 402.998 457.552C402.991 457.603 402.985 457.64 402.982 457.662L402.979 457.683L402.979 457.684L402.979 457.685L389.434 542.669L452.982 588.061L468.583 703.955L500.607 755.812C501.606 757.43 503.558 758.189 505.388 757.669C507.217 757.15 508.479 755.479 508.479 753.577V712.623L492.657 683.439V574.821L434.825 521.437L477.43 377.925L396.66 287.325L256.826 280.006C254.645 279.892 252.733 281.447 252.399 283.605ZM287.867 290.149L392.672 295.635L467.926 380.048L425.162 524.095L484.15 578.545V685.596L499.972 714.781V738.594L476.773 701.025L460.922 583.278L398.664 538.807L411.388 458.975L411.39 458.959L407.185 458.32C411.39 458.959 411.39 458.957 411.391 458.955L411.392 458.95L411.394 458.934L411.401 458.886C411.404 458.864 411.408 458.838 411.412 458.806C411.416 458.781 411.42 458.753 411.424 458.722C411.444 458.582 411.471 458.382 411.503 458.124C411.567 457.609 411.654 456.864 411.746 455.908C411.93 453.996 412.138 451.24 412.243 447.798C412.453 440.919 412.251 431.274 410.609 420.142C407.333 397.936 398.288 369.6 375.124 345.648C356.304 323.072 326.778 306.729 302.357 296.08C297.286 293.869 292.411 291.893 287.867 290.149Z" fill="white"/>
<path d="M234.875 345.6C252.944 340.334 250.601 320.888 250.601 320.888C260.524 319.718 271.95 320.475 282.052 323.134C282.052 323.134 279.014 340.828 293.101 347.279C308.67 354.409 319.515 340.828 319.515 340.828C327.354 345.805 334.711 351.601 341.526 358.087C341.526 358.087 332.722 373.007 341.526 383.791C350.331 394.575 367.102 389.506 367.102 389.506C378.398 411.313 380.415 423.696 380.415 444.398C372.222 420.349 327.92 367.245 256.333 392.164C195.325 413.401 176.686 494.235 223.545 540.817C264.08 586.175 340.095 582.659 340.095 582.659C318.084 601.133 294.683 608.446 275.313 608.446C275.313 608.446 277.369 588.615 256.122 586.175C234.875 583.734 230.382 601.706 230.382 601.706C223.642 599.46 212.409 594.967 203.423 588.227C203.423 588.227 212.409 572.501 196.683 561.269C180.958 550.036 169.725 563.515 169.725 563.515C159.271 554.529 152.373 544.625 147.106 532.02C147.106 532.02 163.674 524.982 159.271 506.508C154.869 488.034 135.499 490.673 135.499 490.673C134.091 481.126 133.561 471.386 133.861 461.643C133.861 461.643 155.516 461.643 157.51 443.169C159.695 422.935 140.52 417.489 140.52 417.489C143.555 406.462 147.242 398.609 152.306 388.626C152.306 388.626 171.598 397.423 180.402 382.468C189.207 367.513 176 354.655 176 354.655C184.59 345.618 194.36 338.014 205.185 332.324C205.185 332.324 213.744 351.758 234.875 345.6Z" fill="white"/>
<path fill-rule="evenodd" clip-rule="evenodd" d="M277.53 326.431C277.49 328.353 277.594 330.862 278.116 333.587C279.271 339.621 282.601 347.15 291.329 351.146C300.61 355.396 308.636 353.443 314.16 350.474C316.664 349.128 318.668 347.573 320.101 346.292C325.782 350.108 331.197 354.377 336.318 359.048C335.564 360.788 334.672 363.199 334.067 365.994C332.831 371.697 332.669 379.669 338.231 386.481C343.766 393.261 351.663 394.856 357.551 394.945C360.39 394.989 362.926 394.69 364.802 394.367C369.442 403.677 372.203 411.097 373.846 418.311C374.389 420.691 374.813 423.065 375.143 425.499C368.112 415.43 357.767 404.673 344.402 396.312C322.349 382.516 292.04 375.231 254.934 388.147C190.964 410.415 171.506 494.958 220.456 543.745C241.61 567.355 271.759 578.057 296.19 582.919C308.476 585.364 319.459 586.361 327.376 586.748C327.469 586.753 327.561 586.757 327.653 586.762C310.983 598.115 294.099 603.262 279.461 604.076C279.241 601.99 278.737 599.358 277.624 596.622C276.33 593.443 274.194 590.084 270.716 587.343C267.225 584.593 262.6 582.637 256.606 581.949C244.531 580.562 236.766 585.033 232.125 590.176C230.187 592.324 228.846 594.526 227.946 596.333C222.301 594.22 215.075 591.009 208.687 586.742C209.353 584.835 210.038 582.215 210.197 579.184C210.545 572.58 208.342 564.369 199.155 557.807C190.005 551.272 181.703 551.769 175.687 554.246C173.201 555.27 171.178 556.596 169.684 557.764C162.221 550.758 156.837 543.099 152.537 533.808C154.164 532.709 156.151 531.132 158.027 529.007C162.384 524.072 165.98 516.313 163.408 505.522C160.786 494.519 153.493 489.588 146.978 487.595C144.053 486.701 141.301 486.392 139.202 486.312C138.364 479.459 137.981 472.511 138.038 465.542C140.315 465.212 143.374 464.565 146.543 463.272C153.123 460.589 160.52 454.914 161.739 443.625C163.009 431.862 157.979 424.14 152.608 419.517C150.148 417.4 147.64 415.943 145.678 414.991C148.038 407.347 150.819 401.129 154.417 393.896C156.563 394.535 159.517 395.218 162.815 395.402C169.655 395.783 178.565 393.972 184.067 384.626C189.346 375.659 187.981 367.212 185.406 361.263C184.274 358.648 182.901 356.482 181.731 354.884C188.381 348.314 195.692 342.636 203.602 338.056C204.89 339.951 206.778 342.312 209.341 344.504C215.029 349.368 223.905 353.227 236.064 349.683C246.802 346.554 251.602 339.042 253.584 332.503C254.466 329.591 254.801 326.865 254.909 324.768C262.211 324.301 270.144 324.858 277.53 326.431ZM154.068 384.754L154.065 384.753L154.062 384.752L154.06 384.751L150.358 383.063L148.512 386.702C143.407 396.765 139.567 404.918 136.418 416.36L135.298 420.428L139.338 421.576L139.344 421.577L139.346 421.578C139.359 421.582 139.39 421.591 139.436 421.606C139.528 421.636 139.683 421.687 139.89 421.762C140.305 421.912 140.925 422.156 141.675 422.508C143.189 423.217 145.165 424.336 147.059 425.965C150.729 429.124 154.195 434.241 153.281 442.712C152.505 449.897 148.077 453.459 143.331 455.395C140.919 456.378 138.514 456.885 136.685 457.141C135.78 457.268 135.038 457.33 134.538 457.361C134.288 457.376 134.1 457.383 133.983 457.386C133.925 457.388 133.885 457.389 133.864 457.389L133.86 457.389H133.854H133.85H129.736L129.609 461.512C129.301 471.495 129.844 481.487 131.29 491.294L131.904 495.456L136.054 494.89L136.06 494.89L136.063 494.889C136.077 494.888 136.108 494.884 136.156 494.879C136.25 494.869 136.409 494.854 136.624 494.84C137.054 494.811 137.701 494.785 138.501 494.802C140.117 494.838 142.268 495.051 144.489 495.731C148.759 497.037 153.353 500.024 155.133 507.494C156.964 515.177 154.477 520.174 151.65 523.377C150.181 525.041 148.579 526.252 147.335 527.047C146.718 527.441 146.205 527.723 145.863 527.899C145.693 527.986 145.566 528.047 145.493 528.081C145.458 528.097 145.436 528.107 145.426 528.112C145.425 528.112 145.424 528.112 145.424 528.113C145.42 528.115 145.419 528.115 145.422 528.114L141.55 529.758L143.18 533.66C148.683 546.828 155.957 557.29 166.951 566.741L170.227 569.556L172.976 566.257C172.976 566.257 172.976 566.257 172.976 566.257C172.977 566.256 172.978 566.255 172.979 566.254C172.986 566.246 172.999 566.23 173.02 566.207C173.07 566.152 173.158 566.055 173.284 565.927C173.535 565.668 173.931 565.285 174.457 564.845C175.52 563.954 177.045 562.887 178.926 562.113C182.457 560.659 187.634 560.033 194.21 564.73C200.75 569.401 201.916 574.669 201.702 578.737C201.589 580.879 201.077 582.776 200.581 584.148C200.335 584.827 200.101 585.357 199.937 585.702C199.888 585.805 199.846 585.89 199.812 585.957C199.789 586.003 199.769 586.04 199.754 586.069C199.736 586.103 199.725 586.124 199.72 586.133C199.719 586.134 199.719 586.134 199.719 586.135L199.718 586.136L199.717 586.138L197.866 589.377L200.87 591.63C210.393 598.772 222.126 603.439 229.036 605.742L233.394 607.194L234.501 602.762C234.502 602.762 234.502 602.76 234.502 602.759C234.505 602.749 234.511 602.726 234.521 602.693C234.543 602.616 234.584 602.482 234.646 602.3C234.769 601.934 234.975 601.38 235.283 600.706C235.905 599.347 236.911 597.571 238.441 595.875C241.359 592.641 246.464 589.347 255.636 590.401C260.266 590.932 263.351 592.371 265.451 594.025C267.562 595.689 268.896 597.746 269.744 599.829C270.602 601.935 270.942 604.027 271.059 605.621C271.117 606.409 271.118 607.049 271.107 607.475C271.101 607.687 271.092 607.843 271.086 607.936C271.083 607.982 271.08 608.011 271.079 608.024L271.079 608.029L270.595 612.7H275.312C295.742 612.7 320.098 604.995 342.829 585.917C344.226 584.744 344.72 582.811 344.057 581.112C343.394 579.413 341.721 578.326 339.9 578.41C339.899 578.41 339.898 578.41 339.898 578.41L339.864 578.411C339.834 578.413 339.786 578.415 339.721 578.417C339.59 578.422 339.389 578.428 339.121 578.435C338.584 578.449 337.78 578.464 336.734 578.468C334.643 578.475 331.59 578.437 327.791 578.251C320.188 577.88 309.635 576.921 297.85 574.575C274.172 569.863 246.093 559.666 226.716 537.983L226.632 537.889L226.543 537.801C181.888 493.409 199.724 416.374 257.731 396.182C292.212 384.179 319.847 390.986 339.89 403.524C360.151 416.199 372.623 434.718 376.388 445.77C377.059 447.74 379.057 448.935 381.11 448.595C383.162 448.254 384.668 446.479 384.668 444.398C384.668 433.918 384.16 425.283 382.141 416.421C380.12 407.551 376.631 398.656 370.879 387.549L369.254 384.411L365.883 385.43L365.88 385.431L365.88 385.431L365.876 385.432L365.874 385.433L365.871 385.434C365.855 385.438 365.825 385.447 365.78 385.46C365.689 385.484 365.542 385.524 365.344 385.573C364.946 385.671 364.347 385.807 363.593 385.942C362.074 386.215 359.984 386.474 357.68 386.439C352.981 386.368 348.09 385.105 344.82 381.101C341.578 377.129 341.416 372.249 342.381 367.796C342.855 365.606 343.575 363.68 344.182 362.296C344.484 361.61 344.751 361.071 344.937 360.715C345.029 360.537 345.1 360.407 345.145 360.327C345.167 360.288 345.182 360.261 345.19 360.248C345.191 360.245 345.193 360.242 345.194 360.241C345.195 360.239 345.195 360.238 345.195 360.238L346.907 357.337L344.458 355.006C337.452 348.339 329.878 342.37 321.794 337.237L318.572 335.191L316.203 338.158L316.202 338.159L316.2 338.162C316.193 338.17 316.176 338.19 316.15 338.221C316.097 338.283 316.007 338.387 315.879 338.527C315.623 338.807 315.224 339.222 314.693 339.712C313.622 340.699 312.069 341.939 310.131 342.981C306.341 345.019 301.16 346.291 294.871 343.412C289.512 340.958 287.318 336.414 286.471 331.988C286.046 329.77 285.991 327.691 286.048 326.156C286.076 325.395 286.131 324.785 286.176 324.38C286.198 324.178 286.219 324.029 286.232 323.938C286.238 323.893 286.243 323.863 286.245 323.849C286.245 323.848 286.245 323.848 286.245 323.847C286.246 323.844 286.246 323.845 286.246 323.843C286.246 323.843 286.246 323.84 286.246 323.84C286.246 323.839 286.247 323.839 286.246 323.839L286.904 320.013L283.134 319.02C272.517 316.226 260.554 315.431 250.102 316.663L245.867 317.162L246.375 321.379L246.375 321.384L246.376 321.388C246.377 321.403 246.381 321.435 246.385 321.483C246.394 321.58 246.406 321.741 246.418 321.959C246.441 322.396 246.459 323.053 246.432 323.868C246.378 325.514 246.143 327.723 245.442 330.035C244.078 334.535 241.016 339.379 233.684 341.516C224.712 344.13 218.743 341.351 214.87 338.038C212.862 336.321 211.385 334.419 210.408 332.93C209.924 332.192 209.574 331.573 209.352 331.155C209.241 330.946 209.164 330.789 209.118 330.695C209.108 330.673 209.099 330.656 209.092 330.641C209.084 330.622 209.078 330.609 209.074 330.601C209.072 330.598 209.073 330.599 209.072 330.597C209.072 330.597 209.07 330.593 209.07 330.592C209.07 330.591 209.069 330.591 209.07 330.592L207.24 326.438L203.206 328.559C191.93 334.485 181.795 342.384 172.916 351.724L170.021 354.77L173.02 357.69L173.024 357.694L173.025 357.696C173.035 357.705 173.056 357.726 173.087 357.759C173.151 357.824 173.255 357.935 173.393 358.087C173.669 358.393 174.075 358.865 174.547 359.481C175.497 360.724 176.671 362.499 177.599 364.643C179.425 368.862 180.262 374.321 176.736 380.31C173.434 385.919 168.295 387.187 163.288 386.908C160.765 386.767 158.426 386.223 156.694 385.697C155.836 385.436 155.15 385.187 154.69 385.009C154.461 384.92 154.29 384.849 154.184 384.804C154.131 384.782 154.095 384.766 154.075 384.758L154.071 384.756L154.068 384.754Z" fill="white"/>
<path d="M580.192 498.637C580.192 503.19 576.501 506.881 571.947 506.881C567.394 506.881 563.703 503.19 563.703 498.637C563.703 494.084 567.394 490.393 571.947 490.393C576.501 490.393 580.192 494.084 580.192 498.637Z" fill="white"/>
<path fill-rule="evenodd" clip-rule="evenodd" d="M571.709 498.532C571.69 498.575 571.684 498.617 571.684 498.637C571.684 498.658 571.69 498.699 571.709 498.742C571.724 498.78 571.744 498.806 571.761 498.823C571.779 498.841 571.805 498.86 571.842 498.876C571.886 498.894 571.927 498.9 571.947 498.9C571.968 498.9 572.009 498.894 572.052 498.876C572.09 498.86 572.116 498.841 572.133 498.823C572.151 498.806 572.17 498.78 572.186 498.742C572.205 498.699 572.21 498.658 572.21 498.637C572.21 498.617 572.205 498.575 572.186 498.532C572.17 498.495 572.151 498.469 572.133 498.451C572.116 498.434 572.09 498.414 572.052 498.398C572.009 498.38 571.968 498.374 571.947 498.374C571.927 498.374 571.886 498.38 571.842 498.398C571.805 498.414 571.779 498.434 571.761 498.451C571.744 498.469 571.724 498.495 571.709 498.532ZM571.947 506.881C576.501 506.881 580.192 503.19 580.192 498.637C580.192 494.084 576.501 490.393 571.947 490.393C567.394 490.393 563.703 494.084 563.703 498.637C563.703 503.19 567.394 506.881 571.947 506.881Z" fill="white"/>
</svg>