<svg xmlns="http://www.w3.org/2000/svg" width="1038" height="1038" fill="none"><path fill="#0D2631" d="M0 0h1038v1038H0z"/><path fill="#3B3F42" fill-rule="evenodd" d="m523.4 449.6 27.7-24.5v-62.8h-8.5v59l-19.2 17V319.5H515v118.2l-17.4-16.5v-54.5H489V425l25.9 24.5v92.8h8.5v-92.7Z" clip-rule="evenodd"/><path fill="#3B3F42" d="M501.5 361.6a8.2 8.2 0 1 1-16.5 0 8.2 8.2 0 0 1 16.5 0Z"/><path fill="#3B3F42" fill-rule="evenodd" d="M493 361.5a.3.3 0 0 0 0 .2l.1.1H493.4v-.2a.3.3 0 0 0 0-.2l-.2-.1a.3.3 0 0 0-.2 0v.2Zm.2 8.3a8.2 8.2 0 1 0 0-16.5 8.2 8.2 0 0 0 0 16.5Z" clip-rule="evenodd"/><path fill="#3B3F42" d="M527.4 317.4a8.2 8.2 0 1 1-16.5 0 8.2 8.2 0 0 1 16.5 0Z"/><path fill="#3B3F42" fill-rule="evenodd" d="M518.9 317.3V317.6h.1l.1.1a.3.3 0 0 0 .2 0v-.2h.1a.3.3 0 0 0 0-.3h-.4l-.1.1Zm.2 8.4a8.2 8.2 0 1 0 0-16.5 8.2 8.2 0 0 0 0 16.5Z" clip-rule="evenodd"/><path fill="#3B3F42" d="M555.1 361.6a8.2 8.2 0 1 1-16.5 0 8.2 8.2 0 0 1 16.5 0Z"/><path fill="#3B3F42" fill-rule="evenodd" d="M546.6 361.5a.3.3 0 0 0 .1.2v.1h.4v-.2a.3.3 0 0 0 0-.2h-.1l-.1-.1a.3.3 0 0 0-.2 0v.2Zm.3 8.3a8.2 8.2 0 1 0 0-16.5 8.2 8.2 0 0 0 0 16.5Z" clip-rule="evenodd"/><path fill="#3B3F42" d="M527.2 542.3a8.2 8.2 0 1 1-16.5 0 8.2 8.2 0 0 1 16.5 0Z"/><path fill="#3B3F42" fill-rule="evenodd" d="M518.7 542.2v.2a.2.2 0 0 0 .2.1h.2l.1-.1v-.1a.3.3 0 0 0 0-.2h-.2a.3.3 0 0 0-.2 0Zm.3 8.3a8.2 8.2 0 1 0 0-16.5 8.2 8.2 0 0 0 0 16.5Z" clip-rule="evenodd"/><path fill="#3B3F42" d="M549.6 601.5V493.6l58.4-53.9L565.3 296l78-87.5 138.1-7.2s-79 20.5-115.4 64.2c-44.8 46.3-35.2 109.9-35.2 109.9l13.2 82.4-63 45-15.7 116.7-31.5 51.1v-39.9l15.8-29.1Z"/><path fill="#3B3F42" fill-rule="evenodd" d="M785.6 200.5c.3 2.2-1 4.3-3.1 4.8h-.2a62.9 62.9 0 0 0-3.2 1 349.6 349.6 0 0 0-40 14.6c-24.2 10.4-52.3 26.2-69.8 47.3l-.2.2a125.6 125.6 0 0 0-33.3 70 149.8 149.8 0 0 0-.8 36.2l13.6 85L585 505l-15.6 115.9-32 51.9a4.3 4.3 0 0 1-7.9-2.3v-41l15.8-29.1V491.8l57.9-53.4-42.6-143.5 80.7-90.6 139.9-7.4c2.2 0 4 1.5 4.4 3.6Zm-35.5 6.6-104.8 5.5-75.2 84.4 42.7 144-59 54.5v107L538 631.7v23.8l23.2-37.5 15.9-117.8 62.2-44.5-12.7-79.8 4.2-.6-4.2.6v-.2a49.3 49.3 0 0 1-.3-2.8 158.3 158.3 0 0 1 1.1-35.8 134 134 0 0 1 35.5-74.5c18.8-22.6 48.3-39 72.7-49.6l14.5-6ZM461.8 416.1v24.5l22.4 20.2V492h8.5v-35l-22.4-20.2v-20.7h-8.5Z" clip-rule="evenodd"/><path fill="#3B3F42" d="M457.9 414a8.2 8.2 0 1 0 16.4 0 8.2 8.2 0 0 0-16.4 0Z"/><path fill="#3B3F42" fill-rule="evenodd" d="M466.3 414a.3.3 0 0 1 0 .3h-.2a.3.3 0 0 1-.2 0V414a.2.2 0 0 1 0-.2h.2a.3.3 0 0 1 .2 0v.2Zm-.2 8.3a8.2 8.2 0 1 1 0-16.5 8.2 8.2 0 0 1 0 16.5ZM576.2 416.1v24.5l-22.4 20.2V492h-8.5v-35l22.4-20.2v-20.7h8.5Z" clip-rule="evenodd"/><path fill="#3B3F42" d="M803.1 261.5c-18-5.2-15.7-24.7-15.7-24.7-10-1.2-21.4-.4-31.5 2.3 0 0 3 17.6-11 24.1-15.6 7.1-26.4-6.5-26.4-6.5-7.9 5-15.2 10.8-22 17.3 0 0 8.8 15 0 25.7-8.8 10.8-25.6 5.7-25.6 5.7a101 101 0 0 0-13.3 55 96.7 96.7 0 0 1 124-52.3c61 21.2 79.7 102 32.9 148.6-40.6 45.4-116.6 41.9-116.6 41.9 22 18.5 45.4 25.8 64.8 25.8 0 0-2-19.9 19.2-22.3 21.2-2.4 25.7 15.5 25.7 15.5a100 100 0 0 0 27-13.5s-9-15.7 6.7-27a19.4 19.4 0 0 1 27 2.3 80.4 80.4 0 0 0 22.6-31.5s-16.6-7-12.2-25.5c4.4-18.4 23.8-15.8 23.8-15.8 1.4-9.6 2-19.3 1.6-29 0 0-21.6 0-23.6-18.5-2.2-20.2 17-25.7 17-25.7a143 143 0 0 0-11.8-28.9s-19.3 8.8-28.1-6.1c-8.8-15 4.4-27.8 4.4-27.8-8.6-9-18.4-16.7-29.2-22.4 0 0-8.5 19.5-29.7 13.3Z"/><path fill="#3B3F42" fill-rule="evenodd" d="M760.5 242.4c0 1.9-.1 4.4-.6 7.1-1.2 6-4.5 13.6-13.2 17.6a24.8 24.8 0 0 1-22.9-.7 31 31 0 0 1-5.9-4.2c-5.7 3.8-11.1 8.1-16.2 12.8.7 1.7 1.6 4.1 2.2 7a23.7 23.7 0 0 1-4.1 20.4 24.7 24.7 0 0 1-19.4 8.5c-2.8 0-5.3-.3-7.2-.6a105.4 105.4 0 0 0-10.3 31.1c7-10 17.3-20.8 30.7-29.2 22-13.8 52.4-21 89.5-8.1 64 22.2 83.4 106.8 34.4 155.6-21.1 23.6-51.3 34.3-75.7 39.1a215.6 215.6 0 0 1-31.2 3.9h-.3a95.8 95.8 0 0 0 48.2 17.3c.3-2 .8-4.7 1.9-7.5 1.3-3.1 3.4-6.5 6.9-9.2 3.5-2.8 8.1-4.7 14-5.4a27.1 27.1 0 0 1 28.8 14.4 96.6 96.6 0 0 0 19.2-9.6c-.7-2-1.3-4.6-1.5-7.6a24 24 0 0 1 11-21.4c9.2-6.5 17.5-6 23.5-3.5 2.5 1 4.5 2.3 6 3.5 7.5-7 12.9-14.7 17.2-24a29 29 0 0 1-5.5-4.8c-4.4-5-8-12.7-5.4-23.5 2.6-11 10-15.9 16.4-17.9 3-.9 5.7-1.2 7.8-1.3.8-6.8 1.2-13.8 1.2-20.7-2.3-.4-5.4-1-8.5-2.3-6.6-2.7-14-8.4-15.2-19.7a26.6 26.6 0 0 1 9-24c2.6-2.2 5-3.6 7-4.6-2.3-7.6-5.1-13.8-8.7-21a37 37 0 0 1-8.4 1.4 22 22 0 0 1-21.3-10.8 25 25 0 0 1-1.3-23.3c1.1-2.6 2.5-4.8 3.7-6.4-6.7-6.6-14-12.2-21.9-16.8a32.7 32.7 0 0 1-5.7 6.4 27.4 27.4 0 0 1-26.8 5.2 24.8 24.8 0 0 1-17.5-17.2c-.9-2.9-1.2-5.6-1.3-7.7a85 85 0 0 0-22.6 1.7Zm123.4 58.3 3.7-1.7 1.9 3.6c5 10 9 18.2 12 29.7l1.2 4-4 1.2h-.1l-.5.2-1.8.7c-1.5.7-3.5 1.9-5.4 3.5a18.2 18.2 0 0 0-6.2 16.7c.8 7.2 5.2 10.8 10 12.7a28.2 28.2 0 0 0 9.3 2h4.3v4.1c.4 10-.1 20-1.6 29.8l-.6 4.2-4.2-.6h-.5a21.5 21.5 0 0 0-7.9.9 15 15 0 0 0-10.6 11.7c-1.9 7.7.6 12.7 3.4 15.9a20.6 20.6 0 0 0 6.2 4.7l4 1.7-1.7 3.9a84.7 84.7 0 0 1-23.8 33l-3.2 2.9-2.8-3.3-.3-.4-1.2-1c-1-1-2.5-2-4.4-2.8-3.6-1.4-8.7-2-15.3 2.7-6.6 4.6-7.7 9.9-7.5 14a19 19 0 0 0 1.9 7.2v.2l2 3.2-3 2.3a104.3 104.3 0 0 1-28.2 14l-4.4 1.5-1.1-4.4-.1-.5-.7-1.6c-.6-1.3-1.6-3.1-3.1-4.8-3-3.2-8-6.5-17.2-5.5a19 19 0 0 0-9.9 3.6 14 14 0 0 0-4.2 5.9 19.3 19.3 0 0 0-1.4 8v.1l.5 4.7h-4.7c-20.4 0-44.8-7.7-67.5-26.8a4.3 4.3 0 0 1 2.9-7.5h.8a108.7 108.7 0 0 0 11.3-.1c7.6-.4 18.2-1.4 30-3.7 23.6-4.7 51.7-15 71-36.6h.2v-.2c44.7-44.4 26.9-121.4-31.1-141.6-34.5-12-62.1-5.2-82.2 7.3a90.8 90.8 0 0 0-36.5 42.3 4.3 4.3 0 0 1-8.3-1.4c0-10.5.5-19.1 2.6-28 2-8.8 5.5-17.7 11.2-28.8l1.6-3.2 3.4 1h.1a17 17 0 0 0 2.2.6c1.5.2 3.6.5 6 .5 4.6-.1 9.5-1.4 12.8-5.4 3.2-4 3.4-8.8 2.4-13.3a29.4 29.4 0 0 0-2.7-7.5h-.1l-1.7-3 2.4-2.3a148 148 0 0 1 22.7-17.7l3.2-2 2.4 2.9a12 12 0 0 0 1.5 1.5c1 1 2.6 2.3 4.6 3.3 3.8 2 9 3.3 15.2.4 5.4-2.4 7.6-7 8.4-11.4a26.3 26.3 0 0 0 .3-8v-.1l-.7-3.9 3.8-1a92 92 0 0 1 33-2.3l4.2.5-.5 4.2v.1a13.6 13.6 0 0 0 0 2.4c0 1.6.3 3.8 1 6.2 1.3 4.5 4.4 9.3 11.7 11.4 9 2.7 15-.1 18.8-3.4a24.4 24.4 0 0 0 5.8-7.5l1.9-4.1 4 2c11.3 6 21.4 14 30.3 23.2l2.9 3-3 3-.4.4a22.9 22.9 0 0 0-4.2 6.6c-1.8 4.2-2.7 9.6.9 15.6 3.3 5.6 8.4 7 13.4 6.6a28.6 28.6 0 0 0 9.2-2.1Z" clip-rule="evenodd"/><path fill="#3B3F42" d="M488.4 601.4V493.5L430 439.6l42.7-143.8-78-87.5-138.1-7.2s79 20.5 115.4 64.2c44.8 46.3 35.2 109.9 35.2 109.9L394 457.6l63 45 15.7 116.7 31.5 51.1v-39.9l-15.8-29.1Z"/><path fill="#3B3F42" fill-rule="evenodd" d="M252.4 200.4c-.3 2.2 1 4.3 3.1 4.8h.2l.7.2a189.3 189.3 0 0 1 11.8 3.6c7.9 2.6 18.8 6.5 30.8 11.7 24 10.5 52.2 26.3 69.7 47.4l.2.2a125.5 125.5 0 0 1 33.3 70 149.7 149.7 0 0 1 .9 35.6l-.1.5v.1l-13.6 85L453 505l15.6 115.9 32 51.9a4.3 4.3 0 0 0 7.9-2.3v-41l-15.8-29.1V491.7l-57.9-53.4 42.6-143.5-80.7-90.6-139.9-7.4c-2.2 0-4 1.5-4.4 3.6Zm35.5 6.6 104.8 5.5 75.2 84.4-42.7 144 59 54.5v107l15.8 29.2v23.8L476.8 618 460.9 500l-62.2-44.5 12.7-79.8-4.2-.6 4.2.6v-.2a33.3 33.3 0 0 0 .3-2.9 158.2 158.2 0 0 0-1.1-35.8 134 134 0 0 0-35.5-74.4c-18.8-22.6-48.3-39-72.7-49.6l-14.5-6Z" clip-rule="evenodd"/><path fill="#3B3F42" d="M234.9 262.4c18-5.2 15.7-24.7 15.7-24.7 10-1.1 21.3-.4 31.5 2.3 0 0-3 17.7 11 24.1 15.6 7.2 26.4-6.4 26.4-6.4 7.9 5 15.2 10.7 22 17.2 0 0-8.8 15 0 25.7 8.8 10.8 25.6 5.7 25.6 5.7a101 101 0 0 1 13.3 55 96.7 96.7 0 0 0-124-52.3c-61 21.2-79.7 102-32.9 148.7 40.6 45.3 116.6 41.8 116.6 41.8a102.2 102.2 0 0 1-64.8 25.8s2-19.8-19.2-22.3a22.3 22.3 0 0 0-25.7 15.5 100 100 0 0 1-27-13.4s9-15.8-6.7-27a19.4 19.4 0 0 0-27 2.3 80.5 80.5 0 0 1-22.6-31.5s16.6-7 12.2-25.5c-4.4-18.5-23.8-15.9-23.8-15.9-1.4-9.5-2-19.3-1.6-29 0 0 21.6 0 23.6-18.5 2.2-20.2-17-25.7-17-25.7 3-11 6.7-18.8 11.8-28.8 0 0 19.3 8.8 28.1-6.2s-4.4-27.8-4.4-27.8c8.6-9 18.4-16.6 29.2-22.3 0 0 8.5 19.4 29.7 13.2Z"/><path fill="#3B3F42" fill-rule="evenodd" d="M277.5 243.3c0 1.9 0 4.4.6 7.1 1.2 6 4.5 13.6 13.2 17.6a24.8 24.8 0 0 0 22.9-.7 31 31 0 0 0 5.9-4.2c5.7 3.8 11.1 8.1 16.2 12.8a38 38 0 0 0-2.2 7 23.7 23.7 0 0 0 4.1 20.4 24.7 24.7 0 0 0 19.4 8.5c2.8 0 5.3-.3 7.2-.6a105.5 105.5 0 0 1 10.3 31.1c-7-10-17.3-20.8-30.7-29.1-22-13.8-52.4-21.1-89.5-8.2-64 22.3-83.4 106.8-34.4 155.6 21.1 23.6 51.3 34.3 75.7 39.2 12.3 2.4 23.3 3.4 31.2 3.8h.3a95.8 95.8 0 0 1-48.2 17.3c-.3-2-.8-4.7-1.9-7.4a22.4 22.4 0 0 0-6.9-9.3 27.3 27.3 0 0 0-14-5.4 27.1 27.1 0 0 0-28.8 14.4 96.6 96.6 0 0 1-19.2-9.6c.7-2 1.3-4.5 1.5-7.6a24 24 0 0 0-11-21.4c-9.2-6.5-17.5-6-23.5-3.5-2.5 1-4.5 2.3-6 3.5a74.9 74.9 0 0 1-17.2-24 29 29 0 0 0 5.5-4.8c4.4-4.9 8-12.6 5.4-23.4-2.6-11-10-16-16.4-18-3-.9-5.7-1.2-7.8-1.2-.8-6.9-1.2-13.8-1.2-20.8 2.3-.3 5.4-1 8.5-2.3 6.6-2.7 14-8.3 15.2-19.6a26.6 26.6 0 0 0-9-24.1c-2.6-2.2-5-3.6-7-4.6a134 134 0 0 1 8.7-21 37 37 0 0 0 8.4 1.4 22 22 0 0 0 21.3-10.7 25 25 0 0 0 1.3-23.4 33.3 33.3 0 0 0-3.7-6.4c6.7-6.5 14-12.2 21.9-16.8 1.3 1.9 3.2 4.3 5.7 6.4a27.4 27.4 0 0 0 26.8 5.2 24.8 24.8 0 0 0 17.5-17.2c.9-2.9 1.2-5.6 1.3-7.7a85 85 0 0 1 22.6 1.7Zm-123.4 58.3-3.7-1.7-1.9 3.6c-5 10.1-9 18.3-12 29.7l-1.2 4 4 1.2h.1a13.4 13.4 0 0 1 2.3 1c1.5.7 3.5 1.8 5.4 3.4 3.6 3.2 7.1 8.3 6.2 16.8-.8 7.1-5.2 10.7-10 12.6a28.3 28.3 0 0 1-9.3 2h-4.3v4.2c-.4 10 .1 20 1.6 29.7l.6 4.2 4.2-.6h.5a21.5 21.5 0 0 1 7.9.9 15 15 0 0 1 10.6 11.7c1.9 7.7-.6 12.7-3.4 16a20.6 20.6 0 0 1-6.2 4.6l-4 1.7 1.7 3.9a84.7 84.7 0 0 0 23.8 33l3.2 2.9 2.8-3.3.3-.3a17.3 17.3 0 0 1 5.6-3.8c3.6-1.5 8.7-2.1 15.3 2.6 6.6 4.6 7.7 10 7.5 14a19 19 0 0 1-2 7.3l-1.8 3.3 3 2.3c9.5 7.1 21.2 11.8 28.1 14l4.4 1.5 1.1-4.4.1-.5.7-1.6c.6-1.3 1.6-3 3.1-4.8 3-3.2 8-6.5 17.2-5.5 4.7.6 7.8 2 9.9 3.7a14 14 0 0 1 4.2 5.8 19.3 19.3 0 0 1 1.4 8v.2l-.5 4.6h4.7c20.4 0 44.8-7.7 67.5-26.7a4.3 4.3 0 0 0-2.9-7.5h-.2a54.5 54.5 0 0 1-3 0c-2 0-5.1 0-9-.2-7.5-.4-18-1.3-29.8-3.7-23.7-4.7-51.8-14.9-71.2-36.6l-.2-.2C182 410.3 199.7 333.2 257.7 313c34.5-12 62.1-5.2 82.2 7.4a90.8 90.8 0 0 1 36.5 42.2 4.3 4.3 0 0 0 8.3-1.4c0-10.4-.5-19-2.6-28-2-8.8-5.5-17.7-11.2-28.8l-1.6-3.1-3.4 1h-.1l-.5.1a28 28 0 0 1-7.6.9c-4.7 0-9.6-1.4-12.9-5.4-3.2-4-3.4-8.8-2.4-13.3a29.4 29.4 0 0 1 2.7-7.4v-.1h.1l1.7-3-2.4-2.3a148 148 0 0 0-22.7-17.7l-3.2-2-2.4 2.9a12.7 12.7 0 0 1-1.5 1.6c-1 1-2.6 2.2-4.6 3.2-3.8 2-9 3.3-15.2.5-5.4-2.5-7.6-7-8.4-11.5a26.4 26.4 0 0 1-.3-8v-.1l.7-3.8-3.8-1a92 92 0 0 0-33-2.4l-4.2.5.5 4.2v.6a22.4 22.4 0 0 1-1 8 16.3 16.3 0 0 1-11.7 11.6c-9 2.6-15-.2-18.8-3.5a24.4 24.4 0 0 1-5.8-7.4l-1.9-4.2-4 2.1a117 117 0 0 0-30.3 23.2l-2.9 3 3 3a12.8 12.8 0 0 1 1.5 1.7c1 1.3 2.2 3 3.1 5.2 1.8 4.2 2.7 9.7-.9 15.7-3.3 5.6-8.4 6.8-13.4 6.6a28.6 28.6 0 0 1-9.1-2.2h-.1Z" clip-rule="evenodd"/><path fill="#3B3F42" d="M580.2 415.5a8.2 8.2 0 1 1-16.5 0 8.2 8.2 0 0 1 16.5 0Z"/><path fill="#3B3F42" fill-rule="evenodd" d="M571.7 415.4v.2a.2.2 0 0 0 .1.1h.1a.3.3 0 0 0 .2 0v-.1l.1-.1a.3.3 0 0 0 0-.2h-.4Zm.2 8.3a8.2 8.2 0 1 0 0-16.5 8.2 8.2 0 0 0 0 16.5Z" clip-rule="evenodd"/><path fill="#29ABE2" fill-rule="evenodd" d="m523.4 449.6 27.7-24.5v-62.8h-8.5v59l-19.2 17V319.5H515v118.2l-17.4-16.5v-54.5H489V425l25.9 24.5v92.8h8.5v-92.7Z" clip-rule="evenodd"/><path fill="#29ABE2" d="M501.5 361.6a8.2 8.2 0 1 1-16.5 0 8.2 8.2 0 0 1 16.5 0Z"/><path fill="#29ABE2" fill-rule="evenodd" d="M493 361.5a.3.3 0 0 0 0 .2l.1.1H493.4v-.2a.3.3 0 0 0 0-.2l-.2-.1a.3.3 0 0 0-.2 0v.2Zm.2 8.3a8.2 8.2 0 1 0 0-16.5 8.2 8.2 0 0 0 0 16.5Z" clip-rule="evenodd"/><path fill="#29ABE2" d="M527.4 317.4a8.2 8.2 0 1 1-16.5 0 8.2 8.2 0 0 1 16.5 0Z"/><path fill="#29ABE2" fill-rule="evenodd" d="M518.9 317.3V317.6h.1l.1.1a.3.3 0 0 0 .2 0v-.2h.1a.3.3 0 0 0 0-.3h-.4l-.1.1Zm.2 8.4a8.2 8.2 0 1 0 0-16.5 8.2 8.2 0 0 0 0 16.5Z" clip-rule="evenodd"/><path fill="#29ABE2" d="M555.1 361.6a8.2 8.2 0 1 1-16.5 0 8.2 8.2 0 0 1 16.5 0Z"/><path fill="#29ABE2" fill-rule="evenodd" d="M546.6 361.5a.3.3 0 0 0 .1.2v.1h.4v-.2a.3.3 0 0 0 0-.2h-.1l-.1-.1a.3.3 0 0 0-.2 0v.2Zm.3 8.3a8.2 8.2 0 1 0 0-16.5 8.2 8.2 0 0 0 0 16.5Z" clip-rule="evenodd"/><path fill="#29ABE2" d="M527.2 542.3a8.2 8.2 0 1 1-16.5 0 8.2 8.2 0 0 1 16.5 0Z"/><path fill="#29ABE2" fill-rule="evenodd" d="M518.7 542.2v.2a.2.2 0 0 0 .2.1h.2l.1-.1v-.1a.3.3 0 0 0 0-.2h-.2a.3.3 0 0 0-.2 0Zm.3 8.3a8.2 8.2 0 1 0 0-16.5 8.2 8.2 0 0 0 0 16.5Z" clip-rule="evenodd"/><path fill="#29ABE2" d="M549.6 601.5V493.6l58.4-53.9L565.3 296l78-87.5 138.1-7.2s-79 20.5-115.4 64.2c-44.8 46.3-35.2 109.9-35.2 109.9l13.2 82.4-63 45-15.7 116.7-31.5 51.1v-39.9l15.8-29.1Z"/><path fill="#29ABE2" fill-rule="evenodd" d="M785.6 200.5c.3 2.2-1 4.3-3.1 4.8h-.2a62.9 62.9 0 0 0-3.2 1 349.6 349.6 0 0 0-40 14.6c-24.2 10.4-52.3 26.2-69.8 47.3l-.2.2a125.6 125.6 0 0 0-33.3 70 149.8 149.8 0 0 0-.8 36.2l13.6 85L585 505l-15.6 115.9-32 51.9a4.3 4.3 0 0 1-7.9-2.3v-41l15.8-29.1V491.8l57.9-53.4-42.6-143.5 80.7-90.6 139.9-7.4c2.2 0 4 1.5 4.4 3.6Zm-35.5 6.6-104.8 5.5-75.2 84.4 42.7 144-59 54.5v107L538 631.7v23.8l23.2-37.5 15.9-117.8 62.2-44.5-12.7-79.8 4.2-.6-4.2.6v-.2a49.3 49.3 0 0 1-.3-2.8 158.3 158.3 0 0 1 1.1-35.8 134 134 0 0 1 35.5-74.5c18.8-22.6 48.3-39 72.7-49.6l14.5-6ZM461.8 416.1v24.5l22.4 20.2V492h8.5v-35l-22.4-20.2v-20.7h-8.5Z" clip-rule="evenodd"/><path fill="#29ABE2" d="M457.9 414a8.2 8.2 0 1 0 16.4 0 8.2 8.2 0 0 0-16.4 0Z"/><path fill="#29ABE2" fill-rule="evenodd" d="M466.3 414a.3.3 0 0 1 0 .3h-.2a.3.3 0 0 1-.2 0V414a.2.2 0 0 1 0-.2h.2a.3.3 0 0 1 .2 0v.2Zm-.2 8.3a8.2 8.2 0 1 1 0-16.5 8.2 8.2 0 0 1 0 16.5ZM576.2 416.1v24.5l-22.4 20.2V492h-8.5v-35l22.4-20.2v-20.7h8.5Z" clip-rule="evenodd"/><path fill="#29ABE2" d="M803.1 261.5c-18-5.2-15.7-24.7-15.7-24.7-10-1.2-21.4-.4-31.5 2.3 0 0 3 17.6-11 24.1-15.6 7.1-26.4-6.5-26.4-6.5-7.9 5-15.2 10.8-22 17.3 0 0 8.8 15 0 25.7-8.8 10.8-25.6 5.7-25.6 5.7a101 101 0 0 0-13.3 55 96.7 96.7 0 0 1 124-52.3c61 21.2 79.7 102 32.9 148.6-40.6 45.4-116.6 41.9-116.6 41.9 22 18.5 45.4 25.8 64.8 25.8 0 0-2-19.9 19.2-22.3 21.2-2.4 25.7 15.5 25.7 15.5a100 100 0 0 0 27-13.5s-9-15.7 6.7-27a19.4 19.4 0 0 1 27 2.3 80.4 80.4 0 0 0 22.6-31.5s-16.6-7-12.2-25.5c4.4-18.4 23.8-15.8 23.8-15.8 1.4-9.6 2-19.3 1.6-29 0 0-21.6 0-23.6-18.5-2.2-20.2 17-25.7 17-25.7a143 143 0 0 0-11.8-28.9s-19.3 8.8-28.1-6.1c-8.8-15 4.4-27.8 4.4-27.8-8.6-9-18.4-16.7-29.2-22.4 0 0-8.5 19.5-29.7 13.3Z"/><path fill="#29ABE2" fill-rule="evenodd" d="M760.5 242.4c0 1.9-.1 4.4-.6 7.1-1.2 6-4.5 13.6-13.2 17.6a24.8 24.8 0 0 1-22.9-.7 31 31 0 0 1-5.9-4.2c-5.7 3.8-11.1 8.1-16.2 12.8.7 1.7 1.6 4.1 2.2 7a23.7 23.7 0 0 1-4.1 20.4 24.7 24.7 0 0 1-19.4 8.5c-2.8 0-5.3-.3-7.2-.6a105.4 105.4 0 0 0-10.3 31.1c7-10 17.3-20.8 30.7-29.2 22-13.8 52.4-21 89.5-8.1 64 22.2 83.4 106.8 34.4 155.6-21.1 23.6-51.3 34.3-75.7 39.1a215.6 215.6 0 0 1-31.2 3.9h-.3a95.8 95.8 0 0 0 48.2 17.3c.3-2 .8-4.7 1.9-7.5 1.3-3.1 3.4-6.5 6.9-9.2 3.5-2.8 8.1-4.7 14-5.4a27.1 27.1 0 0 1 28.8 14.4 96.6 96.6 0 0 0 19.2-9.6c-.7-2-1.3-4.6-1.5-7.6a24 24 0 0 1 11-21.4c9.2-6.5 17.5-6 23.5-3.5 2.5 1 4.5 2.3 6 3.5 7.5-7 12.9-14.7 17.2-24a29 29 0 0 1-5.5-4.8c-4.4-5-8-12.7-5.4-23.5 2.6-11 10-15.9 16.4-17.9 3-.9 5.7-1.2 7.8-1.3.8-6.8 1.2-13.8 1.2-20.7-2.3-.4-5.4-1-8.5-2.3-6.6-2.7-14-8.4-15.2-19.7a26.6 26.6 0 0 1 9-24c2.6-2.2 5-3.6 7-4.6-2.3-7.6-5.1-13.8-8.7-21a37 37 0 0 1-8.4 1.4 22 22 0 0 1-21.3-10.8 25 25 0 0 1-1.3-23.3c1.1-2.6 2.5-4.8 3.7-6.4-6.7-6.6-14-12.2-21.9-16.8a32.7 32.7 0 0 1-5.7 6.4 27.4 27.4 0 0 1-26.8 5.2 24.8 24.8 0 0 1-17.5-17.2c-.9-2.9-1.2-5.6-1.3-7.7a85 85 0 0 0-22.6 1.7Zm123.4 58.3 3.7-1.7 1.9 3.6c5 10 9 18.2 12 29.7l1.2 4-4 1.2h-.1l-.5.2-1.8.7c-1.5.7-3.5 1.9-5.4 3.5a18.2 18.2 0 0 0-6.2 16.7c.8 7.2 5.2 10.8 10 12.7a28.2 28.2 0 0 0 9.3 2h4.3v4.1c.4 10-.1 20-1.6 29.8l-.6 4.2-4.2-.6h-.5a21.5 21.5 0 0 0-7.9.9 15 15 0 0 0-10.6 11.7c-1.9 7.7.6 12.7 3.4 15.9a20.6 20.6 0 0 0 6.2 4.7l4 1.7-1.7 3.9a84.7 84.7 0 0 1-23.8 33l-3.2 2.9-2.8-3.3-.3-.4-1.2-1c-1-1-2.5-2-4.4-2.8-3.6-1.4-8.7-2-15.3 2.7-6.6 4.6-7.7 9.9-7.5 14a19 19 0 0 0 1.9 7.2v.2l2 3.2-3 2.3a104.3 104.3 0 0 1-28.2 14l-4.4 1.5-1.1-4.4-.1-.5-.7-1.6c-.6-1.3-1.6-3.1-3.1-4.8-3-3.2-8-6.5-17.2-5.5a19 19 0 0 0-9.9 3.6 14 14 0 0 0-4.2 5.9 19.3 19.3 0 0 0-1.4 8v.1l.5 4.7h-4.7c-20.4 0-44.8-7.7-67.5-26.8a4.3 4.3 0 0 1 2.9-7.5h.8a108.7 108.7 0 0 0 11.3-.1c7.6-.4 18.2-1.4 30-3.7 23.6-4.7 51.7-15 71-36.6h.2v-.2c44.7-44.4 26.9-121.4-31.1-141.6-34.5-12-62.1-5.2-82.2 7.3a90.8 90.8 0 0 0-36.5 42.3 4.3 4.3 0 0 1-8.3-1.4c0-10.5.5-19.1 2.6-28 2-8.8 5.5-17.7 11.2-28.8l1.6-3.2 3.4 1h.1a17 17 0 0 0 2.2.6c1.5.2 3.6.5 6 .5 4.6-.1 9.5-1.4 12.8-5.4 3.2-4 3.4-8.8 2.4-13.3a29.4 29.4 0 0 0-2.7-7.5h-.1l-1.7-3 2.4-2.3a148 148 0 0 1 22.7-17.7l3.2-2 2.4 2.9a12 12 0 0 0 1.5 1.5c1 1 2.6 2.3 4.6 3.3 3.8 2 9 3.3 15.2.4 5.4-2.4 7.6-7 8.4-11.4a26.3 26.3 0 0 0 .3-8v-.1l-.7-3.9 3.8-1a92 92 0 0 1 33-2.3l4.2.5-.5 4.2v.1a13.6 13.6 0 0 0 0 2.4c0 1.6.3 3.8 1 6.2 1.3 4.5 4.4 9.3 11.7 11.4 9 2.7 15-.1 18.8-3.4a24.4 24.4 0 0 0 5.8-7.5l1.9-4.1 4 2c11.3 6 21.4 14 30.3 23.2l2.9 3-3 3-.4.4a22.9 22.9 0 0 0-4.2 6.6c-1.8 4.2-2.7 9.6.9 15.6 3.3 5.6 8.4 7 13.4 6.6a28.6 28.6 0 0 0 9.2-2.1Z" clip-rule="evenodd"/><path fill="#29ABE2" d="M488.4 601.4V493.5L430 439.6l42.7-143.8-78-87.5-138.1-7.2s79 20.5 115.4 64.2c44.8 46.3 35.2 109.9 35.2 109.9L394 457.6l63 45 15.7 116.7 31.5 51.1v-39.9l-15.8-29.1Z"/><path fill="#29ABE2" fill-rule="evenodd" d="M252.4 200.4c-.3 2.2 1 4.3 3.1 4.8h.2l.7.2a189.3 189.3 0 0 1 11.8 3.6c7.9 2.6 18.8 6.5 30.8 11.7 24 10.5 52.2 26.3 69.7 47.4l.2.2a125.5 125.5 0 0 1 33.3 70 149.7 149.7 0 0 1 .9 35.6l-.1.5v.1l-13.6 85L453 505l15.6 115.9 32 51.9a4.3 4.3 0 0 0 7.9-2.3v-41l-15.8-29.1V491.7l-57.9-53.4 42.6-143.5-80.7-90.6-139.9-7.4c-2.2 0-4 1.5-4.4 3.6Zm35.5 6.6 104.8 5.5 75.2 84.4-42.7 144 59 54.5v107l15.8 29.2v23.8L476.8 618 460.9 500l-62.2-44.5 12.7-79.8-4.2-.6 4.2.6v-.2a33.3 33.3 0 0 0 .3-2.9 158.2 158.2 0 0 0-1.1-35.8 134 134 0 0 0-35.5-74.4c-18.8-22.6-48.3-39-72.7-49.6l-14.5-6Z" clip-rule="evenodd"/><path fill="#29ABE2" d="M234.9 262.4c18-5.2 15.7-24.7 15.7-24.7 10-1.1 21.3-.4 31.5 2.3 0 0-3 17.7 11 24.1 15.6 7.2 26.4-6.4 26.4-6.4 7.9 5 15.2 10.7 22 17.2 0 0-8.8 15 0 25.7 8.8 10.8 25.6 5.7 25.6 5.7a101 101 0 0 1 13.3 55 96.7 96.7 0 0 0-124-52.3c-61 21.2-79.7 102-32.9 148.7 40.6 45.3 116.6 41.8 116.6 41.8a102.2 102.2 0 0 1-64.8 25.8s2-19.8-19.2-22.3a22.3 22.3 0 0 0-25.7 15.5 100 100 0 0 1-27-13.4s9-15.8-6.7-27a19.4 19.4 0 0 0-27 2.3 80.5 80.5 0 0 1-22.6-31.5s16.6-7 12.2-25.5c-4.4-18.5-23.8-15.9-23.8-15.9-1.4-9.5-2-19.3-1.6-29 0 0 21.6 0 23.6-18.5 2.2-20.2-17-25.7-17-25.7 3-11 6.7-18.8 11.8-28.8 0 0 19.3 8.8 28.1-6.2s-4.4-27.8-4.4-27.8c8.6-9 18.4-16.6 29.2-22.3 0 0 8.5 19.4 29.7 13.2Z"/><path fill="#29ABE2" fill-rule="evenodd" d="M277.5 243.3c0 1.9 0 4.4.6 7.1 1.2 6 4.5 13.6 13.2 17.6a24.8 24.8 0 0 0 22.9-.7 31 31 0 0 0 5.9-4.2c5.7 3.8 11.1 8.1 16.2 12.8a38 38 0 0 0-2.2 7 23.7 23.7 0 0 0 4.1 20.4 24.7 24.7 0 0 0 19.4 8.5c2.8 0 5.3-.3 7.2-.6a105.5 105.5 0 0 1 10.3 31.1c-7-10-17.3-20.8-30.7-29.1-22-13.8-52.4-21.1-89.5-8.2-64 22.3-83.4 106.8-34.4 155.6 21.1 23.6 51.3 34.3 75.7 39.2 12.3 2.4 23.3 3.4 31.2 3.8h.3a95.8 95.8 0 0 1-48.2 17.3c-.3-2-.8-4.7-1.9-7.4a22.4 22.4 0 0 0-6.9-9.3 27.3 27.3 0 0 0-14-5.4 27.1 27.1 0 0 0-28.8 14.4 96.6 96.6 0 0 1-19.2-9.6c.7-2 1.3-4.5 1.5-7.6a24 24 0 0 0-11-21.4c-9.2-6.5-17.5-6-23.5-3.5-2.5 1-4.5 2.3-6 3.5a74.9 74.9 0 0 1-17.2-24 29 29 0 0 0 5.5-4.8c4.4-4.9 8-12.6 5.4-23.4-2.6-11-10-16-16.4-18-3-.9-5.7-1.2-7.8-1.2-.8-6.9-1.2-13.8-1.2-20.8 2.3-.3 5.4-1 8.5-2.3 6.6-2.7 14-8.3 15.2-19.6a26.6 26.6 0 0 0-9-24.1c-2.6-2.2-5-3.6-7-4.6a134 134 0 0 1 8.7-21 37 37 0 0 0 8.4 1.4 22 22 0 0 0 21.3-10.7 25 25 0 0 0 1.3-23.4 33.3 33.3 0 0 0-3.7-6.4c6.7-6.5 14-12.2 21.9-16.8 1.3 1.9 3.2 4.3 5.7 6.4a27.4 27.4 0 0 0 26.8 5.2 24.8 24.8 0 0 0 17.5-17.2c.9-2.9 1.2-5.6 1.3-7.7a85 85 0 0 1 22.6 1.7Zm-123.4 58.3-3.7-1.7-1.9 3.6c-5 10.1-9 18.3-12 29.7l-1.2 4 4 1.2h.1a13.4 13.4 0 0 1 2.3 1c1.5.7 3.5 1.8 5.4 3.4 3.6 3.2 7.1 8.3 6.2 16.8-.8 7.1-5.2 10.7-10 12.6a28.3 28.3 0 0 1-9.3 2h-4.3v4.2c-.4 10 .1 20 1.6 29.7l.6 4.2 4.2-.6h.5a21.5 21.5 0 0 1 7.9.9 15 15 0 0 1 10.6 11.7c1.9 7.7-.6 12.7-3.4 16a20.6 20.6 0 0 1-6.2 4.6l-4 1.7 1.7 3.9a84.7 84.7 0 0 0 23.8 33l3.2 2.9 2.8-3.3.3-.3a17.3 17.3 0 0 1 5.6-3.8c3.6-1.5 8.7-2.1 15.3 2.6 6.6 4.6 7.7 10 7.5 14a19 19 0 0 1-2 7.3l-1.8 3.3 3 2.3c9.5 7.1 21.2 11.8 28.1 14l4.4 1.5 1.1-4.4.1-.5.7-1.6c.6-1.3 1.6-3 3.1-4.8 3-3.2 8-6.5 17.2-5.5 4.7.6 7.8 2 9.9 3.7a14 14 0 0 1 4.2 5.8 19.3 19.3 0 0 1 1.4 8v.2l-.5 4.6h4.7c20.4 0 44.8-7.7 67.5-26.7a4.3 4.3 0 0 0-2.9-7.5h-.2a54.5 54.5 0 0 1-3 0c-2 0-5.1 0-9-.2-7.5-.4-18-1.3-29.8-3.7-23.7-4.7-51.8-14.9-71.2-36.6l-.2-.2C182 410.3 199.7 333.2 257.7 313c34.5-12 62.1-5.2 82.2 7.4a90.8 90.8 0 0 1 36.5 42.2 4.3 4.3 0 0 0 8.3-1.4c0-10.4-.5-19-2.6-28-2-8.8-5.5-17.7-11.2-28.8l-1.6-3.1-3.4 1h-.1l-.5.1a28 28 0 0 1-7.6.9c-4.7 0-9.6-1.4-12.9-5.4-3.2-4-3.4-8.8-2.4-13.3a29.4 29.4 0 0 1 2.7-7.4v-.1h.1l1.7-3-2.4-2.3a148 148 0 0 0-22.7-17.7l-3.2-2-2.4 2.9a12.7 12.7 0 0 1-1.5 1.6c-1 1-2.6 2.2-4.6 3.2-3.8 2-9 3.3-15.2.5-5.4-2.5-7.6-7-8.4-11.5a26.4 26.4 0 0 1-.3-8v-.1l.7-3.8-3.8-1a92 92 0 0 0-33-2.4l-4.2.5.5 4.2v.6a22.4 22.4 0 0 1-1 8 16.3 16.3 0 0 1-11.7 11.6c-9 2.6-15-.2-18.8-3.5a24.4 24.4 0 0 1-5.8-7.4l-1.9-4.2-4 2.1a117 117 0 0 0-30.3 23.2l-2.9 3 3 3a12.8 12.8 0 0 1 1.5 1.7c1 1.3 2.2 3 3.1 5.2 1.8 4.2 2.7 9.7-.9 15.7-3.3 5.6-8.4 6.8-13.4 6.6a28.6 28.6 0 0 1-9.1-2.2h-.1Z" clip-rule="evenodd"/><path fill="#29ABE2" d="M580.2 415.5a8.2 8.2 0 1 1-16.5 0 8.2 8.2 0 0 1 16.5 0Z"/><path fill="#29ABE2" fill-rule="evenodd" d="M571.7 415.4v.2a.2.2 0 0 0 .1.1h.1a.3.3 0 0 0 .2 0v-.1l.1-.1a.3.3 0 0 0 0-.2h-.4Zm.2 8.3a8.2 8.2 0 1 0 0-16.5 8.2 8.2 0 0 0 0 16.5Z" clip-rule="evenodd"/><path fill="#29ABE2" d="M249.5 744h18.6c10.1 0 17.4 1 21.6 2.8a22 22 0 0 1 10.5 9c2.6 4.2 4 9.2 4 15 0 6-1.5 11-4.4 15.1-3 4-7.3 7.1-13.1 9.2l21.7 40.9h-19l-20.8-39H267v39h-17.5v-92Zm17.5 36h5.5c5.6 0 9.4-.7 11.5-2.2 2.1-1.4 3.2-3.9 3.2-7.2a8.7 8.7 0 0 0-5.8-8.4c-1.7-.7-5-1-9.6-1H267V780Zm83.6-36h17.7l35.4 92h-18.2l-7.2-19h-37.5l-7.5 19h-18.2l35.5-92Zm9 24.4L347.3 800h24.4l-12.1-31.6Zm66.6-24.3h17.1l21.3 64 21.5-64H503l15.5 91.9h-16.9l-9.9-58-19.5 58h-15.4l-19.4-58-10 58h-17l15.8-92Zm97.6 74.8 7.8-4.7c5.5 10.1 11.8 15.2 19 15.2 3.1 0 6-.7 8.7-2.1a15.5 15.5 0 0 0 8.3-13.5c0-3.1-1-6.2-3.1-9.1-2.9-4.1-8.1-9-15.8-14.8a80.5 80.5 0 0 1-14.3-12.5 23 23 0 0 1-4.8-14 20.3 20.3 0 0 1 11-18.7 23.8 23.8 0 0 1 23.5.4 41 41 0 0 1 11.9 11.7l-7.5 5.7a35.6 35.6 0 0 0-8.9-9 15 15 0 0 0-8-2.3c-3.6 0-6.7 1.2-9 3.4a11 11 0 0 0-3.5 8.3c0 2 .4 4 1.2 5.9.8 1.8 2.4 3.9 4.6 6a182 182 0 0 0 11.9 9.3c8 5.8 13.4 11 16.3 15.6A23.4 23.4 0 0 1 570 831c-5 5-11.1 7.4-18.4 7.4-5.6 0-10.6-1.5-15.2-4.4-4.5-3-8.7-8-12.5-15Zm117-77.1a47.7 47.7 0 0 1 49 48.2c0 13.5-4.7 24.9-14 34.3a46.4 46.4 0 0 1-34.2 14 47 47 0 0 1-34.5-14 49.2 49.2 0 0 1 9.8-76.1 46.8 46.8 0 0 1 24-6.4Zm.5 9c-6.8 0-13.3 1.7-19.4 5.3a38.2 38.2 0 0 0-19.3 34.3c0 11 3.7 20.2 11.3 27.7a37.5 37.5 0 0 0 27.4 11.3 39 39 0 0 0 33.9-19.4c3.4-6 5.1-12.7 5.1-20a38.6 38.6 0 0 0-39-39.3ZM793.9 761l-7.3 5.6c-4-5.2-8.8-9.2-14.4-11.8-5.6-2.7-11.7-4-18.5-4a40.6 40.6 0 0 0-34.9 19.4c-3.4 6-5.1 12.6-5.1 20 0 11.2 3.8 20.6 11.5 28a40 40 0 0 0 29.1 11.3 41 41 0 0 0 32.3-15.1l7.3 5.5a46.6 46.6 0 0 1-17.2 13.6 54 54 0 0 1-23 4.7c-16 0-28.7-5.3-38-16-7.8-9-11.7-20-11.7-32.8 0-13.5 4.7-24.8 14.1-34a48.9 48.9 0 0 1 35.5-13.8c8.6 0 16.4 1.8 23.3 5.2 6.9 3.4 12.6 8.1 17 14.2Z"/></svg>