<svg width="1038" height="1038" viewBox="0 0 1038 1038" fill="none" xmlns="http://www.w3.org/2000/svg">
<rect width="1038" height="1038" fill="#0D2631"/>
<path fill-rule="evenodd" clip-rule="evenodd" d="M523.411 449.59L551.138 425.085V362.304H542.631V421.251L523.411 438.237V319.619H514.904V437.803L497.473 421.335V366.797H488.965V425.001L514.904 449.506V542.275H523.411V449.59Z" fill="#3B3F42"/>
<path d="M501.463 361.562C501.463 366.115 497.772 369.806 493.219 369.806C488.666 369.806 484.975 366.115 484.975 361.562C484.975 357.009 488.666 353.318 493.219 353.318C497.772 353.318 501.463 357.009 501.463 361.562Z" fill="#3B3F42"/>
<path fill-rule="evenodd" clip-rule="evenodd" d="M492.98 361.457C492.962 361.5 492.956 361.541 492.956 361.562C492.956 361.583 492.962 361.624 492.98 361.667C492.996 361.704 493.015 361.73 493.033 361.748C493.05 361.765 493.076 361.785 493.114 361.801C493.157 361.819 493.198 361.825 493.219 361.825C493.239 361.825 493.281 361.819 493.324 361.801C493.361 361.785 493.387 361.765 493.405 361.748C493.422 361.73 493.442 361.704 493.458 361.667C493.476 361.624 493.482 361.583 493.482 361.562C493.482 361.541 493.476 361.5 493.458 361.457C493.442 361.419 493.422 361.394 493.405 361.376C493.387 361.358 493.361 361.339 493.324 361.323C493.281 361.305 493.239 361.299 493.219 361.299C493.198 361.299 493.157 361.305 493.114 361.323C493.076 361.339 493.05 361.358 493.033 361.376C493.015 361.394 492.996 361.419 492.98 361.457ZM493.219 369.806C497.772 369.806 501.463 366.115 501.463 361.562C501.463 357.009 497.772 353.318 493.219 353.318C488.666 353.318 484.975 357.009 484.975 361.562C484.975 366.115 488.666 369.806 493.219 369.806Z" fill="#3B3F42"/>
<path d="M527.384 317.436C527.384 321.989 523.693 325.68 519.14 325.68C514.587 325.68 510.896 321.989 510.896 317.436C510.896 312.883 514.587 309.191 519.14 309.191C523.693 309.191 527.384 312.883 527.384 317.436Z" fill="#3B3F42"/>
<path fill-rule="evenodd" clip-rule="evenodd" d="M518.901 317.331C518.883 317.374 518.877 317.415 518.877 317.436C518.877 317.456 518.883 317.497 518.901 317.541C518.917 317.578 518.937 317.604 518.954 317.622C518.972 317.639 518.998 317.659 519.035 317.675C519.079 317.693 519.12 317.699 519.14 317.699C519.161 317.699 519.202 317.693 519.245 317.675C519.283 317.659 519.309 317.639 519.326 317.622C519.344 317.604 519.363 317.578 519.379 317.541C519.397 317.497 519.403 317.456 519.403 317.436C519.403 317.415 519.397 317.374 519.379 317.331C519.363 317.293 519.344 317.267 519.326 317.25C519.309 317.232 519.283 317.213 519.245 317.197C519.202 317.179 519.161 317.173 519.14 317.173C519.12 317.173 519.079 317.179 519.035 317.197C518.998 317.213 518.972 317.232 518.954 317.25C518.937 317.267 518.917 317.293 518.901 317.331ZM519.14 325.68C523.693 325.68 527.384 321.989 527.384 317.436C527.384 312.883 523.693 309.191 519.14 309.191C514.587 309.191 510.896 312.883 510.896 317.436C510.896 321.989 514.587 325.68 519.14 325.68Z" fill="#3B3F42"/>
<path d="M555.128 361.562C555.128 366.115 551.437 369.806 546.884 369.806C542.331 369.806 538.64 366.115 538.64 361.562C538.64 357.009 542.331 353.318 546.884 353.318C551.437 353.318 555.128 357.009 555.128 361.562Z" fill="#3B3F42"/>
<path fill-rule="evenodd" clip-rule="evenodd" d="M546.645 361.457C546.627 361.5 546.621 361.541 546.621 361.562C546.621 361.583 546.627 361.624 546.645 361.667C546.661 361.704 546.68 361.73 546.698 361.748C546.716 361.765 546.741 361.785 546.779 361.801C546.822 361.819 546.863 361.825 546.884 361.825C546.904 361.825 546.946 361.819 546.989 361.801C547.026 361.785 547.052 361.765 547.07 361.748C547.087 361.73 547.107 361.704 547.123 361.667C547.141 361.624 547.147 361.583 547.147 361.562C547.147 361.541 547.141 361.5 547.123 361.457C547.107 361.419 547.087 361.394 547.07 361.376C547.052 361.358 547.026 361.339 546.989 361.323C546.946 361.305 546.904 361.299 546.884 361.299C546.863 361.299 546.822 361.305 546.779 361.323C546.741 361.339 546.716 361.358 546.698 361.376C546.68 361.394 546.661 361.419 546.645 361.457ZM546.884 369.806C551.437 369.806 555.128 366.115 555.128 361.562C555.128 357.009 551.437 353.318 546.884 353.318C542.331 353.318 538.64 357.009 538.64 361.562C538.64 366.115 542.331 369.806 546.884 369.806Z" fill="#3B3F42"/>
<path d="M527.202 542.275C527.202 546.828 523.511 550.52 518.958 550.52C514.404 550.52 510.713 546.828 510.713 542.275C510.713 537.722 514.404 534.031 518.958 534.031C523.511 534.031 527.202 537.722 527.202 542.275Z" fill="#3B3F42"/>
<path fill-rule="evenodd" clip-rule="evenodd" d="M518.719 542.17C518.7 542.214 518.695 542.255 518.695 542.275C518.695 542.296 518.7 542.337 518.719 542.38C518.735 542.418 518.754 542.444 518.772 542.461C518.789 542.479 518.815 542.498 518.853 542.514C518.896 542.532 518.937 542.538 518.958 542.538C518.978 542.538 519.019 542.532 519.063 542.514C519.1 542.498 519.126 542.479 519.144 542.461C519.161 542.444 519.181 542.418 519.196 542.38C519.215 542.337 519.221 542.296 519.221 542.275C519.221 542.255 519.215 542.214 519.196 542.17C519.181 542.133 519.161 542.107 519.144 542.089C519.126 542.072 519.1 542.052 519.063 542.036C519.019 542.018 518.978 542.012 518.958 542.012C518.937 542.012 518.896 542.018 518.853 542.036C518.815 542.052 518.789 542.072 518.772 542.089C518.754 542.107 518.735 542.133 518.719 542.17ZM518.958 550.52C523.511 550.52 527.202 546.828 527.202 542.275C527.202 537.722 523.511 534.031 518.958 534.031C514.404 534.031 510.713 537.722 510.713 542.275C510.713 546.828 514.404 550.52 518.958 550.52Z" fill="#3B3F42"/>
<path d="M549.595 601.459V493.625L608.006 439.707L565.321 295.928L643.333 208.421L781.396 201.195C781.396 201.195 702.371 221.717 666.042 265.434C621.163 311.719 630.815 375.262 630.815 375.262L643.951 457.68L581.047 502.611L565.321 619.432L533.773 670.519V630.643L549.595 601.459Z" fill="#3B3F42"/>
<path fill-rule="evenodd" clip-rule="evenodd" d="M785.6 200.546C785.933 202.704 784.579 204.764 782.465 205.312L782.465 205.312L782.458 205.314L782.421 205.324C782.4 205.33 782.371 205.337 782.335 205.347L782.264 205.366C782.123 205.403 781.908 205.461 781.624 205.539C781.055 205.695 780.208 205.931 779.113 206.248C776.923 206.883 773.74 207.841 769.803 209.128C761.923 211.703 751.04 215.588 739.043 220.82C714.915 231.341 686.828 247.077 669.314 268.153L669.21 268.278L669.096 268.395C647.465 290.704 638.92 317.225 635.807 338.326C634.252 348.866 634.062 357.999 634.259 364.481C634.358 367.719 634.553 370.289 634.722 372.033C634.806 372.905 634.883 373.57 634.938 374.008C634.965 374.227 634.987 374.39 635.002 374.493C635.009 374.545 635.014 374.582 635.017 374.604L635.02 374.625L635.02 374.626L635.021 374.627L648.566 459.611L585.017 505.002L569.416 620.896L537.393 672.754C536.394 674.372 534.442 675.13 532.612 674.611C530.782 674.091 529.52 672.421 529.52 670.519V629.565L545.342 600.38V491.762L603.174 438.379L560.569 294.867L641.339 204.266L781.174 196.948C783.354 196.833 785.267 198.389 785.6 200.546ZM750.132 207.091L645.328 212.577L570.074 296.99L612.838 441.036L553.849 495.487V602.538L538.027 631.722V655.535L561.227 617.967L577.077 500.219L639.336 455.749L626.612 375.916L626.609 375.901L630.815 375.262C626.609 375.901 626.609 375.899 626.609 375.897L626.608 375.891L626.606 375.876L626.599 375.828C626.595 375.806 626.592 375.779 626.587 375.748C626.584 375.723 626.58 375.695 626.575 375.663C626.556 375.523 626.529 375.324 626.497 375.066C626.432 374.551 626.346 373.806 626.254 372.85C626.069 370.938 625.861 368.182 625.756 364.74C625.547 357.861 625.749 348.215 627.391 337.084C630.666 314.878 639.711 286.541 662.876 262.59C681.696 240.013 711.221 223.671 735.643 213.022C740.714 210.81 745.588 208.835 750.132 207.091Z" fill="#3B3F42"/>
<path fill-rule="evenodd" clip-rule="evenodd" d="M461.842 416.11V440.575L484.202 460.794V491.986H492.709V457.017L470.349 436.798V416.11H461.842Z" fill="#3B3F42"/>
<path d="M457.851 414.073C457.851 418.626 461.542 422.317 466.096 422.317C470.649 422.317 474.34 418.626 474.34 414.073C474.34 409.519 470.649 405.828 466.096 405.828C461.542 405.828 457.851 409.519 457.851 414.073Z" fill="#3B3F42"/>
<path fill-rule="evenodd" clip-rule="evenodd" d="M466.334 413.968C466.353 414.011 466.359 414.052 466.359 414.073C466.359 414.093 466.353 414.134 466.334 414.178C466.319 414.215 466.299 414.241 466.282 414.259C466.264 414.276 466.238 414.296 466.201 414.312C466.157 414.33 466.116 414.336 466.096 414.336C466.075 414.336 466.034 414.33 465.991 414.312C465.953 414.296 465.927 414.276 465.91 414.259C465.892 414.241 465.873 414.215 465.857 414.178C465.838 414.134 465.833 414.093 465.833 414.073C465.833 414.052 465.838 414.011 465.857 413.968C465.873 413.93 465.892 413.904 465.91 413.887C465.927 413.869 465.953 413.85 465.991 413.834C466.034 413.815 466.075 413.81 466.096 413.81C466.116 413.81 466.157 413.815 466.201 413.834C466.238 413.85 466.264 413.869 466.282 413.887C466.299 413.904 466.319 413.93 466.334 413.968ZM466.096 422.317C461.542 422.317 457.851 418.626 457.851 414.073C457.851 409.519 461.542 405.828 466.096 405.828C470.649 405.828 474.34 409.519 474.34 414.073C474.34 418.626 470.649 422.317 466.096 422.317Z" fill="#3B3F42"/>
<path fill-rule="evenodd" clip-rule="evenodd" d="M576.201 416.11V440.575L553.84 460.794V491.986H545.333V457.017L567.694 436.798V416.11H576.201Z" fill="#3B3F42"/>
<path d="M803.125 261.52C785.056 256.255 787.399 236.808 787.399 236.808C777.476 235.639 766.05 236.396 755.948 239.055C755.948 239.055 758.986 256.749 744.899 263.2C729.33 270.329 718.485 256.749 718.485 256.749C710.646 261.726 703.289 267.522 696.474 274.008C696.474 274.008 705.278 288.927 696.474 299.712C687.669 310.496 670.898 305.426 670.898 305.426C659.602 327.234 657.585 339.616 657.585 360.319C665.778 336.27 710.08 283.166 781.667 308.085C842.675 329.322 861.314 410.156 814.455 456.738C773.92 502.095 697.905 498.58 697.905 498.58C719.916 517.054 743.317 524.367 762.687 524.367C762.687 524.367 760.631 504.536 781.878 502.095C803.125 499.655 807.618 517.627 807.618 517.627C814.358 515.381 825.591 510.888 834.577 504.148C834.577 504.148 825.591 488.422 841.317 477.189C857.042 465.956 868.275 479.436 868.275 479.436C878.729 470.45 885.627 460.546 890.894 447.941C890.894 447.941 874.326 440.903 878.729 422.429C883.131 403.955 902.501 406.594 902.501 406.594C903.909 397.047 904.439 387.307 904.139 377.563C904.139 377.563 882.484 377.563 880.49 359.089C878.305 338.856 897.48 333.41 897.48 333.41C894.445 322.382 890.758 314.53 885.694 304.547C885.694 304.547 866.402 313.344 857.598 298.389C848.793 283.433 862 270.575 862 270.575C853.41 261.538 843.64 253.935 832.815 248.245C832.815 248.245 824.256 267.678 803.125 261.52Z" fill="#3B3F42"/>
<path fill-rule="evenodd" clip-rule="evenodd" d="M760.469 242.351C760.509 244.274 760.405 246.783 759.884 249.508C758.728 255.541 755.398 263.07 746.67 267.067C737.389 271.317 729.363 269.364 723.839 266.394C721.335 265.048 719.331 263.494 717.898 262.212C712.217 266.028 706.802 270.298 701.681 274.969C702.435 276.708 703.327 279.12 703.932 281.915C705.168 287.617 705.33 295.589 699.769 302.402C694.233 309.182 686.336 310.777 680.448 310.866C677.609 310.909 675.073 310.61 673.197 310.288C668.557 319.598 665.796 327.018 664.153 334.232C663.61 336.611 663.186 338.986 662.856 341.42C669.887 331.351 680.232 320.593 693.597 312.233C715.65 298.437 745.959 291.152 783.065 304.068C847.035 326.336 866.493 410.879 817.543 459.666C796.389 483.275 766.24 493.977 741.809 498.84C729.523 501.285 718.54 502.282 710.623 502.669C710.53 502.674 710.438 502.678 710.346 502.682C727.016 514.035 743.9 519.183 758.538 519.997C758.758 517.911 759.262 515.279 760.375 512.543C761.669 509.364 763.805 506.005 767.283 503.264C770.774 500.513 775.399 498.558 781.393 497.87C793.468 496.483 801.233 500.954 805.874 506.096C807.812 508.245 809.153 510.447 810.053 512.253C815.698 510.141 822.924 506.93 829.312 502.663C828.646 500.756 827.961 498.135 827.802 495.104C827.454 488.501 829.657 480.29 838.844 473.728C847.994 467.192 856.296 467.69 862.312 470.167C864.799 471.191 866.821 472.516 868.315 473.685C875.778 466.679 881.162 459.02 885.462 449.729C883.835 448.63 881.848 447.053 879.972 444.928C875.615 439.993 872.019 432.234 874.591 421.443C877.213 410.44 884.506 405.509 891.021 403.516C893.946 402.621 896.698 402.313 898.797 402.233C899.635 395.38 900.018 388.432 899.961 381.463C897.684 381.133 894.625 380.485 891.456 379.193C884.876 376.51 877.479 370.835 876.26 359.546C874.99 347.783 880.02 340.061 885.391 335.438C887.851 333.321 890.359 331.864 892.321 330.912C889.961 323.268 887.18 317.05 883.582 309.816C881.436 310.456 878.482 311.139 875.184 311.323C868.344 311.704 859.434 309.893 853.932 300.547C848.653 291.58 850.018 283.133 852.593 277.184C853.725 274.569 855.098 272.403 856.268 270.805C849.618 264.234 842.307 258.557 834.397 253.976C833.109 255.871 831.221 258.233 828.658 260.424C822.97 265.289 814.094 269.147 801.935 265.604C791.197 262.475 786.397 254.963 784.415 248.423C783.533 245.511 783.198 242.786 783.09 240.688C775.788 240.221 767.855 240.779 760.469 242.351ZM883.931 300.675L883.934 300.674L883.937 300.672L883.939 300.671L887.641 298.984L889.487 302.622C894.592 312.686 898.432 320.839 901.581 332.281L902.701 336.349L898.661 337.496L898.655 337.498L898.653 337.499C898.64 337.503 898.609 337.512 898.563 337.527C898.471 337.556 898.316 337.608 898.109 337.683C897.694 337.833 897.074 338.077 896.324 338.428C894.81 339.138 892.834 340.256 890.94 341.886C887.27 345.045 883.804 350.162 884.718 358.633C885.494 365.818 889.922 369.38 894.668 371.315C897.08 372.299 899.485 372.806 901.314 373.062C902.219 373.189 902.961 373.251 903.461 373.281C903.711 373.297 903.899 373.304 904.016 373.307C904.074 373.309 904.114 373.309 904.135 373.31L904.139 373.31H904.145H904.149H908.263L908.39 377.432C908.698 387.416 908.155 397.408 906.709 407.215L906.095 411.377L901.945 410.811L901.939 410.81L901.936 410.81C901.922 410.809 901.891 410.805 901.843 410.8C901.749 410.79 901.59 410.775 901.375 410.761C900.945 410.732 900.298 410.706 899.498 410.723C897.882 410.758 895.731 410.972 893.51 411.651C889.24 412.957 884.646 415.944 882.866 423.415C881.035 431.098 883.522 436.095 886.349 439.298C887.818 440.962 889.42 442.173 890.664 442.968C891.281 443.362 891.794 443.644 892.136 443.82C892.306 443.907 892.433 443.968 892.506 444.002C892.541 444.018 892.563 444.028 892.573 444.033C892.574 444.033 892.575 444.033 892.575 444.033C892.58 444.035 892.58 444.036 892.577 444.035L896.449 445.679L894.819 449.581C889.316 462.749 882.042 473.211 871.048 482.661L867.772 485.477L865.023 482.178C865.023 482.178 865.023 482.178 865.023 482.178C865.022 482.177 865.021 482.176 865.02 482.175C865.013 482.167 865 482.151 864.979 482.128C864.929 482.073 864.841 481.976 864.716 481.848C864.464 481.589 864.068 481.206 863.542 480.766C862.479 479.875 860.954 478.808 859.073 478.034C855.542 476.579 850.365 475.953 843.789 480.651C837.249 485.322 836.083 490.59 836.297 494.657C836.41 496.8 836.922 498.696 837.418 500.068C837.664 500.748 837.898 501.278 838.062 501.623C838.111 501.725 838.153 501.811 838.187 501.878C838.21 501.924 838.23 501.961 838.245 501.99C838.263 502.023 838.274 502.045 838.279 502.054C838.28 502.055 838.28 502.055 838.28 502.056L838.281 502.057L838.282 502.059L840.133 505.298L837.129 507.551C827.606 514.693 815.873 519.359 808.963 521.663L804.605 523.115L803.498 518.683C803.497 518.682 803.497 518.681 803.497 518.68C803.494 518.67 803.488 518.647 803.478 518.613C803.456 518.537 803.415 518.403 803.353 518.221C803.23 517.855 803.024 517.3 802.716 516.626C802.094 515.268 801.088 513.492 799.558 511.796C796.64 508.562 791.535 505.268 782.363 506.321C777.733 506.853 774.648 508.292 772.548 509.946C770.437 511.61 769.103 513.666 768.255 515.75C767.397 517.856 767.057 519.948 766.94 521.542C766.882 522.329 766.881 522.97 766.892 523.396C766.898 523.608 766.907 523.764 766.913 523.856C766.916 523.902 766.919 523.932 766.92 523.945L766.92 523.95L767.404 528.621H762.687C742.257 528.621 717.901 520.916 695.17 501.838C693.773 500.665 693.279 498.732 693.942 497.033C694.606 495.334 696.278 494.247 698.099 494.331C698.1 494.331 698.101 494.331 698.101 494.331L698.136 494.332C698.165 494.333 698.213 494.335 698.278 494.338C698.409 494.342 698.61 494.349 698.878 494.356C699.415 494.37 700.219 494.385 701.265 494.389C703.356 494.396 706.41 494.358 710.208 494.172C717.811 493.801 728.364 492.842 740.149 490.496C763.827 485.784 791.906 475.587 811.283 453.904L811.367 453.81L811.456 453.721C856.111 409.33 838.275 332.295 780.268 312.102C745.787 300.099 718.152 306.906 698.109 319.445C677.848 332.12 665.376 350.639 661.611 361.691C660.94 363.66 658.942 364.855 656.889 364.515C654.837 364.175 653.331 362.4 653.331 360.319C653.331 349.839 653.839 341.203 655.858 332.342C657.879 323.472 661.368 314.576 667.12 303.47L668.745 300.332L672.116 301.351L672.119 301.352L672.119 301.352L672.123 301.353L672.125 301.354L672.128 301.355C672.144 301.359 672.174 301.368 672.219 301.38C672.31 301.405 672.457 301.445 672.655 301.494C673.053 301.592 673.652 301.728 674.407 301.863C675.925 302.136 678.015 302.395 680.319 302.36C685.018 302.288 689.909 301.026 693.179 297.022C696.421 293.05 696.583 288.17 695.618 283.717C695.144 281.527 694.424 279.601 693.817 278.217C693.515 277.531 693.248 276.991 693.062 276.636C692.97 276.458 692.899 276.327 692.854 276.248C692.832 276.208 692.817 276.182 692.809 276.168C692.808 276.165 692.806 276.163 692.805 276.161C692.804 276.16 692.804 276.159 692.804 276.159L691.092 273.258L693.541 270.927C700.547 264.26 708.121 258.29 716.205 253.158L719.427 251.112L721.796 254.079L721.797 254.079L721.799 254.083C721.806 254.091 721.823 254.111 721.849 254.142C721.902 254.204 721.992 254.308 722.12 254.448C722.376 254.727 722.775 255.143 723.306 255.632C724.377 256.619 725.93 257.86 727.868 258.902C731.658 260.94 736.839 262.212 743.128 259.332C748.487 256.878 750.681 252.335 751.528 247.908C751.953 245.691 752.008 243.612 751.951 242.077C751.923 241.316 751.868 240.706 751.823 240.301C751.801 240.099 751.78 239.949 751.767 239.859C751.761 239.814 751.756 239.784 751.754 239.769C751.754 239.769 751.754 239.768 751.754 239.768C751.753 239.765 751.753 239.766 751.753 239.764C751.753 239.764 751.753 239.761 751.753 239.76C751.753 239.76 751.752 239.76 751.753 239.76L751.095 235.933L754.865 234.941C765.482 232.147 777.445 231.352 787.897 232.584L792.132 233.083L791.624 237.3L791.624 237.305L791.623 237.309C791.622 237.323 791.618 237.356 791.614 237.404C791.605 237.501 791.593 237.662 791.581 237.88C791.558 238.316 791.54 238.974 791.567 239.789C791.621 241.435 791.856 243.644 792.557 245.956C793.921 250.456 796.983 255.3 804.315 257.437C813.287 260.051 819.256 257.272 823.129 253.959C825.137 252.242 826.614 250.34 827.591 248.851C828.075 248.113 828.425 247.494 828.647 247.076C828.758 246.867 828.835 246.71 828.881 246.615C828.891 246.594 828.9 246.576 828.907 246.562C828.915 246.543 828.921 246.53 828.925 246.522C828.927 246.519 828.926 246.52 828.927 246.518C828.927 246.517 828.929 246.514 828.929 246.513C828.93 246.512 828.93 246.512 828.929 246.513L830.759 242.359L834.793 244.479C846.069 250.406 856.204 258.305 865.083 267.645L867.978 270.691L864.979 273.611L864.975 273.615L864.974 273.616C864.964 273.626 864.943 273.647 864.912 273.68C864.848 273.745 864.744 273.855 864.606 274.008C864.33 274.314 863.924 274.786 863.452 275.402C862.502 276.645 861.328 278.42 860.4 280.564C858.574 284.783 857.737 290.242 861.263 296.231C864.565 301.84 869.704 303.108 874.711 302.829C877.234 302.688 879.573 302.144 881.305 301.618C882.163 301.357 882.849 301.108 883.309 300.93C883.538 300.841 883.709 300.77 883.815 300.725C883.868 300.703 883.904 300.687 883.924 300.678L883.928 300.676L883.931 300.675Z" fill="#3B3F42"/>
<path d="M488.404 601.36V493.525L429.994 439.608L472.678 295.828L394.666 208.322L256.603 201.096C256.603 201.096 335.628 221.617 371.957 265.335C416.837 311.619 407.185 375.162 407.185 375.162L394.049 457.58L456.952 502.511L472.678 619.332L504.226 670.419V630.544L488.404 601.36Z" fill="#3B3F42"/>
<path fill-rule="evenodd" clip-rule="evenodd" d="M252.399 200.447C252.066 202.604 253.421 204.664 255.534 205.213L255.534 205.213L255.542 205.215L255.578 205.224C255.6 205.23 255.628 205.238 255.665 205.247L255.735 205.266C255.877 205.304 256.091 205.361 256.376 205.439C256.944 205.595 257.791 205.831 258.886 206.148C261.077 206.783 264.259 207.741 268.197 209.028C276.077 211.604 286.959 215.489 298.957 220.72C323.085 231.241 351.172 246.977 368.685 268.053L368.79 268.179L368.903 268.296C390.535 290.604 399.08 317.125 402.193 338.226C403.748 348.766 403.938 357.899 403.74 364.381C403.641 367.62 403.446 370.189 403.278 371.933C403.194 372.805 403.117 373.47 403.062 373.909C403.034 374.128 403.012 374.29 402.998 374.394C402.991 374.445 402.985 374.482 402.982 374.504L402.979 374.525L402.979 374.526L402.979 374.527L389.434 459.511L452.982 504.903L468.583 620.797L500.607 672.654C501.606 674.272 503.558 675.031 505.388 674.511C507.217 673.992 508.479 672.321 508.479 670.419V629.465L492.657 600.281V491.663L434.825 438.279L477.43 294.767L396.66 204.167L256.826 196.848C254.645 196.734 252.733 198.289 252.399 200.447ZM287.867 206.991L392.672 212.477L467.926 296.89L425.162 440.937L484.15 495.387V602.438L499.972 631.623V655.435L476.773 617.867L460.922 500.12L398.664 455.649L411.388 375.817L411.39 375.801L407.185 375.162C411.39 375.801 411.39 375.799 411.391 375.797L411.392 375.792L411.394 375.776L411.401 375.728C411.404 375.706 411.408 375.68 411.412 375.648C411.416 375.623 411.42 375.595 411.424 375.564C411.444 375.424 411.471 375.224 411.503 374.966C411.567 374.451 411.654 373.706 411.746 372.75C411.93 370.838 412.138 368.082 412.243 364.64C412.453 357.761 412.251 348.116 410.609 336.984C407.333 314.778 398.288 286.442 375.124 262.49C356.304 239.914 326.778 223.571 302.357 212.922C297.286 210.711 292.411 208.735 287.867 206.991Z" fill="#3B3F42"/>
<path d="M234.874 262.442C252.943 257.176 250.6 237.729 250.6 237.729C260.524 236.56 271.95 237.317 282.052 239.976C282.052 239.976 279.013 257.67 293.101 264.121C308.67 271.251 319.514 257.67 319.514 257.67C327.353 262.647 334.71 268.443 341.526 274.929C341.526 274.929 332.721 289.849 341.526 300.633C350.33 311.417 367.102 306.348 367.102 306.348C378.397 328.155 380.415 340.538 380.415 361.24C372.221 337.191 327.92 284.087 256.333 309.006C195.325 330.243 176.685 411.077 223.544 457.659C264.08 503.017 340.095 499.501 340.095 499.501C318.083 517.975 294.682 525.288 275.312 525.288C275.312 525.288 277.368 505.457 256.121 503.017C234.874 500.576 230.381 518.548 230.381 518.548C223.642 516.302 212.409 511.809 203.423 505.069C203.423 505.069 212.409 489.343 196.683 478.11C180.957 466.878 169.724 480.357 169.724 480.357C159.271 471.371 152.373 461.467 147.105 448.862C147.105 448.862 163.673 441.824 159.271 423.35C154.869 404.876 135.498 407.515 135.498 407.515C134.09 397.968 133.56 388.228 133.86 378.485C133.86 378.485 155.516 378.485 157.51 360.01C159.694 339.777 140.519 334.331 140.519 334.331C143.554 323.304 147.242 315.451 152.306 305.468C152.306 305.468 171.597 314.265 180.402 299.31C189.206 284.355 176 271.496 176 271.496C184.59 262.46 194.359 254.856 205.185 249.166C205.185 249.166 213.743 268.6 234.874 262.442Z" fill="#3B3F42"/>
<path fill-rule="evenodd" clip-rule="evenodd" d="M277.53 243.273C277.491 245.195 277.594 247.704 278.116 250.429C279.271 256.463 282.601 263.992 291.33 267.988C300.611 272.238 308.637 270.285 314.16 267.316C316.664 265.97 318.668 264.415 320.101 263.134C325.783 266.95 331.197 271.219 336.318 275.89C335.565 277.63 334.673 280.041 334.067 282.836C332.831 288.539 332.669 296.511 338.231 303.323C343.766 310.103 351.663 311.698 357.551 311.787C360.39 311.831 362.926 311.532 364.802 311.209C369.442 320.519 372.203 327.939 373.847 335.153C374.389 337.533 374.814 339.907 375.143 342.341C368.112 332.272 357.767 321.515 344.402 313.154C322.35 299.358 292.04 292.073 254.935 304.989C190.964 327.257 171.506 411.8 220.457 460.587C241.61 484.197 271.76 494.899 296.19 499.761C308.477 502.206 319.46 503.203 327.377 503.59C327.469 503.595 327.562 503.599 327.654 503.604C310.983 514.957 294.1 520.104 279.462 520.918C279.242 518.832 278.738 516.2 277.624 513.464C276.331 510.285 274.195 506.926 270.716 504.185C267.225 501.435 262.601 499.479 256.607 498.791C244.532 497.404 236.766 501.875 232.126 507.018C230.187 509.166 228.846 511.368 227.946 513.174C222.302 511.062 215.076 507.851 208.687 503.584C209.353 501.677 210.038 499.057 210.198 496.026C210.546 489.422 208.342 481.211 199.156 474.649C190.006 468.114 181.704 468.611 175.687 471.088C173.201 472.112 171.179 473.438 169.685 474.606C162.222 467.6 156.837 459.941 152.537 450.65C154.165 449.551 156.152 447.974 158.028 445.849C162.384 440.914 165.98 433.155 163.409 422.364C160.787 411.361 153.494 406.43 146.978 404.437C144.053 403.543 141.301 403.234 139.202 403.154C138.364 396.301 137.982 389.353 138.039 382.384C140.316 382.054 143.374 381.407 146.544 380.114C153.124 377.431 160.521 371.756 161.739 360.467C163.009 348.704 157.98 340.982 152.609 336.359C150.148 334.242 147.64 332.785 145.678 331.833C148.038 324.189 150.82 317.971 154.417 310.738C156.563 311.377 159.518 312.06 162.816 312.244C169.656 312.625 178.565 310.814 184.068 301.468C189.346 292.501 187.982 284.054 185.406 278.105C184.274 275.49 182.901 273.324 181.732 271.726C188.381 265.156 195.692 259.478 203.602 254.898C204.891 256.792 206.779 259.154 209.341 261.346C215.03 266.21 223.906 270.069 236.065 266.525C246.802 263.396 251.602 255.884 253.584 249.345C254.467 246.432 254.802 243.707 254.91 241.61C262.211 241.143 270.144 241.7 277.53 243.273ZM154.068 301.596L154.066 301.595L154.062 301.594L154.06 301.593L150.359 299.905L148.513 303.544C143.408 313.607 139.568 321.76 136.418 333.202L135.299 337.27L139.339 338.418L139.345 338.419L139.346 338.42C139.36 338.424 139.39 338.433 139.436 338.448C139.529 338.478 139.683 338.529 139.89 338.604C140.305 338.754 140.925 338.998 141.676 339.35C143.19 340.059 145.166 341.178 147.059 342.807C150.73 345.966 154.196 351.083 153.281 359.554C152.505 366.739 148.078 370.301 143.331 372.237C140.919 373.22 138.514 373.727 136.686 373.983C135.78 374.11 135.039 374.172 134.538 374.203C134.288 374.218 134.1 374.225 133.984 374.228C133.926 374.23 133.885 374.23 133.864 374.231L133.861 374.231H133.855H133.85H129.736L129.609 378.354C129.302 388.337 129.844 398.329 131.291 408.136L131.905 412.298L136.055 411.732L136.061 411.732L136.063 411.731C136.077 411.73 136.109 411.726 136.156 411.721C136.251 411.711 136.41 411.696 136.624 411.682C137.054 411.653 137.701 411.627 138.501 411.644C140.118 411.68 142.268 411.893 144.49 412.573C148.76 413.879 153.353 416.866 155.133 424.336C156.964 432.019 154.478 437.016 151.65 440.219C150.181 441.883 148.579 443.094 147.335 443.889C146.718 444.283 146.205 444.565 145.864 444.741C145.693 444.828 145.567 444.889 145.493 444.923C145.459 444.939 145.436 444.949 145.426 444.954C145.426 444.954 145.425 444.954 145.424 444.955C145.42 444.957 145.419 444.957 145.422 444.956L141.55 446.6L143.181 450.502C148.684 463.67 155.958 474.132 166.952 483.583L170.227 486.398L172.976 483.099C172.976 483.099 172.977 483.099 172.977 483.099C172.977 483.098 172.978 483.097 172.979 483.096C172.986 483.088 173 483.072 173.021 483.049C173.07 482.994 173.159 482.897 173.284 482.769C173.536 482.51 173.932 482.127 174.457 481.687C175.52 480.796 177.046 479.729 178.926 478.955C182.458 477.501 187.635 476.875 194.211 481.572C200.75 486.243 201.917 491.511 201.702 495.579C201.59 497.721 201.077 499.617 200.581 500.99C200.336 501.669 200.101 502.199 199.937 502.544C199.888 502.647 199.846 502.732 199.812 502.799C199.789 502.845 199.77 502.882 199.755 502.911C199.737 502.945 199.725 502.966 199.72 502.975C199.72 502.976 199.72 502.976 199.719 502.977L199.718 502.978L199.717 502.98L197.867 506.219L200.871 508.472C210.393 515.614 222.127 520.281 229.036 522.584L233.394 524.036L234.502 519.604C234.502 519.603 234.503 519.602 234.503 519.601C234.506 519.591 234.512 519.568 234.522 519.535C234.544 519.458 234.584 519.324 234.646 519.142C234.77 518.776 234.976 518.222 235.284 517.548C235.905 516.189 236.912 514.413 238.442 512.717C241.36 509.483 246.464 506.189 255.636 507.243C260.266 507.774 263.352 509.213 265.451 510.867C267.563 512.531 268.897 514.588 269.745 516.671C270.602 518.777 270.943 520.869 271.06 522.463C271.117 523.251 271.119 523.891 271.107 524.317C271.102 524.529 271.093 524.685 271.087 524.778C271.083 524.824 271.081 524.853 271.08 524.866L271.079 524.871L270.595 529.542H275.313C295.742 529.542 320.099 521.837 342.829 502.759C344.227 501.586 344.721 499.653 344.057 497.954C343.394 496.255 341.722 495.168 339.9 495.252C339.9 495.252 339.899 495.252 339.898 495.252L339.864 495.253C339.834 495.255 339.787 495.257 339.721 495.259C339.591 495.264 339.389 495.27 339.121 495.277C338.585 495.291 337.78 495.306 336.735 495.31C334.643 495.317 331.59 495.279 327.792 495.093C320.189 494.722 309.635 493.763 297.851 491.417C274.172 486.705 246.094 476.508 226.716 454.825L226.633 454.731L226.544 454.643C181.889 410.251 199.725 333.216 257.732 313.024C292.213 301.021 319.848 307.828 339.891 320.366C360.152 333.041 372.623 351.56 376.388 362.612C377.06 364.582 379.057 365.777 381.11 365.437C383.163 365.096 384.668 363.321 384.668 361.24C384.668 350.76 384.161 342.125 382.142 333.263C380.12 324.393 376.632 315.498 370.879 304.391L369.254 301.253L365.883 302.272L365.881 302.273L365.88 302.273L365.877 302.274L365.874 302.275L365.871 302.276C365.856 302.28 365.825 302.289 365.78 302.302C365.69 302.326 365.543 302.366 365.344 302.415C364.946 302.513 364.347 302.649 363.593 302.784C362.074 303.057 359.984 303.316 357.681 303.281C352.981 303.21 348.09 301.947 344.821 297.943C341.578 293.971 341.416 289.091 342.381 284.638C342.856 282.448 343.575 280.522 344.183 279.138C344.484 278.452 344.752 277.913 344.937 277.557C345.03 277.379 345.101 277.249 345.145 277.169C345.167 277.13 345.183 277.103 345.19 277.09C345.192 277.087 345.193 277.084 345.194 277.083C345.195 277.081 345.196 277.08 345.196 277.08L346.908 274.179L344.458 271.848C337.453 265.181 329.878 259.212 321.794 254.079L318.572 252.033L316.203 255L316.203 255.001L316.2 255.004C316.193 255.012 316.177 255.032 316.151 255.063C316.098 255.125 316.007 255.229 315.879 255.369C315.624 255.649 315.224 256.064 314.693 256.554C313.623 257.541 312.069 258.781 310.132 259.823C306.341 261.861 301.16 263.133 294.872 260.254C289.513 257.8 287.319 253.256 286.472 248.83C286.047 246.612 285.992 244.533 286.048 242.998C286.076 242.237 286.131 241.627 286.176 241.222C286.199 241.02 286.219 240.871 286.232 240.78C286.239 240.735 286.243 240.705 286.245 240.691C286.246 240.69 286.246 240.69 286.246 240.689C286.246 240.686 286.246 240.687 286.246 240.685C286.246 240.685 286.247 240.682 286.247 240.681C286.247 240.681 286.247 240.681 286.247 240.681L286.904 236.855L283.135 235.862C272.517 233.068 260.555 232.273 250.103 233.505L245.867 234.004L246.375 238.221L246.376 238.226L246.376 238.23C246.378 238.245 246.381 238.277 246.385 238.325C246.394 238.422 246.407 238.583 246.418 238.801C246.441 239.238 246.46 239.895 246.433 240.71C246.379 242.356 246.143 244.565 245.443 246.877C244.079 251.377 241.016 256.221 233.685 258.358C224.712 260.972 218.744 258.193 214.87 254.88C212.863 253.163 211.386 251.261 210.409 249.772C209.924 249.034 209.574 248.415 209.352 247.997C209.242 247.788 209.164 247.631 209.119 247.536C209.108 247.515 209.1 247.498 209.093 247.483C209.084 247.464 209.078 247.451 209.074 247.443C209.073 247.44 209.073 247.441 209.073 247.439C209.072 247.439 209.071 247.435 209.07 247.434C209.07 247.433 209.07 247.433 209.07 247.434L207.241 243.28L203.206 245.401C191.93 251.327 181.795 259.226 172.917 268.566L170.021 271.612L173.02 274.532L173.024 274.536L173.026 274.538C173.035 274.547 173.056 274.568 173.088 274.601C173.151 274.666 173.256 274.777 173.393 274.929C173.67 275.235 174.076 275.707 174.547 276.323C175.498 277.566 176.671 279.341 177.599 281.485C179.426 285.704 180.262 291.163 176.737 297.152C173.434 302.761 168.296 304.029 163.289 303.75C160.765 303.609 158.426 303.065 156.694 302.539C155.837 302.278 155.15 302.029 154.691 301.851C154.462 301.762 154.291 301.691 154.185 301.646C154.132 301.624 154.095 301.608 154.076 301.6L154.071 301.598L154.068 301.596Z" fill="#3B3F42"/>
<path d="M580.192 415.479C580.192 420.032 576.501 423.723 571.947 423.723C567.394 423.723 563.703 420.032 563.703 415.479C563.703 410.926 567.394 407.235 571.947 407.235C576.501 407.235 580.192 410.926 580.192 415.479Z" fill="#3B3F42"/>
<path fill-rule="evenodd" clip-rule="evenodd" d="M571.709 415.374C571.69 415.417 571.684 415.459 571.684 415.479C571.684 415.5 571.69 415.541 571.709 415.584C571.724 415.622 571.744 415.648 571.761 415.665C571.779 415.683 571.805 415.702 571.842 415.718C571.886 415.736 571.927 415.742 571.947 415.742C571.968 415.742 572.009 415.736 572.052 415.718C572.09 415.702 572.116 415.683 572.133 415.665C572.151 415.648 572.17 415.622 572.186 415.584C572.205 415.541 572.21 415.5 572.21 415.479C572.21 415.459 572.205 415.417 572.186 415.374C572.17 415.337 572.151 415.311 572.133 415.293C572.116 415.276 572.09 415.256 572.052 415.24C572.009 415.222 571.968 415.216 571.947 415.216C571.927 415.216 571.886 415.222 571.842 415.24C571.805 415.256 571.779 415.276 571.761 415.293C571.744 415.311 571.724 415.337 571.709 415.374ZM571.947 423.723C576.501 423.723 580.192 420.032 580.192 415.479C580.192 410.926 576.501 407.235 571.947 407.235C567.394 407.235 563.703 410.926 563.703 415.479C563.703 420.032 567.394 423.723 571.947 423.723Z" fill="#3B3F42"/>
<path fill-rule="evenodd" clip-rule="evenodd" d="M523.411 449.59L551.138 425.085V362.304H542.631V421.251L523.411 438.237V319.619H514.904V437.803L497.473 421.335V366.797H488.965V425.001L514.904 449.506V542.275H523.411V449.59Z" fill="#29ABE2"/>
<path d="M501.463 361.562C501.463 366.115 497.772 369.806 493.219 369.806C488.666 369.806 484.975 366.115 484.975 361.562C484.975 357.009 488.666 353.318 493.219 353.318C497.772 353.318 501.463 357.009 501.463 361.562Z" fill="#29ABE2"/>
<path fill-rule="evenodd" clip-rule="evenodd" d="M492.98 361.457C492.962 361.5 492.956 361.541 492.956 361.562C492.956 361.583 492.962 361.624 492.98 361.667C492.996 361.704 493.015 361.73 493.033 361.748C493.05 361.765 493.076 361.785 493.114 361.801C493.157 361.819 493.198 361.825 493.219 361.825C493.239 361.825 493.281 361.819 493.324 361.801C493.361 361.785 493.387 361.765 493.405 361.748C493.422 361.73 493.442 361.704 493.458 361.667C493.476 361.624 493.482 361.583 493.482 361.562C493.482 361.541 493.476 361.5 493.458 361.457C493.442 361.419 493.422 361.394 493.405 361.376C493.387 361.358 493.361 361.339 493.324 361.323C493.281 361.305 493.239 361.299 493.219 361.299C493.198 361.299 493.157 361.305 493.114 361.323C493.076 361.339 493.05 361.358 493.033 361.376C493.015 361.394 492.996 361.419 492.98 361.457ZM493.219 369.806C497.772 369.806 501.463 366.115 501.463 361.562C501.463 357.009 497.772 353.318 493.219 353.318C488.666 353.318 484.975 357.009 484.975 361.562C484.975 366.115 488.666 369.806 493.219 369.806Z" fill="#29ABE2"/>
<path d="M527.384 317.436C527.384 321.989 523.693 325.68 519.14 325.68C514.587 325.68 510.896 321.989 510.896 317.436C510.896 312.883 514.587 309.191 519.14 309.191C523.693 309.191 527.384 312.883 527.384 317.436Z" fill="#29ABE2"/>
<path fill-rule="evenodd" clip-rule="evenodd" d="M518.901 317.331C518.883 317.374 518.877 317.415 518.877 317.436C518.877 317.456 518.883 317.497 518.901 317.541C518.917 317.578 518.937 317.604 518.954 317.622C518.972 317.639 518.998 317.659 519.035 317.675C519.079 317.693 519.12 317.699 519.14 317.699C519.161 317.699 519.202 317.693 519.245 317.675C519.283 317.659 519.309 317.639 519.326 317.622C519.344 317.604 519.363 317.578 519.379 317.541C519.397 317.497 519.403 317.456 519.403 317.436C519.403 317.415 519.397 317.374 519.379 317.331C519.363 317.293 519.344 317.267 519.326 317.25C519.309 317.232 519.283 317.213 519.245 317.197C519.202 317.179 519.161 317.173 519.14 317.173C519.12 317.173 519.079 317.179 519.035 317.197C518.998 317.213 518.972 317.232 518.954 317.25C518.937 317.267 518.917 317.293 518.901 317.331ZM519.14 325.68C523.693 325.68 527.384 321.989 527.384 317.436C527.384 312.883 523.693 309.191 519.14 309.191C514.587 309.191 510.896 312.883 510.896 317.436C510.896 321.989 514.587 325.68 519.14 325.68Z" fill="#29ABE2"/>
<path d="M555.128 361.562C555.128 366.115 551.437 369.806 546.884 369.806C542.331 369.806 538.64 366.115 538.64 361.562C538.64 357.009 542.331 353.318 546.884 353.318C551.437 353.318 555.128 357.009 555.128 361.562Z" fill="#29ABE2"/>
<path fill-rule="evenodd" clip-rule="evenodd" d="M546.645 361.457C546.627 361.5 546.621 361.541 546.621 361.562C546.621 361.583 546.627 361.624 546.645 361.667C546.661 361.704 546.68 361.73 546.698 361.748C546.716 361.765 546.741 361.785 546.779 361.801C546.822 361.819 546.863 361.825 546.884 361.825C546.904 361.825 546.946 361.819 546.989 361.801C547.026 361.785 547.052 361.765 547.07 361.748C547.087 361.73 547.107 361.704 547.123 361.667C547.141 361.624 547.147 361.583 547.147 361.562C547.147 361.541 547.141 361.5 547.123 361.457C547.107 361.419 547.087 361.394 547.07 361.376C547.052 361.358 547.026 361.339 546.989 361.323C546.946 361.305 546.904 361.299 546.884 361.299C546.863 361.299 546.822 361.305 546.779 361.323C546.741 361.339 546.716 361.358 546.698 361.376C546.68 361.394 546.661 361.419 546.645 361.457ZM546.884 369.806C551.437 369.806 555.128 366.115 555.128 361.562C555.128 357.009 551.437 353.318 546.884 353.318C542.331 353.318 538.64 357.009 538.64 361.562C538.64 366.115 542.331 369.806 546.884 369.806Z" fill="#29ABE2"/>
<path d="M527.202 542.275C527.202 546.828 523.511 550.52 518.958 550.52C514.404 550.52 510.713 546.828 510.713 542.275C510.713 537.722 514.404 534.031 518.958 534.031C523.511 534.031 527.202 537.722 527.202 542.275Z" fill="#29ABE2"/>
<path fill-rule="evenodd" clip-rule="evenodd" d="M518.719 542.17C518.7 542.214 518.695 542.255 518.695 542.275C518.695 542.296 518.7 542.337 518.719 542.38C518.735 542.418 518.754 542.444 518.772 542.461C518.789 542.479 518.815 542.498 518.853 542.514C518.896 542.532 518.937 542.538 518.958 542.538C518.978 542.538 519.019 542.532 519.063 542.514C519.1 542.498 519.126 542.479 519.144 542.461C519.161 542.444 519.181 542.418 519.196 542.38C519.215 542.337 519.221 542.296 519.221 542.275C519.221 542.255 519.215 542.214 519.196 542.17C519.181 542.133 519.161 542.107 519.144 542.089C519.126 542.072 519.1 542.052 519.063 542.036C519.019 542.018 518.978 542.012 518.958 542.012C518.937 542.012 518.896 542.018 518.853 542.036C518.815 542.052 518.789 542.072 518.772 542.089C518.754 542.107 518.735 542.133 518.719 542.17ZM518.958 550.52C523.511 550.52 527.202 546.828 527.202 542.275C527.202 537.722 523.511 534.031 518.958 534.031C514.404 534.031 510.713 537.722 510.713 542.275C510.713 546.828 514.404 550.52 518.958 550.52Z" fill="#29ABE2"/>
<path d="M549.595 601.459V493.625L608.006 439.707L565.321 295.928L643.333 208.421L781.396 201.195C781.396 201.195 702.371 221.717 666.042 265.434C621.163 311.719 630.815 375.262 630.815 375.262L643.951 457.68L581.047 502.611L565.321 619.432L533.773 670.519V630.643L549.595 601.459Z" fill="#29ABE2"/>
<path fill-rule="evenodd" clip-rule="evenodd" d="M785.6 200.546C785.933 202.704 784.579 204.764 782.465 205.312L782.465 205.312L782.458 205.314L782.421 205.324C782.4 205.33 782.371 205.337 782.335 205.347L782.264 205.366C782.123 205.403 781.908 205.461 781.624 205.539C781.055 205.695 780.208 205.931 779.113 206.248C776.923 206.883 773.74 207.841 769.803 209.128C761.923 211.703 751.04 215.588 739.043 220.82C714.915 231.341 686.828 247.077 669.314 268.153L669.21 268.278L669.096 268.395C647.465 290.704 638.92 317.225 635.807 338.326C634.252 348.866 634.062 357.999 634.259 364.481C634.358 367.719 634.553 370.289 634.722 372.033C634.806 372.905 634.883 373.57 634.938 374.008C634.965 374.227 634.987 374.39 635.002 374.493C635.009 374.545 635.014 374.582 635.017 374.604L635.02 374.625L635.02 374.626L635.021 374.627L648.566 459.611L585.017 505.002L569.416 620.896L537.393 672.754C536.394 674.372 534.442 675.13 532.612 674.611C530.782 674.091 529.52 672.421 529.52 670.519V629.565L545.342 600.38V491.762L603.174 438.379L560.569 294.867L641.339 204.266L781.174 196.948C783.354 196.833 785.267 198.389 785.6 200.546ZM750.132 207.091L645.328 212.577L570.074 296.99L612.838 441.036L553.849 495.487V602.538L538.027 631.722V655.535L561.227 617.967L577.077 500.219L639.336 455.749L626.612 375.916L626.609 375.901L630.815 375.262C626.609 375.901 626.609 375.899 626.609 375.897L626.608 375.891L626.606 375.876L626.599 375.828C626.595 375.806 626.592 375.779 626.587 375.748C626.584 375.723 626.58 375.695 626.575 375.663C626.556 375.523 626.529 375.324 626.497 375.066C626.432 374.551 626.346 373.806 626.254 372.85C626.069 370.938 625.861 368.182 625.756 364.74C625.547 357.861 625.749 348.215 627.391 337.084C630.666 314.878 639.711 286.541 662.876 262.59C681.696 240.013 711.221 223.671 735.643 213.022C740.714 210.81 745.588 208.835 750.132 207.091Z" fill="#29ABE2"/>
<path fill-rule="evenodd" clip-rule="evenodd" d="M461.842 416.11V440.575L484.202 460.794V491.986H492.709V457.017L470.349 436.798V416.11H461.842Z" fill="#29ABE2"/>
<path d="M457.851 414.073C457.851 418.626 461.542 422.317 466.096 422.317C470.649 422.317 474.34 418.626 474.34 414.073C474.34 409.519 470.649 405.828 466.096 405.828C461.542 405.828 457.851 409.519 457.851 414.073Z" fill="#29ABE2"/>
<path fill-rule="evenodd" clip-rule="evenodd" d="M466.334 413.968C466.353 414.011 466.359 414.052 466.359 414.073C466.359 414.093 466.353 414.134 466.334 414.178C466.319 414.215 466.299 414.241 466.282 414.259C466.264 414.276 466.238 414.296 466.201 414.312C466.157 414.33 466.116 414.336 466.096 414.336C466.075 414.336 466.034 414.33 465.991 414.312C465.953 414.296 465.927 414.276 465.91 414.259C465.892 414.241 465.873 414.215 465.857 414.178C465.838 414.134 465.833 414.093 465.833 414.073C465.833 414.052 465.838 414.011 465.857 413.968C465.873 413.93 465.892 413.904 465.91 413.887C465.927 413.869 465.953 413.85 465.991 413.834C466.034 413.815 466.075 413.81 466.096 413.81C466.116 413.81 466.157 413.815 466.201 413.834C466.238 413.85 466.264 413.869 466.282 413.887C466.299 413.904 466.319 413.93 466.334 413.968ZM466.096 422.317C461.542 422.317 457.851 418.626 457.851 414.073C457.851 409.519 461.542 405.828 466.096 405.828C470.649 405.828 474.34 409.519 474.34 414.073C474.34 418.626 470.649 422.317 466.096 422.317Z" fill="#29ABE2"/>
<path fill-rule="evenodd" clip-rule="evenodd" d="M576.201 416.11V440.575L553.84 460.794V491.986H545.333V457.017L567.694 436.798V416.11H576.201Z" fill="#29ABE2"/>
<path d="M803.125 261.52C785.056 256.255 787.399 236.808 787.399 236.808C777.476 235.639 766.05 236.396 755.948 239.055C755.948 239.055 758.986 256.749 744.899 263.2C729.33 270.329 718.485 256.749 718.485 256.749C710.646 261.726 703.289 267.522 696.474 274.008C696.474 274.008 705.278 288.927 696.474 299.712C687.669 310.496 670.898 305.426 670.898 305.426C659.602 327.234 657.585 339.616 657.585 360.319C665.778 336.27 710.08 283.166 781.667 308.085C842.675 329.322 861.314 410.156 814.455 456.738C773.92 502.095 697.905 498.58 697.905 498.58C719.916 517.054 743.317 524.367 762.687 524.367C762.687 524.367 760.631 504.536 781.878 502.095C803.125 499.655 807.618 517.627 807.618 517.627C814.358 515.381 825.591 510.888 834.577 504.148C834.577 504.148 825.591 488.422 841.317 477.189C857.042 465.956 868.275 479.436 868.275 479.436C878.729 470.45 885.627 460.546 890.894 447.941C890.894 447.941 874.326 440.903 878.729 422.429C883.131 403.955 902.501 406.594 902.501 406.594C903.909 397.047 904.439 387.307 904.139 377.563C904.139 377.563 882.484 377.563 880.49 359.089C878.305 338.856 897.48 333.41 897.48 333.41C894.445 322.382 890.758 314.53 885.694 304.547C885.694 304.547 866.402 313.344 857.598 298.389C848.793 283.433 862 270.575 862 270.575C853.41 261.538 843.64 253.935 832.815 248.245C832.815 248.245 824.256 267.678 803.125 261.52Z" fill="#29ABE2"/>
<path fill-rule="evenodd" clip-rule="evenodd" d="M760.469 242.351C760.509 244.274 760.405 246.783 759.884 249.508C758.728 255.541 755.398 263.07 746.67 267.067C737.389 271.317 729.363 269.364 723.839 266.394C721.335 265.048 719.331 263.494 717.898 262.212C712.217 266.028 706.802 270.298 701.681 274.969C702.435 276.708 703.327 279.12 703.932 281.915C705.168 287.617 705.33 295.589 699.769 302.402C694.233 309.182 686.336 310.777 680.448 310.866C677.609 310.909 675.073 310.61 673.197 310.288C668.557 319.598 665.796 327.018 664.153 334.232C663.61 336.611 663.186 338.986 662.856 341.42C669.887 331.351 680.232 320.593 693.597 312.233C715.65 298.437 745.959 291.152 783.065 304.068C847.035 326.336 866.493 410.879 817.543 459.666C796.389 483.275 766.24 493.977 741.809 498.84C729.523 501.285 718.54 502.282 710.623 502.669C710.53 502.674 710.438 502.678 710.346 502.682C727.016 514.035 743.9 519.183 758.538 519.997C758.758 517.911 759.262 515.279 760.375 512.543C761.669 509.364 763.805 506.005 767.283 503.264C770.774 500.513 775.399 498.558 781.393 497.87C793.468 496.483 801.233 500.954 805.874 506.096C807.812 508.245 809.153 510.447 810.053 512.253C815.698 510.141 822.924 506.93 829.312 502.663C828.646 500.756 827.961 498.135 827.802 495.104C827.454 488.501 829.657 480.29 838.844 473.728C847.994 467.192 856.296 467.69 862.312 470.167C864.799 471.191 866.821 472.516 868.315 473.685C875.778 466.679 881.162 459.02 885.462 449.729C883.835 448.63 881.848 447.053 879.972 444.928C875.615 439.993 872.019 432.234 874.591 421.443C877.213 410.44 884.506 405.509 891.021 403.516C893.946 402.621 896.698 402.313 898.797 402.233C899.635 395.38 900.018 388.432 899.961 381.463C897.684 381.133 894.625 380.485 891.456 379.193C884.876 376.51 877.479 370.835 876.26 359.546C874.99 347.783 880.02 340.061 885.391 335.438C887.851 333.321 890.359 331.864 892.321 330.912C889.961 323.268 887.18 317.05 883.582 309.816C881.436 310.456 878.482 311.139 875.184 311.323C868.344 311.704 859.434 309.893 853.932 300.547C848.653 291.58 850.018 283.133 852.593 277.184C853.725 274.569 855.098 272.403 856.268 270.805C849.618 264.234 842.307 258.557 834.397 253.976C833.109 255.871 831.221 258.233 828.658 260.424C822.97 265.289 814.094 269.147 801.935 265.604C791.197 262.475 786.397 254.963 784.415 248.423C783.533 245.511 783.198 242.786 783.09 240.688C775.788 240.221 767.855 240.779 760.469 242.351ZM883.931 300.675L883.934 300.674L883.937 300.672L883.939 300.671L887.641 298.984L889.487 302.622C894.592 312.686 898.432 320.839 901.581 332.281L902.701 336.349L898.661 337.496L898.655 337.498L898.653 337.499C898.64 337.503 898.609 337.512 898.563 337.527C898.471 337.556 898.316 337.608 898.109 337.683C897.694 337.833 897.074 338.077 896.324 338.428C894.81 339.138 892.834 340.256 890.94 341.886C887.27 345.045 883.804 350.162 884.718 358.633C885.494 365.818 889.922 369.38 894.668 371.315C897.08 372.299 899.485 372.806 901.314 373.062C902.219 373.189 902.961 373.251 903.461 373.281C903.711 373.297 903.899 373.304 904.016 373.307C904.074 373.309 904.114 373.309 904.135 373.31L904.139 373.31H904.145H904.149H908.263L908.39 377.432C908.698 387.416 908.155 397.408 906.709 407.215L906.095 411.377L901.945 410.811L901.939 410.81L901.936 410.81C901.922 410.809 901.891 410.805 901.843 410.8C901.749 410.79 901.59 410.775 901.375 410.761C900.945 410.732 900.298 410.706 899.498 410.723C897.882 410.758 895.731 410.972 893.51 411.651C889.24 412.957 884.646 415.944 882.866 423.415C881.035 431.098 883.522 436.095 886.349 439.298C887.818 440.962 889.42 442.173 890.664 442.968C891.281 443.362 891.794 443.644 892.136 443.82C892.306 443.907 892.433 443.968 892.506 444.002C892.541 444.018 892.563 444.028 892.573 444.033C892.574 444.033 892.575 444.033 892.575 444.033C892.58 444.035 892.58 444.036 892.577 444.035L896.449 445.679L894.819 449.581C889.316 462.749 882.042 473.211 871.048 482.661L867.772 485.477L865.023 482.178C865.023 482.178 865.023 482.178 865.023 482.178C865.022 482.177 865.021 482.176 865.02 482.175C865.013 482.167 865 482.151 864.979 482.128C864.929 482.073 864.841 481.976 864.716 481.848C864.464 481.589 864.068 481.206 863.542 480.766C862.479 479.875 860.954 478.808 859.073 478.034C855.542 476.579 850.365 475.953 843.789 480.651C837.249 485.322 836.083 490.59 836.297 494.657C836.41 496.8 836.922 498.696 837.418 500.068C837.664 500.748 837.898 501.278 838.062 501.623C838.111 501.725 838.153 501.811 838.187 501.878C838.21 501.924 838.23 501.961 838.245 501.99C838.263 502.023 838.274 502.045 838.279 502.054C838.28 502.055 838.28 502.055 838.28 502.056L838.281 502.057L838.282 502.059L840.133 505.298L837.129 507.551C827.606 514.693 815.873 519.359 808.963 521.663L804.605 523.115L803.498 518.683C803.497 518.682 803.497 518.681 803.497 518.68C803.494 518.67 803.488 518.647 803.478 518.613C803.456 518.537 803.415 518.403 803.353 518.221C803.23 517.855 803.024 517.3 802.716 516.626C802.094 515.268 801.088 513.492 799.558 511.796C796.64 508.562 791.535 505.268 782.363 506.321C777.733 506.853 774.648 508.292 772.548 509.946C770.437 511.61 769.103 513.666 768.255 515.75C767.397 517.856 767.057 519.948 766.94 521.542C766.882 522.329 766.881 522.97 766.892 523.396C766.898 523.608 766.907 523.764 766.913 523.856C766.916 523.902 766.919 523.932 766.92 523.945L766.92 523.95L767.404 528.621H762.687C742.257 528.621 717.901 520.916 695.17 501.838C693.773 500.665 693.279 498.732 693.942 497.033C694.606 495.334 696.278 494.247 698.099 494.331C698.1 494.331 698.101 494.331 698.101 494.331L698.136 494.332C698.165 494.333 698.213 494.335 698.278 494.338C698.409 494.342 698.61 494.349 698.878 494.356C699.415 494.37 700.219 494.385 701.265 494.389C703.356 494.396 706.41 494.358 710.208 494.172C717.811 493.801 728.364 492.842 740.149 490.496C763.827 485.784 791.906 475.587 811.283 453.904L811.367 453.81L811.456 453.721C856.111 409.33 838.275 332.295 780.268 312.102C745.787 300.099 718.152 306.906 698.109 319.445C677.848 332.12 665.376 350.639 661.611 361.691C660.94 363.66 658.942 364.855 656.889 364.515C654.837 364.175 653.331 362.4 653.331 360.319C653.331 349.839 653.839 341.203 655.858 332.342C657.879 323.472 661.368 314.576 667.12 303.47L668.745 300.332L672.116 301.351L672.119 301.352L672.119 301.352L672.123 301.353L672.125 301.354L672.128 301.355C672.144 301.359 672.174 301.368 672.219 301.38C672.31 301.405 672.457 301.445 672.655 301.494C673.053 301.592 673.652 301.728 674.407 301.863C675.925 302.136 678.015 302.395 680.319 302.36C685.018 302.288 689.909 301.026 693.179 297.022C696.421 293.05 696.583 288.17 695.618 283.717C695.144 281.527 694.424 279.601 693.817 278.217C693.515 277.531 693.248 276.991 693.062 276.636C692.97 276.458 692.899 276.327 692.854 276.248C692.832 276.208 692.817 276.182 692.809 276.168C692.808 276.165 692.806 276.163 692.805 276.161C692.804 276.16 692.804 276.159 692.804 276.159L691.092 273.258L693.541 270.927C700.547 264.26 708.121 258.29 716.205 253.158L719.427 251.112L721.796 254.079L721.797 254.079L721.799 254.083C721.806 254.091 721.823 254.111 721.849 254.142C721.902 254.204 721.992 254.308 722.12 254.448C722.376 254.727 722.775 255.143 723.306 255.632C724.377 256.619 725.93 257.86 727.868 258.902C731.658 260.94 736.839 262.212 743.128 259.332C748.487 256.878 750.681 252.335 751.528 247.908C751.953 245.691 752.008 243.612 751.951 242.077C751.923 241.316 751.868 240.706 751.823 240.301C751.801 240.099 751.78 239.949 751.767 239.859C751.761 239.814 751.756 239.784 751.754 239.769C751.754 239.769 751.754 239.768 751.754 239.768C751.753 239.765 751.753 239.766 751.753 239.764C751.753 239.764 751.753 239.761 751.753 239.76C751.753 239.76 751.752 239.76 751.753 239.76L751.095 235.933L754.865 234.941C765.482 232.147 777.445 231.352 787.897 232.584L792.132 233.083L791.624 237.3L791.624 237.305L791.623 237.309C791.622 237.323 791.618 237.356 791.614 237.404C791.605 237.501 791.593 237.662 791.581 237.88C791.558 238.316 791.54 238.974 791.567 239.789C791.621 241.435 791.856 243.644 792.557 245.956C793.921 250.456 796.983 255.3 804.315 257.437C813.287 260.051 819.256 257.272 823.129 253.959C825.137 252.242 826.614 250.34 827.591 248.851C828.075 248.113 828.425 247.494 828.647 247.076C828.758 246.867 828.835 246.71 828.881 246.615C828.891 246.594 828.9 246.576 828.907 246.562C828.915 246.543 828.921 246.53 828.925 246.522C828.927 246.519 828.926 246.52 828.927 246.518C828.927 246.517 828.929 246.514 828.929 246.513C828.93 246.512 828.93 246.512 828.929 246.513L830.759 242.359L834.793 244.479C846.069 250.406 856.204 258.305 865.083 267.645L867.978 270.691L864.979 273.611L864.975 273.615L864.974 273.616C864.964 273.626 864.943 273.647 864.912 273.68C864.848 273.745 864.744 273.855 864.606 274.008C864.33 274.314 863.924 274.786 863.452 275.402C862.502 276.645 861.328 278.42 860.4 280.564C858.574 284.783 857.737 290.242 861.263 296.231C864.565 301.84 869.704 303.108 874.711 302.829C877.234 302.688 879.573 302.144 881.305 301.618C882.163 301.357 882.849 301.108 883.309 300.93C883.538 300.841 883.709 300.77 883.815 300.725C883.868 300.703 883.904 300.687 883.924 300.678L883.928 300.676L883.931 300.675Z" fill="#29ABE2"/>
<path d="M488.404 601.36V493.525L429.994 439.608L472.678 295.828L394.666 208.322L256.603 201.096C256.603 201.096 335.628 221.617 371.957 265.335C416.837 311.619 407.185 375.162 407.185 375.162L394.049 457.58L456.952 502.511L472.678 619.332L504.226 670.419V630.544L488.404 601.36Z" fill="#29ABE2"/>
<path fill-rule="evenodd" clip-rule="evenodd" d="M252.399 200.447C252.066 202.604 253.421 204.664 255.534 205.213L255.534 205.213L255.542 205.215L255.578 205.224C255.6 205.23 255.628 205.238 255.665 205.247L255.735 205.266C255.877 205.304 256.091 205.361 256.376 205.439C256.944 205.595 257.791 205.831 258.886 206.148C261.077 206.783 264.259 207.741 268.197 209.028C276.077 211.604 286.959 215.489 298.957 220.72C323.085 231.241 351.172 246.977 368.685 268.053L368.79 268.179L368.903 268.296C390.535 290.604 399.08 317.125 402.193 338.226C403.748 348.766 403.938 357.899 403.74 364.381C403.641 367.62 403.446 370.189 403.278 371.933C403.194 372.805 403.117 373.47 403.062 373.909C403.034 374.128 403.012 374.29 402.998 374.394C402.991 374.445 402.985 374.482 402.982 374.504L402.979 374.525L402.979 374.526L402.979 374.527L389.434 459.511L452.982 504.903L468.583 620.797L500.607 672.654C501.606 674.272 503.558 675.031 505.388 674.511C507.217 673.992 508.479 672.321 508.479 670.419V629.465L492.657 600.281V491.663L434.825 438.279L477.43 294.767L396.66 204.167L256.826 196.848C254.645 196.734 252.733 198.289 252.399 200.447ZM287.867 206.991L392.672 212.477L467.926 296.89L425.162 440.937L484.15 495.387V602.438L499.972 631.623V655.435L476.773 617.867L460.922 500.12L398.664 455.649L411.388 375.817L411.39 375.801L407.185 375.162C411.39 375.801 411.39 375.799 411.391 375.797L411.392 375.792L411.394 375.776L411.401 375.728C411.404 375.706 411.408 375.68 411.412 375.648C411.416 375.623 411.42 375.595 411.424 375.564C411.444 375.424 411.471 375.224 411.503 374.966C411.567 374.451 411.654 373.706 411.746 372.75C411.93 370.838 412.138 368.082 412.243 364.64C412.453 357.761 412.251 348.116 410.609 336.984C407.333 314.778 398.288 286.442 375.124 262.49C356.304 239.914 326.778 223.571 302.357 212.922C297.286 210.711 292.411 208.735 287.867 206.991Z" fill="#29ABE2"/>
<path d="M234.874 262.442C252.943 257.176 250.6 237.729 250.6 237.729C260.524 236.56 271.95 237.317 282.052 239.976C282.052 239.976 279.013 257.67 293.101 264.121C308.67 271.251 319.514 257.67 319.514 257.67C327.353 262.647 334.71 268.443 341.526 274.929C341.526 274.929 332.721 289.849 341.526 300.633C350.33 311.417 367.102 306.348 367.102 306.348C378.397 328.155 380.415 340.538 380.415 361.24C372.221 337.191 327.92 284.087 256.333 309.006C195.325 330.243 176.685 411.077 223.544 457.659C264.08 503.017 340.095 499.501 340.095 499.501C318.083 517.975 294.682 525.288 275.312 525.288C275.312 525.288 277.368 505.457 256.121 503.017C234.874 500.576 230.381 518.548 230.381 518.548C223.642 516.302 212.409 511.809 203.423 505.069C203.423 505.069 212.409 489.343 196.683 478.11C180.957 466.878 169.724 480.357 169.724 480.357C159.271 471.371 152.373 461.467 147.105 448.862C147.105 448.862 163.673 441.824 159.271 423.35C154.869 404.876 135.498 407.515 135.498 407.515C134.09 397.968 133.56 388.228 133.86 378.485C133.86 378.485 155.516 378.485 157.51 360.01C159.694 339.777 140.519 334.331 140.519 334.331C143.554 323.304 147.242 315.451 152.306 305.468C152.306 305.468 171.597 314.265 180.402 299.31C189.206 284.355 176 271.496 176 271.496C184.59 262.46 194.359 254.856 205.185 249.166C205.185 249.166 213.743 268.6 234.874 262.442Z" fill="#29ABE2"/>
<path fill-rule="evenodd" clip-rule="evenodd" d="M277.53 243.273C277.491 245.195 277.594 247.704 278.116 250.429C279.271 256.463 282.601 263.992 291.33 267.988C300.611 272.238 308.637 270.285 314.16 267.316C316.664 265.97 318.668 264.415 320.101 263.134C325.783 266.95 331.197 271.219 336.318 275.89C335.565 277.63 334.673 280.041 334.067 282.836C332.831 288.539 332.669 296.511 338.231 303.323C343.766 310.103 351.663 311.698 357.551 311.787C360.39 311.831 362.926 311.532 364.802 311.209C369.442 320.519 372.203 327.939 373.847 335.153C374.389 337.533 374.814 339.907 375.143 342.341C368.112 332.272 357.767 321.515 344.402 313.154C322.35 299.358 292.04 292.073 254.935 304.989C190.964 327.257 171.506 411.8 220.457 460.587C241.61 484.197 271.76 494.899 296.19 499.761C308.477 502.206 319.46 503.203 327.377 503.59C327.469 503.595 327.562 503.599 327.654 503.604C310.983 514.957 294.1 520.104 279.462 520.918C279.242 518.832 278.738 516.2 277.624 513.464C276.331 510.285 274.195 506.926 270.716 504.185C267.225 501.435 262.601 499.479 256.607 498.791C244.532 497.404 236.766 501.875 232.126 507.018C230.187 509.166 228.846 511.368 227.946 513.174C222.302 511.062 215.076 507.851 208.687 503.584C209.353 501.677 210.038 499.057 210.198 496.026C210.546 489.422 208.342 481.211 199.156 474.649C190.006 468.114 181.704 468.611 175.687 471.088C173.201 472.112 171.179 473.438 169.685 474.606C162.222 467.6 156.837 459.941 152.537 450.65C154.165 449.551 156.152 447.974 158.028 445.849C162.384 440.914 165.98 433.155 163.409 422.364C160.787 411.361 153.494 406.43 146.978 404.437C144.053 403.543 141.301 403.234 139.202 403.154C138.364 396.301 137.982 389.353 138.039 382.384C140.316 382.054 143.374 381.407 146.544 380.114C153.124 377.431 160.521 371.756 161.739 360.467C163.009 348.704 157.98 340.982 152.609 336.359C150.148 334.242 147.64 332.785 145.678 331.833C148.038 324.189 150.82 317.971 154.417 310.738C156.563 311.377 159.518 312.06 162.816 312.244C169.656 312.625 178.565 310.814 184.068 301.468C189.346 292.501 187.982 284.054 185.406 278.105C184.274 275.49 182.901 273.324 181.732 271.726C188.381 265.156 195.692 259.478 203.602 254.898C204.891 256.792 206.779 259.154 209.341 261.346C215.03 266.21 223.906 270.069 236.065 266.525C246.802 263.396 251.602 255.884 253.584 249.345C254.467 246.432 254.802 243.707 254.91 241.61C262.211 241.143 270.144 241.7 277.53 243.273ZM154.068 301.596L154.066 301.595L154.062 301.594L154.06 301.593L150.359 299.905L148.513 303.544C143.408 313.607 139.568 321.76 136.418 333.202L135.299 337.27L139.339 338.418L139.345 338.419L139.346 338.42C139.36 338.424 139.39 338.433 139.436 338.448C139.529 338.478 139.683 338.529 139.89 338.604C140.305 338.754 140.925 338.998 141.676 339.35C143.19 340.059 145.166 341.178 147.059 342.807C150.73 345.966 154.196 351.083 153.281 359.554C152.505 366.739 148.078 370.301 143.331 372.237C140.919 373.22 138.514 373.727 136.686 373.983C135.78 374.11 135.039 374.172 134.538 374.203C134.288 374.218 134.1 374.225 133.984 374.228C133.926 374.23 133.885 374.23 133.864 374.231L133.861 374.231H133.855H133.85H129.736L129.609 378.354C129.302 388.337 129.844 398.329 131.291 408.136L131.905 412.298L136.055 411.732L136.061 411.732L136.063 411.731C136.077 411.73 136.109 411.726 136.156 411.721C136.251 411.711 136.41 411.696 136.624 411.682C137.054 411.653 137.701 411.627 138.501 411.644C140.118 411.68 142.268 411.893 144.49 412.573C148.76 413.879 153.353 416.866 155.133 424.336C156.964 432.019 154.478 437.016 151.65 440.219C150.181 441.883 148.579 443.094 147.335 443.889C146.718 444.283 146.205 444.565 145.864 444.741C145.693 444.828 145.567 444.889 145.493 444.923C145.459 444.939 145.436 444.949 145.426 444.954C145.426 444.954 145.425 444.954 145.424 444.955C145.42 444.957 145.419 444.957 145.422 444.956L141.55 446.6L143.181 450.502C148.684 463.67 155.958 474.132 166.952 483.583L170.227 486.398L172.976 483.099C172.976 483.099 172.977 483.099 172.977 483.099C172.977 483.098 172.978 483.097 172.979 483.096C172.986 483.088 173 483.072 173.021 483.049C173.07 482.994 173.159 482.897 173.284 482.769C173.536 482.51 173.932 482.127 174.457 481.687C175.52 480.796 177.046 479.729 178.926 478.955C182.458 477.501 187.635 476.875 194.211 481.572C200.75 486.243 201.917 491.511 201.702 495.579C201.59 497.721 201.077 499.617 200.581 500.99C200.336 501.669 200.101 502.199 199.937 502.544C199.888 502.647 199.846 502.732 199.812 502.799C199.789 502.845 199.77 502.882 199.755 502.911C199.737 502.945 199.725 502.966 199.72 502.975C199.72 502.976 199.72 502.976 199.719 502.977L199.718 502.978L199.717 502.98L197.867 506.219L200.871 508.472C210.393 515.614 222.127 520.281 229.036 522.584L233.394 524.036L234.502 519.604C234.502 519.603 234.503 519.602 234.503 519.601C234.506 519.591 234.512 519.568 234.522 519.535C234.544 519.458 234.584 519.324 234.646 519.142C234.77 518.776 234.976 518.222 235.284 517.548C235.905 516.189 236.912 514.413 238.442 512.717C241.36 509.483 246.464 506.189 255.636 507.243C260.266 507.774 263.352 509.213 265.451 510.867C267.563 512.531 268.897 514.588 269.745 516.671C270.602 518.777 270.943 520.869 271.06 522.463C271.117 523.251 271.119 523.891 271.107 524.317C271.102 524.529 271.093 524.685 271.087 524.778C271.083 524.824 271.081 524.853 271.08 524.866L271.079 524.871L270.595 529.542H275.313C295.742 529.542 320.099 521.837 342.829 502.759C344.227 501.586 344.721 499.653 344.057 497.954C343.394 496.255 341.722 495.168 339.9 495.252C339.9 495.252 339.899 495.252 339.898 495.252L339.864 495.253C339.834 495.255 339.787 495.257 339.721 495.259C339.591 495.264 339.389 495.27 339.121 495.277C338.585 495.291 337.78 495.306 336.735 495.31C334.643 495.317 331.59 495.279 327.792 495.093C320.189 494.722 309.635 493.763 297.851 491.417C274.172 486.705 246.094 476.508 226.716 454.825L226.633 454.731L226.544 454.643C181.889 410.251 199.725 333.216 257.732 313.024C292.213 301.021 319.848 307.828 339.891 320.366C360.152 333.041 372.623 351.56 376.388 362.612C377.06 364.582 379.057 365.777 381.11 365.437C383.163 365.096 384.668 363.321 384.668 361.24C384.668 350.76 384.161 342.125 382.142 333.263C380.12 324.393 376.632 315.498 370.879 304.391L369.254 301.253L365.883 302.272L365.881 302.273L365.88 302.273L365.877 302.274L365.874 302.275L365.871 302.276C365.856 302.28 365.825 302.289 365.78 302.302C365.69 302.326 365.543 302.366 365.344 302.415C364.946 302.513 364.347 302.649 363.593 302.784C362.074 303.057 359.984 303.316 357.681 303.281C352.981 303.21 348.09 301.947 344.821 297.943C341.578 293.971 341.416 289.091 342.381 284.638C342.856 282.448 343.575 280.522 344.183 279.138C344.484 278.452 344.752 277.913 344.937 277.557C345.03 277.379 345.101 277.249 345.145 277.169C345.167 277.13 345.183 277.103 345.19 277.09C345.192 277.087 345.193 277.084 345.194 277.083C345.195 277.081 345.196 277.08 345.196 277.08L346.908 274.179L344.458 271.848C337.453 265.181 329.878 259.212 321.794 254.079L318.572 252.033L316.203 255L316.203 255.001L316.2 255.004C316.193 255.012 316.177 255.032 316.151 255.063C316.098 255.125 316.007 255.229 315.879 255.369C315.624 255.649 315.224 256.064 314.693 256.554C313.623 257.541 312.069 258.781 310.132 259.823C306.341 261.861 301.16 263.133 294.872 260.254C289.513 257.8 287.319 253.256 286.472 248.83C286.047 246.612 285.992 244.533 286.048 242.998C286.076 242.237 286.131 241.627 286.176 241.222C286.199 241.02 286.219 240.871 286.232 240.78C286.239 240.735 286.243 240.705 286.245 240.691C286.246 240.69 286.246 240.69 286.246 240.689C286.246 240.686 286.246 240.687 286.246 240.685C286.246 240.685 286.247 240.682 286.247 240.681C286.247 240.681 286.247 240.681 286.247 240.681L286.904 236.855L283.135 235.862C272.517 233.068 260.555 232.273 250.103 233.505L245.867 234.004L246.375 238.221L246.376 238.226L246.376 238.23C246.378 238.245 246.381 238.277 246.385 238.325C246.394 238.422 246.407 238.583 246.418 238.801C246.441 239.238 246.46 239.895 246.433 240.71C246.379 242.356 246.143 244.565 245.443 246.877C244.079 251.377 241.016 256.221 233.685 258.358C224.712 260.972 218.744 258.193 214.87 254.88C212.863 253.163 211.386 251.261 210.409 249.772C209.924 249.034 209.574 248.415 209.352 247.997C209.242 247.788 209.164 247.631 209.119 247.536C209.108 247.515 209.1 247.498 209.093 247.483C209.084 247.464 209.078 247.451 209.074 247.443C209.073 247.44 209.073 247.441 209.073 247.439C209.072 247.439 209.071 247.435 209.07 247.434C209.07 247.433 209.07 247.433 209.07 247.434L207.241 243.28L203.206 245.401C191.93 251.327 181.795 259.226 172.917 268.566L170.021 271.612L173.02 274.532L173.024 274.536L173.026 274.538C173.035 274.547 173.056 274.568 173.088 274.601C173.151 274.666 173.256 274.777 173.393 274.929C173.67 275.235 174.076 275.707 174.547 276.323C175.498 277.566 176.671 279.341 177.599 281.485C179.426 285.704 180.262 291.163 176.737 297.152C173.434 302.761 168.296 304.029 163.289 303.75C160.765 303.609 158.426 303.065 156.694 302.539C155.837 302.278 155.15 302.029 154.691 301.851C154.462 301.762 154.291 301.691 154.185 301.646C154.132 301.624 154.095 301.608 154.076 301.6L154.071 301.598L154.068 301.596Z" fill="#29ABE2"/>
<path d="M580.192 415.479C580.192 420.032 576.501 423.723 571.947 423.723C567.394 423.723 563.703 420.032 563.703 415.479C563.703 410.926 567.394 407.235 571.947 407.235C576.501 407.235 580.192 410.926 580.192 415.479Z" fill="#29ABE2"/>
<path fill-rule="evenodd" clip-rule="evenodd" d="M571.709 415.374C571.69 415.417 571.684 415.459 571.684 415.479C571.684 415.5 571.69 415.541 571.709 415.584C571.724 415.622 571.744 415.648 571.761 415.665C571.779 415.683 571.805 415.702 571.842 415.718C571.886 415.736 571.927 415.742 571.947 415.742C571.968 415.742 572.009 415.736 572.052 415.718C572.09 415.702 572.116 415.683 572.133 415.665C572.151 415.648 572.17 415.622 572.186 415.584C572.205 415.541 572.21 415.5 572.21 415.479C572.21 415.459 572.205 415.417 572.186 415.374C572.17 415.337 572.151 415.311 572.133 415.293C572.116 415.276 572.09 415.256 572.052 415.24C572.009 415.222 571.968 415.216 571.947 415.216C571.927 415.216 571.886 415.222 571.842 415.24C571.805 415.256 571.779 415.276 571.761 415.293C571.744 415.311 571.724 415.337 571.709 415.374ZM571.947 423.723C576.501 423.723 580.192 420.032 580.192 415.479C580.192 410.926 576.501 407.235 571.947 407.235C567.394 407.235 563.703 410.926 563.703 415.479C563.703 420.032 567.394 423.723 571.947 423.723Z" fill="#29ABE2"/>
<path d="M249.5 744.062H268.062C278.229 744.062 285.458 744.979 289.75 746.812C294.083 748.604 297.562 751.604 300.188 755.812C302.812 760.021 304.125 765 304.125 770.75C304.125 776.792 302.667 781.854 299.75 785.938C296.875 789.979 292.521 793.042 286.688 795.125L308.438 836H289.312L268.625 797.062H267V836H249.5V744.062ZM267 780H272.5C278.083 780 281.917 779.271 284 777.812C286.125 776.354 287.188 773.938 287.188 770.562C287.188 768.562 286.667 766.833 285.625 765.375C284.583 763.875 283.188 762.812 281.438 762.188C279.688 761.521 276.479 761.188 271.812 761.188H267V780ZM350.562 744.062H368.312L403.688 836H385.5L378.312 817.062H340.812L333.312 836H315.125L350.562 744.062ZM359.562 768.438L347.312 800H371.75L359.562 768.438ZM426.188 744.062H443.312L464.562 808.188L486.125 744.062H503L518.5 836H501.625L491.75 777.938L472.188 836H456.75L437.438 777.938L427.375 836H410.312L426.188 744.062ZM523.75 818.875L531.562 814.188C537.062 824.312 543.417 829.375 550.625 829.375C553.708 829.375 556.604 828.667 559.312 827.25C562.021 825.792 564.083 823.854 565.5 821.438C566.917 819.021 567.625 816.458 567.625 813.75C567.625 810.667 566.583 807.646 564.5 804.688C561.625 800.604 556.375 795.688 548.75 789.938C541.083 784.146 536.312 779.958 534.438 777.375C531.188 773.042 529.562 768.354 529.562 763.312C529.562 759.312 530.521 755.667 532.438 752.375C534.354 749.083 537.042 746.5 540.5 744.625C544 742.708 547.792 741.75 551.875 741.75C556.208 741.75 560.25 742.833 564 745C567.792 747.125 571.792 751.062 576 756.812L568.5 762.5C565.042 757.917 562.083 754.896 559.625 753.438C557.208 751.979 554.562 751.25 551.688 751.25C547.979 751.25 544.938 752.375 542.562 754.625C540.229 756.875 539.062 759.646 539.062 762.938C539.062 764.938 539.479 766.875 540.312 768.75C541.146 770.625 542.667 772.667 544.875 774.875C546.083 776.042 550.042 779.104 556.75 784.062C564.708 789.938 570.167 795.167 573.125 799.75C576.083 804.333 577.562 808.938 577.562 813.562C577.562 820.229 575.021 826.021 569.938 830.938C564.896 835.854 558.75 838.312 551.5 838.312C545.917 838.312 540.854 836.833 536.312 833.875C531.771 830.875 527.583 825.875 523.75 818.875ZM640.812 741.75C654.729 741.75 666.375 746.396 675.75 755.688C685.125 764.979 689.812 776.417 689.812 790C689.812 803.458 685.125 814.875 675.75 824.25C666.417 833.625 655.021 838.312 641.562 838.312C627.938 838.312 616.438 833.646 607.062 824.312C597.688 814.979 593 803.688 593 790.438C593 781.604 595.125 773.417 599.375 765.875C603.667 758.333 609.5 752.438 616.875 748.188C624.25 743.896 632.229 741.75 640.812 741.75ZM641.25 750.75C634.458 750.75 628.021 752.521 621.938 756.062C615.854 759.604 611.104 764.375 607.688 770.375C604.271 776.375 602.562 783.062 602.562 790.438C602.562 801.354 606.333 810.583 613.875 818.125C621.458 825.625 630.583 829.375 641.25 829.375C648.375 829.375 654.958 827.646 661 824.188C667.083 820.729 671.812 816 675.188 810C678.604 804 680.312 797.333 680.312 790C680.312 782.708 678.604 776.125 675.188 770.25C671.812 764.333 667.042 759.604 660.875 756.062C654.708 752.521 648.167 750.75 641.25 750.75ZM793.875 761.125L786.625 766.688C782.625 761.479 777.812 757.542 772.188 754.875C766.604 752.167 760.458 750.812 753.75 750.812C746.417 750.812 739.625 752.583 733.375 756.125C727.125 759.625 722.271 764.354 718.812 770.312C715.396 776.229 713.688 782.896 713.688 790.312C713.688 801.521 717.521 810.875 725.188 818.375C732.896 825.875 742.604 829.625 754.312 829.625C767.188 829.625 777.958 824.583 786.625 814.5L793.875 820C789.292 825.833 783.562 830.354 776.688 833.562C769.854 836.729 762.208 838.312 753.75 838.312C737.667 838.312 724.979 832.958 715.688 822.25C707.896 813.208 704 802.292 704 789.5C704 776.042 708.708 764.729 718.125 755.562C727.583 746.354 739.417 741.75 753.625 741.75C762.208 741.75 769.958 743.458 776.875 746.875C783.792 750.25 789.458 755 793.875 761.125Z" fill="#29ABE2"/>
</svg>
