<svg xmlns="http://www.w3.org/2000/svg" fill="none" viewBox="62.39 51.85 404.82 313.24">
<path fill-rule="evenodd" clip-rule="evenodd" d="M252.125 256.622L265.481 244.818V214.577H261.383V242.972L252.125 251.154V194.016H248.027V250.945L239.63 243.012V216.741H235.533V244.778L248.027 256.582V301.268H252.125V256.622Z" fill="#215568"/>
<path d="M241.553 214.22C241.553 216.413 239.775 218.191 237.582 218.191C235.389 218.191 233.611 216.413 233.611 214.22C233.611 212.026 235.389 210.249 237.582 210.249C239.775 210.249 241.553 212.026 241.553 214.22Z" fill="#215568"/>
<path fill-rule="evenodd" clip-rule="evenodd" d="M237.467 214.169C237.458 214.19 237.455 214.21 237.455 214.22C237.455 214.23 237.458 214.249 237.467 214.27C237.475 214.289 237.484 214.301 237.492 214.309C237.501 214.318 237.513 214.327 237.531 214.335C237.552 214.343 237.572 214.346 237.582 214.346C237.592 214.346 237.612 214.343 237.633 214.335C237.65 214.327 237.663 214.318 237.672 214.309C237.68 214.301 237.689 214.289 237.697 214.27C237.706 214.249 237.709 214.23 237.709 214.22C237.709 214.21 237.706 214.19 237.697 214.169C237.689 214.151 237.68 214.139 237.672 214.13C237.663 214.121 237.65 214.112 237.633 214.104C237.612 214.096 237.592 214.093 237.582 214.093C237.572 214.093 237.552 214.096 237.531 214.104C237.513 214.112 237.501 214.121 237.492 214.13C237.484 214.139 237.475 214.151 237.467 214.169ZM237.582 218.191C239.775 218.191 241.553 216.413 241.553 214.22C241.553 212.026 239.775 210.249 237.582 210.249C235.389 210.249 233.611 212.026 233.611 214.22C233.611 216.413 235.389 218.191 237.582 218.191Z" fill="#215568"/>
<path d="M254.04 192.964C254.04 195.158 252.262 196.935 250.069 196.935C247.875 196.935 246.097 195.158 246.097 192.964C246.097 190.771 247.875 188.993 250.069 188.993C252.262 188.993 254.04 190.771 254.04 192.964Z" fill="#215568"/>
<path fill-rule="evenodd" clip-rule="evenodd" d="M249.953 192.914C249.945 192.935 249.942 192.954 249.942 192.964C249.942 192.974 249.945 192.994 249.953 193.015C249.961 193.033 249.97 193.045 249.979 193.054C249.987 193.062 250 193.072 250.018 193.08C250.039 193.088 250.058 193.091 250.069 193.091C250.078 193.091 250.098 193.088 250.119 193.08C250.137 193.072 250.149 193.062 250.158 193.054C250.166 193.045 250.176 193.033 250.184 193.015C250.192 192.994 250.195 192.974 250.195 192.964C250.195 192.954 250.192 192.935 250.184 192.914C250.176 192.896 250.166 192.883 250.158 192.875C250.149 192.866 250.137 192.857 250.119 192.849C250.098 192.841 250.078 192.838 250.069 192.838C250.058 192.838 250.039 192.841 250.018 192.849C250 192.857 249.987 192.866 249.979 192.875C249.97 192.883 249.961 192.896 249.953 192.914ZM250.069 196.935C252.262 196.935 254.04 195.158 254.04 192.964C254.04 190.771 252.262 188.993 250.069 188.993C247.875 188.993 246.097 190.771 246.097 192.964C246.097 195.158 247.875 196.935 250.069 196.935Z" fill="#215568"/>
<path d="M267.403 214.22C267.403 216.413 265.625 218.191 263.432 218.191C261.239 218.191 259.461 216.413 259.461 214.22C259.461 212.026 261.239 210.249 263.432 210.249C265.625 210.249 267.403 212.026 267.403 214.22Z" fill="#215568"/>
<path fill-rule="evenodd" clip-rule="evenodd" d="M263.317 214.169C263.308 214.19 263.305 214.21 263.305 214.22C263.305 214.23 263.308 214.249 263.317 214.27C263.325 214.289 263.334 214.301 263.342 214.309C263.351 214.318 263.363 214.327 263.381 214.335C263.402 214.343 263.422 214.346 263.432 214.346C263.442 214.346 263.462 214.343 263.483 214.335C263.5 214.327 263.513 214.318 263.522 214.309C263.53 214.301 263.539 214.289 263.547 214.27C263.556 214.249 263.559 214.23 263.559 214.22C263.559 214.21 263.556 214.19 263.547 214.169C263.539 214.151 263.53 214.139 263.522 214.13C263.513 214.121 263.5 214.112 263.483 214.104C263.462 214.096 263.442 214.093 263.432 214.093C263.422 214.093 263.402 214.096 263.381 214.104C263.363 214.112 263.351 214.121 263.342 214.13C263.334 214.139 263.325 214.151 263.317 214.169ZM263.432 218.191C265.625 218.191 267.403 216.413 267.403 214.22C267.403 212.026 265.625 210.249 263.432 210.249C261.239 210.249 259.461 212.026 259.461 214.22C259.461 216.413 261.239 218.191 263.432 218.191Z" fill="#215568"/>
<path d="M253.951 301.268C253.951 303.461 252.173 305.24 249.98 305.24C247.787 305.24 246.009 303.461 246.009 301.268C246.009 299.075 247.787 297.297 249.98 297.297C252.173 297.297 253.951 299.075 253.951 301.268Z" fill="#215568"/>
<path fill-rule="evenodd" clip-rule="evenodd" d="M249.865 301.218C249.856 301.239 249.853 301.259 249.853 301.268C249.853 301.278 249.856 301.298 249.865 301.319C249.872 301.337 249.882 301.35 249.89 301.358C249.899 301.367 249.911 301.376 249.929 301.383C249.95 301.392 249.97 301.395 249.98 301.395C249.99 301.395 250.01 301.392 250.03 301.383C250.049 301.376 250.061 301.367 250.069 301.358C250.078 301.35 250.087 301.337 250.095 301.319C250.104 301.298 250.107 301.278 250.107 301.268C250.107 301.259 250.104 301.239 250.095 301.218C250.087 301.2 250.078 301.187 250.069 301.179C250.061 301.171 250.049 301.161 250.03 301.153C250.01 301.145 249.99 301.142 249.98 301.142C249.97 301.142 249.95 301.145 249.929 301.153C249.911 301.161 249.899 301.171 249.89 301.179C249.882 301.187 249.872 301.2 249.865 301.218ZM249.98 305.24C252.173 305.24 253.951 303.461 253.951 301.268C253.951 299.075 252.173 297.297 249.98 297.297C247.787 297.297 246.009 299.075 246.009 301.268C246.009 303.461 247.787 305.24 249.98 305.24Z" fill="#215568"/>
<path d="M264.738 329.777V277.834L292.874 251.862L272.313 182.604L309.891 140.452L376.395 136.972C376.395 136.972 338.329 146.857 320.83 167.915C299.212 190.21 303.861 220.819 303.861 220.819L310.188 260.519L279.888 282.162L272.313 338.434L257.116 363.043V343.835L264.738 329.777Z" fill="#215568"/>
<path fill-rule="evenodd" clip-rule="evenodd" d="M378.42 136.659C378.581 137.698 377.928 138.691 376.91 138.955L376.907 138.956L376.889 138.96C376.879 138.963 376.865 138.967 376.847 138.972L376.814 138.981C376.745 138.999 376.642 139.026 376.505 139.064C376.231 139.139 375.823 139.253 375.296 139.406C374.24 139.711 372.708 140.173 370.811 140.793C367.015 142.033 361.773 143.905 355.994 146.425C344.371 151.493 330.842 159.073 322.406 169.225L322.355 169.285L322.301 169.342C311.881 180.088 307.765 192.863 306.265 203.027C305.516 208.104 305.425 212.503 305.52 215.626C305.568 217.185 305.662 218.423 305.743 219.263C305.783 219.684 305.82 220.004 305.847 220.215C305.86 220.32 305.871 220.399 305.878 220.448C305.881 220.473 305.884 220.491 305.885 220.502L305.887 220.512V220.513V220.513L312.411 261.449L281.801 283.314L274.286 339.14L258.86 364.119C258.379 364.899 257.438 365.264 256.557 365.014C255.676 364.763 255.068 363.959 255.068 363.043V343.315L262.689 329.257V276.936L290.547 251.222L270.024 182.093L308.931 138.451L376.288 134.926C377.339 134.87 378.26 135.62 378.42 136.659ZM361.336 139.812L310.852 142.454L274.602 183.116L295.201 252.502L266.787 278.731V330.297L259.166 344.355V355.825L270.341 337.729L277.976 281.01L307.965 259.589L301.836 221.134L301.835 221.127L303.861 220.819C301.835 221.127 301.835 221.126 301.835 221.125L301.834 221.122L301.833 221.115L301.83 221.091C301.828 221.081 301.827 221.068 301.825 221.053C301.823 221.041 301.821 221.027 301.819 221.012C301.809 220.945 301.796 220.849 301.781 220.724C301.75 220.476 301.708 220.118 301.664 219.657C301.575 218.736 301.475 217.408 301.424 215.75C301.323 212.437 301.42 207.79 302.211 202.429C303.789 191.732 308.146 178.082 319.304 166.545C328.37 155.67 342.592 147.798 354.356 142.669C356.799 141.603 359.147 140.652 361.336 139.812Z" fill="#215568"/>
<path fill-rule="evenodd" clip-rule="evenodd" d="M222.467 240.495V252.28L233.238 262.019V277.044H237.336V260.2L226.565 250.46V240.495H222.467Z" fill="#215568"/>
<path d="M220.545 239.514C220.545 241.707 222.323 243.485 224.516 243.485C226.71 243.485 228.488 241.707 228.488 239.514C228.488 237.32 226.71 235.542 224.516 235.542C222.323 235.542 220.545 237.32 220.545 239.514Z" fill="#215568"/>
<path fill-rule="evenodd" clip-rule="evenodd" d="M224.631 239.463C224.64 239.484 224.643 239.504 224.643 239.514C224.643 239.524 224.64 239.543 224.631 239.565C224.624 239.582 224.614 239.595 224.606 239.604C224.597 239.612 224.585 239.621 224.567 239.629C224.546 239.638 224.526 239.641 224.516 239.641C224.506 239.641 224.487 239.638 224.466 239.629C224.448 239.621 224.435 239.612 224.427 239.604C224.418 239.595 224.409 239.582 224.401 239.565C224.392 239.543 224.39 239.524 224.39 239.514C224.39 239.504 224.392 239.484 224.401 239.463C224.409 239.445 224.418 239.433 224.427 239.424C224.435 239.416 224.448 239.407 224.466 239.399C224.487 239.39 224.506 239.387 224.516 239.387C224.526 239.387 224.546 239.39 224.567 239.399C224.585 239.407 224.597 239.416 224.606 239.424C224.614 239.433 224.624 239.445 224.631 239.463ZM224.516 243.485C222.323 243.485 220.545 241.707 220.545 239.514C220.545 237.32 222.323 235.542 224.516 235.542C226.71 235.542 228.488 237.32 228.488 239.514C228.488 241.707 226.71 243.485 224.516 243.485Z" fill="#215568"/>
<path fill-rule="evenodd" clip-rule="evenodd" d="M277.554 240.495V252.28L266.783 262.019V277.044H262.685V260.2L273.456 250.46V240.495H277.554Z" fill="#215568"/>
<path d="M386.862 166.03C378.158 163.494 379.287 154.126 379.287 154.126C374.507 153.563 369.003 153.928 364.137 155.209C364.137 155.209 365.6 163.732 358.815 166.839C351.315 170.273 346.091 163.732 346.091 163.732C342.315 166.129 338.771 168.921 335.489 172.045C335.489 172.045 339.729 179.232 335.489 184.427C331.247 189.621 323.169 187.179 323.169 187.179C317.727 197.684 316.756 203.648 316.756 213.621C320.702 202.037 342.042 176.457 376.526 188.46C405.913 198.69 414.891 237.627 392.319 260.066C372.794 281.914 336.178 280.221 336.178 280.221C346.78 289.119 358.053 292.642 367.383 292.642C367.383 292.642 366.393 283.09 376.627 281.914C386.862 280.738 389.026 289.395 389.026 289.395C392.273 288.314 397.684 286.149 402.012 282.903C402.012 282.903 397.684 275.328 405.259 269.917C412.833 264.506 418.244 270.999 418.244 270.999C423.28 266.671 426.603 261.9 429.14 255.828C429.14 255.828 421.159 252.438 423.28 243.539C425.4 234.64 434.731 235.911 434.731 235.911C435.409 231.313 435.664 226.621 435.52 221.927C435.52 221.927 425.089 221.927 424.128 213.028C423.076 203.282 432.312 200.659 432.312 200.659C430.85 195.347 429.074 191.565 426.635 186.756C426.635 186.756 417.342 190.993 413.101 183.79C408.86 176.585 415.222 170.392 415.222 170.392C411.084 166.039 406.378 162.376 401.163 159.635C401.163 159.635 397.041 168.996 386.862 166.03Z" fill="#215568"/>
<path fill-rule="evenodd" clip-rule="evenodd" d="M366.315 156.796C366.334 157.723 366.284 158.931 366.033 160.244C365.477 163.15 363.873 166.776 359.668 168.702C355.198 170.749 351.332 169.808 348.671 168.378C347.465 167.729 346.499 166.981 345.809 166.364C343.072 168.201 340.464 170.258 337.997 172.508C338.36 173.346 338.79 174.508 339.082 175.854C339.677 178.601 339.755 182.441 337.076 185.723C334.41 188.988 330.606 189.757 327.769 189.8C326.402 189.821 325.18 189.677 324.277 189.521C322.042 194.006 320.712 197.58 319.92 201.055C319.659 202.201 319.454 203.345 319.295 204.517C322.682 199.667 327.665 194.485 334.103 190.458C344.726 183.813 359.326 180.303 377.2 186.525C408.014 197.251 417.386 237.975 393.807 261.476C383.618 272.848 369.095 278.003 357.327 280.346C351.409 281.524 346.118 282.004 342.305 282.19C342.26 282.193 342.215 282.195 342.171 282.197C350.201 287.665 358.334 290.145 365.385 290.537C365.491 289.532 365.734 288.264 366.27 286.947C366.893 285.415 367.922 283.797 369.597 282.477C371.279 281.152 373.507 280.21 376.394 279.879C382.211 279.211 385.951 281.364 388.187 283.842C389.12 284.876 389.766 285.937 390.2 286.807C392.919 285.789 396.399 284.243 399.477 282.187C399.156 281.269 398.826 280.007 398.749 278.547C398.582 275.366 399.643 271.41 404.068 268.25C408.476 265.101 412.475 265.341 415.373 266.534C416.57 267.027 417.544 267.666 418.264 268.229C421.859 264.854 424.452 261.165 426.524 256.689C425.74 256.16 424.783 255.4 423.879 254.377C421.781 252 420.048 248.262 421.287 243.064C422.55 237.764 426.063 235.389 429.201 234.429C430.61 233.998 431.936 233.849 432.947 233.811C433.351 230.51 433.535 227.163 433.508 223.806C432.411 223.647 430.938 223.335 429.411 222.712C426.241 221.42 422.678 218.686 422.091 213.249C421.479 207.582 423.902 203.863 426.49 201.636C427.675 200.616 428.883 199.914 429.828 199.456C428.691 195.774 427.351 192.778 425.618 189.294C424.584 189.602 423.162 189.931 421.573 190.02C418.278 190.203 413.986 189.331 411.336 184.829C408.793 180.51 409.451 176.441 410.691 173.575C411.236 172.316 411.898 171.272 412.461 170.502C409.258 167.337 405.736 164.603 401.926 162.396C401.306 163.309 400.396 164.447 399.162 165.502C396.422 167.845 392.146 169.704 386.289 167.997C381.117 166.49 378.805 162.871 377.85 159.721C377.425 158.318 377.264 157.006 377.212 155.995C373.694 155.771 369.873 156.039 366.315 156.796ZM425.786 184.891L425.788 184.89L425.789 184.889H425.79L427.573 184.076L428.463 185.829C430.922 190.676 432.771 194.604 434.288 200.115L434.828 202.075L432.882 202.627L432.879 202.628L432.878 202.629C432.872 202.631 432.857 202.635 432.834 202.642C432.79 202.657 432.715 202.681 432.616 202.717C432.416 202.789 432.117 202.907 431.756 203.077C431.027 203.418 430.075 203.957 429.162 204.742C427.395 206.263 425.725 208.728 426.165 212.809C426.539 216.27 428.672 217.986 430.958 218.918C432.12 219.392 433.279 219.636 434.16 219.759C434.596 219.82 434.953 219.85 435.194 219.865C435.314 219.872 435.405 219.876 435.461 219.877C435.489 219.878 435.508 219.878 435.518 219.879H435.52H435.523H435.525H437.507L437.568 221.865C437.716 226.673 437.455 231.487 436.758 236.21L436.463 238.215L434.464 237.943H434.461L434.459 237.942C434.452 237.942 434.438 237.94 434.414 237.937C434.369 237.933 434.293 237.925 434.189 237.919C433.982 237.905 433.67 237.892 433.285 237.9C432.506 237.917 431.47 238.02 430.4 238.347C428.344 238.976 426.131 240.415 425.273 244.014C424.391 247.715 425.589 250.122 426.951 251.665C427.659 252.466 428.43 253.05 429.03 253.433C429.327 253.622 429.574 253.758 429.739 253.843C429.82 253.885 429.882 253.914 429.917 253.931C429.934 253.938 429.944 253.943 429.949 253.946C429.95 253.946 429.95 253.946 429.95 253.946C429.952 253.947 429.952 253.947 429.951 253.947L431.816 254.738L431.031 256.618C428.38 262.961 424.876 268 419.581 272.553L418.003 273.909L416.678 272.32C416.678 272.319 416.677 272.319 416.677 272.318C416.674 272.315 416.667 272.307 416.657 272.296C416.633 272.269 416.591 272.223 416.53 272.161C416.409 272.036 416.218 271.852 415.965 271.64C415.453 271.211 414.718 270.697 413.812 270.324C412.111 269.623 409.618 269.322 406.45 271.584C403.3 273.834 402.738 276.372 402.841 278.331C402.896 279.363 403.142 280.276 403.381 280.938C403.5 281.265 403.612 281.52 403.691 281.686C403.715 281.736 403.735 281.777 403.752 281.809C403.763 281.831 403.772 281.849 403.78 281.863C403.788 281.88 403.794 281.89 403.796 281.894C403.796 281.894 403.796 281.894 403.796 281.895L403.797 281.895L403.797 281.896L404.689 283.457L403.242 284.542C398.655 287.982 393.003 290.23 389.675 291.34L387.575 292.039L387.042 289.904C387.042 289.904 387.042 289.903 387.042 289.903C387.04 289.898 387.037 289.887 387.032 289.871C387.022 289.834 387.002 289.769 386.972 289.682C386.913 289.505 386.814 289.238 386.665 288.914C386.366 288.259 385.881 287.404 385.144 286.587C383.739 285.029 381.28 283.442 376.861 283.949C374.631 284.206 373.145 284.899 372.134 285.696C371.117 286.497 370.474 287.487 370.066 288.491C369.652 289.506 369.489 290.513 369.432 291.281C369.404 291.66 369.404 291.969 369.409 292.174C369.412 292.276 369.416 292.352 369.419 292.396C369.421 292.418 369.422 292.433 369.423 292.439V292.441L369.656 294.691H367.384C357.543 294.691 345.81 290.98 334.861 281.79C334.188 281.225 333.95 280.294 334.269 279.475C334.589 278.657 335.395 278.133 336.272 278.174C336.272 278.174 336.272 278.174 336.273 278.174L336.289 278.174C336.304 278.175 336.327 278.176 336.358 278.177C336.421 278.18 336.518 278.183 336.647 278.186C336.906 278.193 337.293 278.2 337.797 278.202C338.804 278.205 340.275 278.187 342.105 278.097C345.767 277.919 350.85 277.457 356.527 276.327C367.933 274.057 381.458 269.145 390.792 258.7L390.833 258.655L390.875 258.613C412.386 237.229 403.794 200.122 375.852 190.395C359.243 184.613 345.931 187.893 336.277 193.932C326.517 200.038 320.509 208.958 318.696 214.282C318.373 215.23 317.41 215.806 316.421 215.642C315.433 215.478 314.707 214.623 314.707 213.621C314.707 208.573 314.952 204.413 315.925 200.145C316.898 195.872 318.579 191.587 321.349 186.237L322.132 184.725L323.756 185.216L323.757 185.217L323.759 185.217L323.76 185.218L323.762 185.218C323.769 185.22 323.784 185.224 323.806 185.23C323.849 185.242 323.92 185.262 324.016 185.285C324.207 185.332 324.496 185.398 324.859 185.463C325.591 185.594 326.597 185.719 327.707 185.702C329.971 185.668 332.327 185.06 333.902 183.131C335.464 181.218 335.542 178.867 335.077 176.722C334.848 175.667 334.502 174.739 334.209 174.073C334.064 173.742 333.935 173.482 333.846 173.311C333.801 173.225 333.767 173.163 333.745 173.124C333.735 173.105 333.728 173.092 333.724 173.086C333.723 173.084 333.722 173.083 333.722 173.082C333.721 173.082 333.721 173.081 333.721 173.081L332.897 171.684L334.076 170.561C337.451 167.35 341.099 164.474 344.993 162.002L346.545 161.016L347.687 162.446L347.687 162.446L347.688 162.447C347.691 162.451 347.7 162.461 347.712 162.476C347.738 162.506 347.781 162.556 347.843 162.623C347.966 162.758 348.158 162.958 348.414 163.194C348.93 163.669 349.678 164.267 350.611 164.769C352.437 165.75 354.933 166.363 357.962 164.976C360.544 163.794 361.6 161.605 362.008 159.473C362.213 158.405 362.24 157.404 362.212 156.664C362.199 156.298 362.172 156.004 362.15 155.809C362.14 155.711 362.13 155.639 362.123 155.596C362.121 155.574 362.118 155.56 362.117 155.553C362.117 155.553 362.117 155.552 362.117 155.552C362.117 155.551 362.117 155.551 362.117 155.55C362.117 155.55 362.117 155.549 362.117 155.548L361.8 153.705L363.616 153.227C368.73 151.881 374.492 151.498 379.527 152.092L381.567 152.332L381.322 154.363V154.366L381.322 154.368C381.321 154.375 381.32 154.39 381.318 154.413C381.313 154.46 381.307 154.538 381.302 154.643C381.291 154.853 381.282 155.17 381.295 155.562C381.321 156.355 381.434 157.419 381.772 158.533C382.429 160.7 383.904 163.034 387.436 164.063C391.757 165.322 394.633 163.984 396.498 162.388C397.465 161.561 398.177 160.645 398.648 159.927C398.881 159.572 399.049 159.274 399.156 159.072C399.21 158.972 399.247 158.896 399.269 158.85C399.274 158.84 399.278 158.831 399.281 158.825C399.285 158.816 399.288 158.809 399.29 158.805C399.291 158.804 399.291 158.804 399.291 158.803C399.291 158.803 399.292 158.802 399.292 158.801C399.293 158.801 399.292 158.801 399.292 158.801L400.174 156.8L402.117 157.821C407.548 160.676 412.43 164.481 416.707 168.98L418.102 170.447L416.657 171.854L416.655 171.856L416.655 171.856C416.65 171.861 416.64 171.871 416.625 171.887C416.594 171.919 416.544 171.972 416.478 172.045C416.345 172.193 416.149 172.42 415.922 172.717C415.464 173.316 414.899 174.171 414.452 175.203C413.572 177.236 413.169 179.865 414.867 182.75C416.458 185.452 418.933 186.063 421.345 185.928C422.56 185.86 423.687 185.598 424.521 185.345C424.935 185.219 425.265 185.099 425.487 185.013C425.597 184.971 425.679 184.936 425.73 184.915C425.756 184.904 425.773 184.896 425.783 184.892L425.785 184.892L425.786 184.891Z" fill="#215568"/>
<path d="M235.262 329.729V277.786L207.126 251.814L227.687 182.556L190.109 140.405L123.605 136.924C123.605 136.924 161.671 146.809 179.17 167.868C200.789 190.162 196.139 220.771 196.139 220.771L189.812 260.471L220.112 282.114L227.687 338.386L242.884 362.995V343.787L235.262 329.729Z" fill="#215568"/>
<path fill-rule="evenodd" clip-rule="evenodd" d="M121.58 136.611C121.42 137.65 122.072 138.643 123.09 138.907L123.094 138.908L123.111 138.912C123.122 138.915 123.135 138.919 123.153 138.923L123.187 138.933C123.255 138.951 123.359 138.978 123.496 139.016C123.769 139.091 124.177 139.205 124.705 139.358C125.76 139.663 127.293 140.125 129.19 140.745C132.986 141.986 138.227 143.857 144.007 146.377C155.629 151.445 169.159 159.025 177.595 169.177L177.645 169.237L177.7 169.294C188.12 180.039 192.236 192.815 193.735 202.979C194.484 208.056 194.576 212.455 194.48 215.578C194.433 217.138 194.339 218.375 194.258 219.215C194.217 219.635 194.18 219.956 194.154 220.167C194.14 220.273 194.13 220.351 194.123 220.401C194.12 220.425 194.117 220.443 194.115 220.454L194.114 220.464V220.465L187.589 261.401L218.2 283.266L225.715 339.092L241.141 364.071C241.622 364.851 242.562 365.216 243.443 364.966C244.325 364.716 244.933 363.911 244.933 362.995V343.267L237.311 329.21V276.889L209.454 251.174L229.977 182.045L191.07 138.403L123.713 134.878C122.662 134.823 121.741 135.572 121.58 136.611ZM138.665 139.763L189.149 142.406L225.398 183.067L204.799 252.454L233.214 278.683V330.249L240.835 344.307V355.777L229.66 337.681L222.025 280.962L192.035 259.541L198.164 221.086L198.165 221.079L196.14 220.771C198.165 221.079 198.165 221.078 198.166 221.077L198.166 221.074L198.167 221.066L198.171 221.043C198.172 221.033 198.174 221.02 198.176 221.005C198.178 220.993 198.18 220.979 198.182 220.964C198.191 220.897 198.204 220.801 198.22 220.676C198.251 220.428 198.293 220.069 198.337 219.609C198.425 218.688 198.526 217.36 198.576 215.702C198.677 212.389 198.58 207.743 197.789 202.381C196.211 191.684 191.854 178.035 180.696 166.497C171.631 155.622 157.408 147.75 145.645 142.62C143.202 141.555 140.854 140.604 138.665 139.763Z" fill="#215568"/>
<path d="M113.138 166.474C121.842 163.937 120.714 154.57 120.714 154.57C125.493 154.007 130.997 154.371 135.863 155.652C135.863 155.652 134.4 164.175 141.186 167.283C148.685 170.717 153.909 164.175 153.909 164.175C157.685 166.573 161.229 169.365 164.512 172.489C164.512 172.489 160.271 179.676 164.512 184.87C168.753 190.065 176.832 187.623 176.832 187.623C182.273 198.128 183.244 204.092 183.244 214.065C179.298 202.48 157.958 176.9 123.475 188.904C94.0874 199.133 85.1091 238.071 107.681 260.509C127.206 282.358 163.822 280.664 163.822 280.664C153.22 289.563 141.948 293.086 132.617 293.086C132.617 293.086 133.608 283.533 123.373 282.358C113.138 281.182 110.974 289.839 110.974 289.839C107.728 288.757 102.317 286.593 97.9882 283.346C97.9882 283.346 102.317 275.771 94.7415 270.361C87.1669 264.95 81.756 271.443 81.756 271.443C76.7203 267.114 73.3976 262.343 70.8605 256.272C70.8605 256.272 78.8412 252.882 76.7203 243.983C74.5999 235.084 65.2695 236.355 65.2695 236.355C64.5912 231.756 64.3359 227.065 64.4804 222.371C64.4804 222.371 74.9116 222.371 75.8721 213.473C76.9246 203.726 67.6881 201.103 67.6881 201.103C69.15 195.791 70.926 192.008 73.3653 187.199C73.3653 187.199 82.6582 191.437 86.899 184.233C91.1404 177.029 84.7786 170.836 84.7786 170.836C88.9164 166.483 93.6226 162.82 98.8369 160.079C98.8369 160.079 102.96 169.44 113.138 166.474Z" fill="#215568"/>
<path fill-rule="evenodd" clip-rule="evenodd" d="M133.685 157.24C133.666 158.166 133.716 159.375 133.967 160.687C134.524 163.594 136.128 167.221 140.333 169.145C144.803 171.193 148.669 170.252 151.33 168.822C152.536 168.173 153.502 167.424 154.192 166.807C156.928 168.645 159.537 170.702 162.004 172.952C161.64 173.79 161.211 174.951 160.919 176.298C160.324 179.045 160.246 182.885 162.925 186.166C165.591 189.432 169.395 190.2 172.231 190.243C173.599 190.264 174.82 190.12 175.724 189.965C177.959 194.449 179.289 198.024 180.081 201.499C180.342 202.645 180.546 203.789 180.705 204.961C177.319 200.111 172.335 194.929 165.898 190.902C155.275 184.256 140.675 180.747 122.801 186.969C91.9871 197.695 82.6143 238.419 106.193 261.92C116.383 273.292 130.906 278.448 142.674 280.79C148.592 281.967 153.883 282.448 157.696 282.634C157.741 282.636 157.785 282.638 157.83 282.641C149.8 288.109 141.667 290.589 134.616 290.981C134.51 289.976 134.267 288.708 133.731 287.39C133.108 285.859 132.079 284.241 130.403 282.921C128.722 281.596 126.494 280.654 123.607 280.322C117.79 279.654 114.05 281.808 111.814 284.285C110.881 285.32 110.235 286.381 109.801 287.251C107.082 286.233 103.601 284.686 100.524 282.631C100.845 281.712 101.175 280.45 101.252 278.99C101.419 275.809 100.358 271.854 95.9327 268.693C91.5252 265.545 87.5262 265.785 84.6283 266.978C83.4303 267.471 82.4563 268.11 81.7367 268.672C78.1418 265.298 75.5483 261.608 73.477 257.133C74.2607 256.604 75.2179 255.844 76.1215 254.82C78.2203 252.443 79.9524 248.706 78.7135 243.508C77.4505 238.208 73.9375 235.832 70.7993 234.872C69.3903 234.442 68.0647 234.293 67.0536 234.254C66.6499 230.953 66.4655 227.606 66.4929 224.25C67.5897 224.091 69.0632 223.779 70.5897 223.156C73.7593 221.864 77.3224 219.13 77.9096 213.692C78.5213 208.026 76.0984 204.306 73.5112 202.08C72.3262 201.06 71.1182 200.358 70.1731 199.899C71.3099 196.217 72.6495 193.222 74.3826 189.738C75.4163 190.046 76.8393 190.375 78.4279 190.463C81.7227 190.647 86.0146 189.775 88.6649 185.273C91.2077 180.953 90.5502 176.884 89.3099 174.019C88.7646 172.759 88.1032 171.716 87.5396 170.946C90.7429 167.781 94.2646 165.046 98.0748 162.84C98.6952 163.753 99.6047 164.89 100.839 165.946C103.579 168.289 107.855 170.148 113.712 168.441C118.884 166.934 121.196 163.315 122.151 160.165C122.576 158.763 122.737 157.449 122.789 156.439C126.306 156.214 130.128 156.483 133.685 157.24ZM74.2145 185.334L74.213 185.334L74.2116 185.333L74.2106 185.333L72.4274 184.52L71.5382 186.273C69.0791 191.12 67.2294 195.047 65.7126 200.559L65.1731 202.518L67.1191 203.071L67.122 203.072L67.123 203.072C67.1292 203.074 67.1442 203.079 67.1663 203.086C67.2106 203.1 67.2853 203.125 67.385 203.161C67.5849 203.233 67.8836 203.351 68.2448 203.52C68.9741 203.862 69.926 204.401 70.8383 205.185C72.6061 206.707 74.2757 209.172 73.8354 213.252C73.4616 216.713 71.3287 218.429 69.0425 219.362C67.8807 219.835 66.7222 220.08 65.8412 220.203C65.4052 220.264 65.0478 220.294 64.807 220.309C64.6866 220.316 64.596 220.319 64.5396 220.321C64.5117 220.322 64.4924 220.322 64.4823 220.322H64.4804H64.4775H64.4756H62.4939L62.4327 222.308C62.2843 227.117 62.5459 231.93 63.2424 236.654L63.5382 238.659L65.5372 238.386H65.5401L65.5416 238.386C65.5483 238.385 65.5632 238.383 65.5864 238.381C65.6316 238.376 65.7082 238.369 65.8118 238.362C66.0189 238.348 66.3306 238.336 66.7159 238.344C67.4944 238.361 68.5305 238.464 69.6003 238.791C71.6572 239.421 73.8701 240.859 74.7275 244.458C75.6095 248.159 74.4115 250.566 73.0498 252.108C72.3421 252.91 71.5705 253.493 70.9712 253.876C70.674 254.066 70.4269 254.202 70.2622 254.287C70.1803 254.329 70.1191 254.358 70.084 254.374C70.0671 254.382 70.0565 254.387 70.0517 254.389C70.0512 254.389 70.0507 254.389 70.0507 254.39C70.0483 254.391 70.0483 254.391 70.0498 254.39L68.1846 255.182L68.9698 257.062C71.6206 263.405 75.1244 268.444 80.4202 272.997L81.9982 274.353L83.3224 272.764C83.3229 272.763 83.3234 272.763 83.3238 272.762C83.3272 272.758 83.3335 272.75 83.3436 272.739C83.3677 272.713 83.4101 272.666 83.4703 272.605C83.5917 272.48 83.7824 272.295 84.0358 272.083C84.5478 271.654 85.2824 271.14 86.1885 270.767C87.8893 270.067 90.3831 269.765 93.5507 272.028C96.701 274.278 97.2627 276.816 97.1596 278.775C97.1051 279.807 96.8585 280.721 96.6196 281.382C96.5011 281.709 96.3884 281.964 96.3094 282.13C96.2858 282.18 96.2656 282.221 96.2492 282.253C96.2381 282.275 96.2285 282.293 96.2212 282.307C96.2126 282.323 96.2073 282.333 96.2049 282.338C96.2044 282.338 96.2044 282.338 96.2044 282.339L96.2039 282.339L96.2034 282.34L95.3118 283.9L96.7588 284.986C101.346 288.426 106.998 290.674 110.326 291.783L112.425 292.483L112.959 290.348C112.959 290.348 112.959 290.347 112.959 290.346C112.961 290.342 112.964 290.33 112.968 290.315C112.979 290.277 112.999 290.213 113.029 290.125C113.088 289.949 113.187 289.682 113.335 289.357C113.635 288.703 114.12 287.847 114.857 287.03C116.262 285.473 118.721 283.886 123.139 284.394C125.37 284.649 126.856 285.343 127.867 286.139C128.884 286.941 129.527 287.932 129.935 288.935C130.348 289.949 130.512 290.957 130.569 291.725C130.596 292.105 130.597 292.413 130.592 292.618C130.589 292.72 130.584 292.795 130.582 292.84C130.58 292.862 130.579 292.876 130.578 292.882V292.885L130.345 295.135H132.617C142.458 295.135 154.19 291.423 165.14 282.234C165.813 281.669 166.051 280.737 165.731 279.919C165.412 279.101 164.606 278.577 163.729 278.618C163.728 278.618 163.728 278.618 163.728 278.618L163.711 278.618C163.697 278.619 163.674 278.62 163.643 278.621C163.58 278.623 163.483 278.626 163.354 278.63C163.095 278.636 162.708 278.644 162.204 278.646C161.197 278.649 159.726 278.631 157.896 278.541C154.234 278.362 149.15 277.9 143.474 276.77C132.068 274.501 118.543 269.589 109.209 259.144L109.168 259.099L109.125 259.056C87.6153 237.673 96.2068 200.566 124.148 190.839C140.758 185.057 154.069 188.336 163.724 194.376C173.484 200.481 179.491 209.402 181.305 214.725C181.628 215.674 182.591 216.25 183.58 216.086C184.568 215.922 185.293 215.067 185.293 214.065C185.293 209.016 185.049 204.857 184.076 200.588C183.103 196.316 181.422 192.031 178.651 186.681L177.869 185.169L176.245 185.66L176.243 185.66L176.241 185.661L176.241 185.661L176.239 185.662C176.231 185.664 176.217 185.668 176.195 185.674C176.151 185.686 176.081 185.705 175.985 185.729C175.793 185.776 175.505 185.842 175.141 185.907C174.41 186.038 173.403 186.163 172.293 186.146C170.03 186.112 167.674 185.503 166.099 183.575C164.537 181.661 164.459 179.311 164.924 177.166C165.152 176.111 165.499 175.183 165.792 174.516C165.937 174.186 166.066 173.926 166.155 173.755C166.2 173.669 166.234 173.606 166.255 173.568C166.266 173.549 166.273 173.536 166.277 173.53C166.278 173.528 166.279 173.527 166.279 173.527C166.28 173.526 166.28 173.525 166.28 173.525L167.104 172.128L165.925 171.005C162.55 167.793 158.901 164.918 155.007 162.446L153.455 161.46L152.314 162.889L152.314 162.89L152.313 162.891C152.309 162.895 152.301 162.905 152.289 162.92C152.263 162.949 152.22 163 152.158 163.067C152.035 163.202 151.843 163.402 151.587 163.638C151.071 164.113 150.323 164.711 149.389 165.212C147.564 166.194 145.068 166.807 142.039 165.42C139.457 164.238 138.4 162.049 137.992 159.917C137.788 158.849 137.761 157.847 137.789 157.108C137.802 156.741 137.829 156.448 137.85 156.252C137.861 156.155 137.871 156.083 137.877 156.04C137.88 156.018 137.883 156.003 137.884 155.997C137.884 155.996 137.884 155.996 137.884 155.996C137.884 155.994 137.884 155.995 137.884 155.994V155.992C137.884 155.992 137.885 155.992 137.884 155.992L138.201 154.149L136.385 153.671C131.271 152.325 125.508 151.942 120.474 152.535L118.434 152.776L118.678 154.807V154.809L118.679 154.811C118.679 154.818 118.681 154.834 118.683 154.857C118.687 154.904 118.693 154.981 118.699 155.086C118.71 155.297 118.719 155.613 118.706 156.006C118.68 156.799 118.567 157.863 118.229 158.976C117.572 161.144 116.097 163.477 112.565 164.507C108.243 165.766 105.368 164.427 103.503 162.831C102.535 162.004 101.824 161.088 101.353 160.371C101.12 160.015 100.951 159.717 100.845 159.516C100.791 159.415 100.754 159.34 100.732 159.294C100.727 159.284 100.723 159.276 100.719 159.268C100.715 159.259 100.713 159.253 100.711 159.249C100.71 159.248 100.71 159.248 100.71 159.247C100.71 159.247 100.709 159.245 100.709 159.245C100.708 159.244 100.708 159.244 100.709 159.245L99.8272 157.244L97.8841 158.265C92.4525 161.12 87.5705 164.925 83.2935 169.424L81.899 170.891L83.3436 172.298L83.3455 172.3L83.346 172.301C83.3508 172.305 83.3609 172.315 83.3759 172.331C83.4067 172.362 83.4568 172.416 83.5233 172.489C83.6562 172.636 83.8518 172.864 84.0791 173.16C84.5367 173.759 85.1023 174.614 85.5493 175.647C86.4289 177.679 86.832 180.309 85.1336 183.194C83.543 185.895 81.0676 186.506 78.6557 186.372C77.4404 186.304 76.3137 186.042 75.4794 185.789C75.0661 185.663 74.7357 185.543 74.5141 185.457C74.4038 185.414 74.3214 185.38 74.2704 185.358C74.2448 185.348 74.2275 185.34 74.2179 185.336L74.2159 185.335L74.2145 185.334Z" fill="#215568"/>
<path d="M279.476 240.191C279.476 242.384 277.698 244.162 275.504 244.162C273.311 244.162 271.533 242.384 271.533 240.191C271.533 237.998 273.311 236.22 275.504 236.22C277.698 236.22 279.476 237.998 279.476 240.191Z" fill="#215568"/>
<path fill-rule="evenodd" clip-rule="evenodd" d="M275.39 240.141C275.38 240.161 275.378 240.182 275.378 240.191C275.378 240.201 275.38 240.221 275.39 240.242C275.397 240.26 275.407 240.273 275.415 240.281C275.423 240.29 275.436 240.299 275.454 240.306C275.475 240.315 275.495 240.318 275.504 240.318C275.514 240.318 275.534 240.315 275.555 240.306C275.573 240.299 275.586 240.29 275.594 240.281C275.603 240.273 275.612 240.26 275.619 240.242C275.629 240.221 275.631 240.201 275.631 240.191C275.631 240.182 275.629 240.161 275.619 240.141C275.612 240.123 275.603 240.11 275.594 240.102C275.586 240.093 275.573 240.084 275.555 240.076C275.534 240.067 275.514 240.065 275.504 240.065C275.495 240.065 275.475 240.067 275.454 240.076C275.436 240.084 275.423 240.093 275.415 240.102C275.407 240.11 275.397 240.123 275.39 240.141ZM275.504 244.162C277.698 244.162 279.476 242.384 279.476 240.191C279.476 237.998 277.698 236.22 275.504 236.22C273.311 236.22 271.533 237.998 271.533 240.191C271.533 242.384 273.311 244.162 275.504 244.162Z" fill="#215568"/>
<path d="M376.154 110.79V107.834L390.473 89.4422V89.1792H376.613V85.5665H395.465V88.6537L381.54 106.915V107.177H395.925V110.79H376.154Z" fill="#215568"/>
<path d="M413.244 94.4123V91.4567L427.564 73.0646V72.8016H413.704V69.1888H432.556V72.276L418.631 90.5371V90.7996H433.016V94.4123H413.244Z" fill="#215568"/>
<path d="M447.445 77.0713V74.1156L461.764 55.7235V55.4605H447.904V51.8478H466.756V54.935L452.831 73.196V73.4586H467.216V77.0713H447.445Z" fill="#215568"/>
</svg>