<svg xmlns="http://www.w3.org/2000/svg" fill="none" viewBox="62.4 51.9 404.8 313.2"><path fill="#215568" fill-rule="evenodd" d="m252.1 256.6 13.4-11.8v-30.2h-4.1V243l-9.3 8.2V194h-4v57l-8.5-8v-26.3h-4v28l12.4 11.9v44.7h4.1v-44.7Z" clip-rule="evenodd"/><path fill="#215568" d="M241.6 214.2a4 4 0 1 1-8 0 4 4 0 0 1 8 0Z"/><path fill="#215568" fill-rule="evenodd" d="M237.5 214.2v.1h.2a.1.1 0 0 0 0-.2h-.2Zm0 4a4 4 0 1 0 0-8 4 4 0 0 0 0 8Z" clip-rule="evenodd"/><path fill="#215568" d="M254 193a4 4 0 1 1-7.9 0 4 4 0 0 1 8 0Z"/><path fill="#215568" fill-rule="evenodd" d="M250 193h.1v-.1h-.1Zm0 4a4 4 0 1 0 0-8 4 4 0 0 0 0 8Z" clip-rule="evenodd"/><path fill="#215568" d="M267.4 214.2a4 4 0 1 1-8 0 4 4 0 0 1 8 0Z"/><path fill="#215568" fill-rule="evenodd" d="M263.3 214.2v.1h.2a.1.1 0 0 0 0-.2h-.1Zm.1 4a4 4 0 1 0 0-8 4 4 0 0 0 0 8Z" clip-rule="evenodd"/><path fill="#215568" d="M254 301.3a4 4 0 1 1-8 0 4 4 0 0 1 8 0Z"/><path fill="#215568" fill-rule="evenodd" d="M249.9 301.2a.1.1 0 0 0 0 .2h.1l.1-.1a.1.1 0 0 0 0-.1h-.2Zm0 4a4 4 0 1 0 0-7.9 4 4 0 0 0 0 8Z" clip-rule="evenodd"/><path fill="#215568" d="M264.7 329.8v-52l28.2-26-20.6-69.2 37.6-42.1 66.5-3.5s-38 9.9-55.6 31c-21.6 22.2-17 52.8-17 52.8l6.4 39.7-30.3 21.7-7.6 56.2-15.2 24.6v-19.2l7.6-14Z"/><path fill="#215568" fill-rule="evenodd" d="M378.4 136.7c.2 1-.5 2-1.5 2.3a19.8 19.8 0 0 0-1.6.4 137.2 137.2 0 0 0-19.3 7 92.7 92.7 0 0 0-33.6 22.8l-.1.1a60.5 60.5 0 0 0-16 33.7 72.1 72.1 0 0 0-.4 17.4v.1l6.5 41-30.6 21.8-7.5 55.8-15.4 25a2 2 0 0 1-3.8-1v-19.8l7.6-14v-52.4l27.8-25.7-20.5-69.1 39-43.6 67.3-3.6c1 0 2 .7 2.1 1.8Zm-17 3.1-50.5 2.7-36.3 40.6 20.6 69.4-28.4 26.2v51.6l-7.6 14v11.5l11.1-18L278 281l30-21.4-6.2-38.5 2-.3-2 .3a10.5 10.5 0 0 1-.1-1.4l-.3-4c0-3.3 0-8 .8-13.3 1.6-10.7 6-24.3 17.1-35.9a96.8 96.8 0 0 1 35-23.8l7-2.9ZM222.5 240.5v11.8l10.7 9.7v15h4.1v-16.8l-10.7-9.7v-10h-4.1Z" clip-rule="evenodd"/><path fill="#215568" d="M220.5 239.5a4 4 0 1 0 8 0 4 4 0 0 0-8 0Z"/><path fill="#215568" fill-rule="evenodd" d="M224.6 239.5a.1.1 0 0 1 0 .1h-.2a.1.1 0 0 1 0-.2h.1a.1.1 0 0 1 .1 0Zm0 4a4 4 0 1 1 0-8 4 4 0 0 1 0 8ZM277.6 240.5v11.8l-10.8 9.7v15h-4.1v-16.8l10.8-9.7v-10h4Z" clip-rule="evenodd"/><path fill="#215568" d="M386.9 166c-8.7-2.5-7.6-11.9-7.6-11.9-4.8-.5-10.3-.2-15.2 1.1 0 0 1.5 8.5-5.3 11.6-7.5 3.5-12.7-3-12.7-3a69.2 69.2 0 0 0-10.6 8.2s4.2 7.2 0 12.4c-4.3 5.2-12.3 2.8-12.3 2.8a48.6 48.6 0 0 0-6.4 26.4 46.6 46.6 0 0 1 59.7-25.1 43.6 43.6 0 0 1 15.8 71.6c-19.5 21.8-56.1 20.1-56.1 20.1a49.2 49.2 0 0 0 31.2 12.4s-1-9.5 9.2-10.7a10.7 10.7 0 0 1 12.4 7.5c3.3-1 8.7-3.3 13-6.5 0 0-4.3-7.6 3.3-13 7.5-5.4 13 1.1 13 1.1 5-4.3 8.3-9.1 10.8-15.2 0 0-8-3.4-5.8-12.3 2.1-8.9 11.4-7.6 11.4-7.6.7-4.6 1-9.3.8-14 0 0-10.4 0-11.4-8.9-1-9.7 8.2-12.3 8.2-12.3-1.4-5.4-3.2-9.1-5.7-14 0 0-9.3 4.3-13.5-3-4.2-7.1 2.1-13.3 2.1-13.3-4.1-4.4-8.8-8-14-10.8 0 0-4.2 9.4-14.3 6.4Z"/><path fill="#215568" fill-rule="evenodd" d="M366.3 156.8c0 1 0 2.1-.3 3.4-.5 3-2.1 6.6-6.3 8.5a12 12 0 0 1-11-.3 15 15 0 0 1-2.9-2 67 67 0 0 0-7.8 6.1c.4.8.8 2 1 3.4.7 2.7.8 6.5-2 9.8-2.6 3.3-6.4 4-9.2 4.1a19 19 0 0 1-3.5-.3 50.8 50.8 0 0 0-5 15 48.4 48.4 0 0 1 57.9-18 45.6 45.6 0 0 1 16.6 75 65.8 65.8 0 0 1-36.5 18.8c-5.9 1.2-11.2 1.7-15 1.9h-.1c8 5.5 16.1 8 23.2 8.3 0-1 .3-2.2.9-3.6.6-1.5 1.6-3.1 3.3-4.4 1.7-1.3 4-2.3 6.8-2.6a13 13 0 0 1 13.8 7c2.7-1.1 6.2-2.7 9.3-4.7-.3-1-.7-2.2-.8-3.7-.1-3.1 1-7 5.4-10.3 4.4-3.1 8.4-2.9 11.3-1.7 1.2.5 2.1 1.2 2.9 1.7a36 36 0 0 0 8.2-11.5 12.1 12.1 0 0 1-5.2-13.6c1.3-5.3 4.8-7.7 7.9-8.7 1.4-.4 2.7-.6 3.7-.6.5-3.3.6-6.6.6-10-1-.2-2.6-.5-4-1-3.3-1.4-6.8-4.1-7.4-9.6-.6-5.6 1.8-9.3 4.4-11.6 1.2-1 2.4-1.7 3.3-2.1a64.5 64.5 0 0 0-4.2-10.2c-1 .3-2.4.6-4 .7-3.3.2-7.6-.7-10.3-5.2a12 12 0 0 1-.6-11.2 16 16 0 0 1 1.8-3.1 52.4 52.4 0 0 0-10.6-8.1 13.2 13.2 0 0 1-15.6 5.6 12 12 0 0 1-8.4-8.3c-.5-1.4-.6-2.7-.7-3.7a41 41 0 0 0-10.9.8Zm59.5 28 1.8-.7.9 1.7c2.4 4.9 4.3 8.8 5.8 14.3l.5 2-2 .5-.2.1-.8.4c-.8.3-1.7.9-2.6 1.6a8.7 8.7 0 0 0-3 8.1c.3 3.5 2.5 5.2 4.8 6.1a13.6 13.6 0 0 0 4.5 1h2v2c.2 4.8 0 9.6-.7 14.3l-.3 2-2-.3h-.3a10.4 10.4 0 0 0-3.8.4c-2 .7-4.3 2.1-5.1 5.7a8 8 0 0 0 1.7 7.7 10 10 0 0 0 2.7 2.1l.2.1 2 .8-.9 2a40.8 40.8 0 0 1-11.4 15.9l-1.6 1.3-1.3-1.6-.2-.1c0-.2-.3-.3-.5-.6-.5-.4-1.3-.9-2.2-1.3-1.7-.7-4.2-1-7.4 1.3-3.1 2.2-3.7 4.8-3.6 6.7a9.2 9.2 0 0 0 1 3.6l.9 1.6-1.5 1a50.2 50.2 0 0 1-13.5 6.8l-2.1.7-.6-2.1v-.2l-.3-.8c-.3-.6-.8-1.5-1.6-2.3-1.4-1.6-3.8-3.2-8.2-2.7-2.3.3-3.8 1-4.8 1.8s-1.6 1.8-2 2.8a9.3 9.3 0 0 0-.7 3.9l.3 2.3h-2.3c-9.9 0-21.6-3.7-32.5-13a2 2 0 0 1 1.4-3.5 13.2 13.2 0 0 0 1.5 0 83.2 83.2 0 0 0 18.7-1.9c11.4-2.2 25-7.2 34.3-17.6a41.5 41.5 0 0 0-15-68.3 44.3 44.3 0 0 0-57.1 23.9 2 2 0 0 1-4-.7c0-5 .3-9.2 1.2-13.5 1-4.2 2.7-8.5 5.4-13.9l.8-1.5 1.7.5h.2a13.5 13.5 0 0 0 3.7.5c2.3 0 4.6-.6 6.2-2.6 1.6-1.9 1.6-4.2 1.2-6.4a14.1 14.1 0 0 0-1.4-3.6l-.8-1.4 1.2-1.1c3.4-3.3 7-6.1 10.9-8.6l1.5-1 1.2 1.4.1.2.6.6c.5.5 1.3 1 2.2 1.6 1.8 1 4.3 1.6 7.4.2a7.1 7.1 0 0 0 4-5.5 12.6 12.6 0 0 0 .1-3.9l-.3-1.9 1.8-.5a44.3 44.3 0 0 1 16-1.1l2 .2-.3 2V154.7a10.9 10.9 0 0 0 .5 4 7.8 7.8 0 0 0 5.6 5.5c4.4 1.2 7.2-.1 9.1-1.7a11.7 11.7 0 0 0 2.8-3.6l.9-2 2 1a56.4 56.4 0 0 1 14.5 11.2l1.4 1.4-1.4 1.5a6.5 6.5 0 0 0-.8.8c-.4.6-1 1.5-1.4 2.5a8 8 0 0 0 .4 7.6c1.6 2.7 4 3.3 6.4 3.1a13.8 13.8 0 0 0 4.2-.9h.2v-.1Z" clip-rule="evenodd"/><path fill="#215568" d="M235.3 329.7v-52L207 251.9l20.6-69.2-37.6-42.2-66.5-3.5s38 10 55.6 31c21.6 22.3 17 52.9 17 52.9l-6.4 39.7 30.3 21.6 7.6 56.3 15.2 24.6v-19.2l-7.6-14Z"/><path fill="#215568" fill-rule="evenodd" d="M121.6 136.6a2 2 0 0 0 1.5 2.3l.4.1a90.9 90.9 0 0 1 5.7 1.7c3.8 1.3 9 3.2 14.8 5.7a92.7 92.7 0 0 1 33.6 22.8h.1a60.5 60.5 0 0 1 16 33.8 72 72 0 0 1 .5 17.2v.2l-6.6 41 30.6 21.9 7.5 55.8 15.4 25a2 2 0 0 0 3.8-1.1v-19.7l-7.6-14v-52.4l-27.8-25.7L230 182l-39-43.6-67.3-3.5c-1 0-2 .7-2.1 1.7Zm17 3.2 50.5 2.6 36.3 40.7-20.6 69.4 28.4 26.2v51.5l7.6 14.1v11.5l-11.1-18.1L222 281l-30-21.5 6.2-38.4-2-.3 2 .3v-.4a36.9 36.9 0 0 0 .4-5c0-3.3 0-8-.8-13.3a64.6 64.6 0 0 0-17.1-35.9 96.8 96.8 0 0 0-35-23.9l-7-2.8Z" clip-rule="evenodd"/><path fill="#215568" d="M113.1 166.5c8.7-2.6 7.6-12 7.6-12 4.8-.5 10.3-.1 15.2 1.2 0 0-1.5 8.5 5.3 11.6 7.5 3.4 12.7-3.1 12.7-3.1 3.8 2.4 7.3 5.2 10.6 8.3 0 0-4.2 7.2 0 12.4 4.3 5.2 12.3 2.7 12.3 2.7a48.7 48.7 0 0 1 6.4 26.5 46.6 46.6 0 0 0-59.7-25.2 43.6 43.6 0 0 0-15.8 71.6c19.5 21.9 56.1 20.2 56.1 20.2a49.2 49.2 0 0 1-31.2 12.4s1-9.6-9.2-10.7c-10.3-1.2-12.4 7.4-12.4 7.4-3.3-1-8.7-3.2-13-6.5 0 0 4.3-7.5-3.3-13-7.5-5.4-13 1.1-13 1.1-5-4.3-8.3-9-10.8-15.1 0 0 8-3.4 5.8-12.3-2.1-9-11.4-7.6-11.4-7.6-.7-4.6-1-9.3-.8-14 0 0 10.4 0 11.4-9 1-9.7-8.2-12.3-8.2-12.3 1.5-5.3 3.2-9 5.7-13.9 0 0 9.3 4.2 13.5-3 4.2-7.2-2.1-13.4-2.1-13.4 4.1-4.3 8.8-8 14-10.7 0 0 4.2 9.3 14.3 6.4Z"/><path fill="#215568" fill-rule="evenodd" d="M133.7 157.2c0 1 0 2.2.3 3.5.5 2.9 2.1 6.5 6.3 8.4a12 12 0 0 0 11-.3 15 15 0 0 0 2.9-2c2.7 1.8 5.3 3.9 7.8 6.2-.4.8-.8 2-1 3.3-.7 2.7-.8 6.6 2 9.9 2.6 3.2 6.4 4 9.2 4 1.4 0 2.6 0 3.5-.2a50.8 50.8 0 0 1 5 15 48.4 48.4 0 0 0-57.9-18 45.6 45.6 0 0 0-16.6 75 65.8 65.8 0 0 0 36.5 18.8 103.9 103.9 0 0 0 15.1 1.8c-8 5.5-16.1 8-23.2 8.4 0-1-.3-2.3-.9-3.6-.6-1.5-1.6-3.2-3.3-4.5-1.7-1.3-4-2.2-6.8-2.6a13 13 0 0 0-13.8 7c-2.7-1-6.2-2.6-9.3-4.7a11.5 11.5 0 0 0-4.6-14c-4.4-3-8.4-2.8-11.3-1.6-1.2.5-2.1 1.1-2.9 1.7a36 36 0 0 1-8.2-11.6 14 14 0 0 0 2.6-2.3c2.1-2.4 3.9-6 2.6-11.3a11.3 11.3 0 0 0-7.9-8.6 15 15 0 0 0-3.7-.6c-.5-3.3-.6-6.7-.6-10 1-.2 2.6-.5 4-1.1 3.3-1.3 6.8-4 7.4-9.5.6-5.7-1.8-9.4-4.4-11.6-1.2-1-2.4-1.7-3.3-2.2 1.1-3.7 2.4-6.7 4.2-10.2 1 .3 2.4.7 4 .8 3.3.1 7.6-.7 10.3-5.2a12 12 0 0 0 .6-11.3 16 16 0 0 0-1.8-3c3.2-3.2 6.8-6 10.6-8.2a13.2 13.2 0 0 0 15.6 5.6 12 12 0 0 0 8.5-8.2c.4-1.4.5-2.8.6-3.8a41 41 0 0 1 10.9.8Zm-59.5 28.1-1.8-.8-.9 1.8a70.8 70.8 0 0 0-5.8 14.3l-.5 2 2 .5a6 6 0 0 1 1 .4c.8.4 1.7.9 2.6 1.7 1.8 1.5 3.5 4 3 8-.3 3.5-2.5 5.2-4.8 6.2a13.6 13.6 0 0 1-4.2 1h-2.3v2c-.2 4.7 0 9.5.7 14.3l.3 2 2-.3h.3a10.4 10.4 0 0 1 3.8.4c2 .6 4.3 2 5.1 5.7A8 8 0 0 1 73 252a10 10 0 0 1-3 2.3l-1.8.8.8 1.9A40.8 40.8 0 0 0 80.4 273l1.6 1.4 1.3-1.6.2-.2.5-.5c.5-.4 1.3-1 2.2-1.3 1.7-.7 4.2-1 7.4 1.2 3.1 2.3 3.7 4.8 3.6 6.8a9.2 9.2 0 0 1-1 3.5l-.9 1.6 1.5 1a50.2 50.2 0 0 0 13.5 6.9l2.1.7.6-2.2v-.2l.3-.7c.3-.7.8-1.6 1.6-2.4 1.4-1.5 3.8-3.1 8.2-2.6 2.3.2 3.8 1 4.8 1.7 1 .8 1.6 1.8 2 2.8a9.3 9.3 0 0 1 .7 3.7v.2l-.3 2.3h2.3c9.9 0 21.6-3.7 32.5-12.9a2 2 0 0 0-1.4-3.6h-.3a58 58 0 0 1-5.5 0c-3.7-.2-8.8-.7-14.4-1.8a61.7 61.7 0 0 1-34.3-17.7 41.5 41.5 0 0 1 15-68.3 44.3 44.3 0 0 1 57.1 24 2 2 0 0 0 4-.7c0-5-.3-9.2-1.2-13.5-1-4.3-2.7-8.6-5.4-14l-.8-1.4-1.7.5a9.7 9.7 0 0 1-1 .2c-.8.1-1.8.3-3 .2-2.2 0-4.5-.6-6.1-2.5-1.6-2-1.6-4.3-1.2-6.4a14.1 14.1 0 0 1 1.4-3.6l.8-1.5-1.2-1c-3.3-3.3-7-6.2-10.9-8.7l-1.5-1-1.2 1.5-.1.2-.6.5c-.5.5-1.3 1.1-2.2 1.6a7.9 7.9 0 0 1-7.4.2 7.1 7.1 0 0 1-4-5.5 12.7 12.7 0 0 1-.1-3.9l.3-1.9-1.8-.4a44.3 44.3 0 0 0-16-1.2l-2 .3.3 2a8.3 8.3 0 0 1 0 1.2c0 .8-.1 1.9-.5 3a7.8 7.8 0 0 1-5.6 5.5c-4.4 1.3-7.2 0-9.1-1.7a11.7 11.7 0 0 1-2.8-3.5l-.9-2-2 1a56.4 56.4 0 0 0-14.5 11.1l-1.4 1.5 1.4 1.4a5.9 5.9 0 0 1 .8.9c.4.6 1 1.4 1.4 2.4a8 8 0 0 1-.4 7.6c-1.6 2.7-4 3.3-6.4 3.2a13.8 13.8 0 0 1-4.4-1Z" clip-rule="evenodd"/><path fill="#215568" d="M279.5 240.2a4 4 0 1 1-8 0 4 4 0 0 1 8 0Z"/><path fill="#215568" fill-rule="evenodd" d="M275.4 240.1v.2h.2v-.2h-.2Zm.1 4a4 4 0 1 0 0-7.9 4 4 0 0 0 0 8Z" clip-rule="evenodd"/><path fill="#215568" d="M376.2 110.8v-3l14.3-18.4v-.2h-13.9v-3.6h18.9v3l-14 18.3v.3H396v3.6h-19.7ZM413.2 94.4v-3l14.4-18.3v-.3h-13.9v-3.6h18.9v3l-14 18.3v.3H433v3.6h-19.8ZM447.4 77v-2.9l14.4-18.4v-.2h-13.9v-3.7h18.9V55l-14 18.3v.3h14.4V77h-19.8Z"/></svg>